<svg width="356" height="88" viewBox="0 0 356 88" fill="none" xmlns="http://www.w3.org/2000/svg">
<path d="M302.099 77.121C302.099 76.0627 302.302 75.1092 302.708 74.2616C303.12 73.4134 303.699 72.7552 304.442 72.2868C305.192 71.8121 306.041 71.5747 306.988 71.5747C308.448 71.5747 309.632 72.0905 310.538 73.1216C311.443 74.1458 311.896 75.5063 311.896 77.2026V77.4568C311.896 78.5221 311.69 79.4819 311.278 80.3371C310.872 81.1852 310.298 81.8394 309.554 82.3008C308.81 82.7623 307.961 82.9933 307.008 82.9933C305.554 82.9933 304.371 82.4809 303.459 81.4562C302.552 80.4251 302.099 79.0616 302.099 77.3653V77.121ZM303.316 77.4568C303.316 78.7727 303.654 79.8554 304.33 80.7029C305.014 81.5447 305.906 81.9651 307.008 81.9651C308.103 81.9651 308.989 81.5447 309.665 80.7029C310.348 79.8554 310.69 78.7392 310.69 77.3549V77.121C310.69 76.2798 310.534 75.5098 310.223 74.811C309.912 74.1122 309.476 73.5726 308.915 73.1928C308.354 72.8061 307.712 72.6127 306.988 72.6127C305.906 72.6127 305.023 73.04 304.341 73.8951C303.658 74.7433 303.316 75.8554 303.316 77.2327V77.4568ZM315.568 71.7779L315.609 73.6606C316.021 72.9827 316.535 72.4668 317.15 72.1143C317.765 71.7542 318.445 71.5747 319.189 71.5747C320.365 71.5747 321.241 71.907 321.816 72.5722C322.391 73.2368 322.681 74.2344 322.688 75.5642V82.7895H321.481V75.5538C321.474 74.5702 321.265 73.8372 320.852 73.3555C320.447 72.8738 319.794 72.633 318.895 72.633C318.145 72.633 317.478 72.8704 316.897 73.3457C316.322 73.8135 315.896 74.448 315.619 75.2487V82.7895H314.412V71.7779H315.568ZM327.191 82.7895H325.974V67.1579H327.191V82.7895ZM331.857 82.7895H330.64V71.7779H331.857V82.7895ZM330.427 68.5931C330.427 68.3621 330.501 68.1687 330.65 68.013C330.798 67.8497 331.002 67.7687 331.258 67.7687C331.515 67.7687 331.718 67.8497 331.867 68.013C332.022 68.1687 332.1 68.3621 332.1 68.5931C332.1 68.8235 332.022 69.0169 331.867 69.1726C331.718 69.329 331.515 69.4071 331.258 69.4071C331.002 69.4071 330.798 69.329 330.65 69.1726C330.501 69.0169 330.427 68.8235 330.427 68.5931ZM336.32 71.7779L336.36 73.6606C336.773 72.9827 337.286 72.4668 337.902 72.1143C338.517 71.7542 339.196 71.5747 339.94 71.5747C341.117 71.5747 341.993 71.907 342.567 72.5722C343.142 73.2368 343.433 74.2344 343.439 75.5642V82.7895H342.233V75.5538C342.226 74.5702 342.016 73.8372 341.604 73.3555C341.198 72.8738 340.545 72.633 339.646 72.633C338.895 72.633 338.229 72.8704 337.648 73.3457C337.073 73.8135 336.647 74.448 336.37 75.2487V82.7895H335.163V71.7779H336.32ZM350.833 82.9933C349.9 82.9933 349.055 82.7623 348.297 82.3008C347.547 81.8394 346.962 81.1985 346.543 80.3776C346.124 79.5497 345.914 78.6239 345.914 77.5992V77.1615C345.914 76.1032 346.117 75.1503 346.522 74.3021C346.935 73.4539 347.506 72.7893 348.237 72.3076C348.967 71.819 349.758 71.5747 350.61 71.5747C351.942 71.5747 352.997 72.0326 353.775 72.9485C354.559 73.8575 354.951 75.1028 354.951 76.6833V77.3653H347.121V77.5992C347.121 78.8474 347.476 79.8889 348.186 80.7238C348.902 81.5511 349.802 81.9651 350.884 81.9651C351.533 81.9651 352.104 81.8464 352.598 81.609C353.098 81.3716 353.551 80.9918 353.957 80.4691L354.717 81.0492C353.825 82.3448 352.53 82.9933 350.833 82.9933ZM350.61 72.6127C349.697 72.6127 348.926 72.9485 348.297 73.6201C347.675 74.2917 347.297 75.1943 347.162 76.3273H353.744V76.1947C353.71 75.1364 353.409 74.2749 352.841 73.6103C352.273 72.9451 351.53 72.6127 350.61 72.6127Z" fill="#1F1F1F"/>
<path d="M98.597 27.0454L98.9565 31.21C101.397 27.9964 104.763 26.3896 109.055 26.3896C112.737 26.3896 115.482 27.4936 117.29 29.7016C119.12 31.9096 120.068 35.2325 120.134 39.6703V62.5263H109.087V40.1294C109.087 38.3368 108.728 37.0251 108.009 36.1944C107.29 35.3418 105.983 34.9155 104.087 34.9155C101.93 34.9155 100.329 35.7681 99.283 37.4733V62.5263H88.2695V27.0454H98.597ZM124.872 44.458C124.872 40.9164 125.558 37.7684 126.931 35.0139C128.304 32.2375 130.275 30.106 132.846 28.6195C135.417 27.1329 138.435 26.3896 141.899 26.3896C147.193 26.3896 151.366 28.0401 154.416 31.3412C157.466 34.6204 158.991 39.091 158.991 44.7531V45.1466C158.991 50.6775 157.455 55.0716 154.383 58.329C151.333 61.5647 147.193 63.1823 141.964 63.1823C136.931 63.1823 132.89 61.6735 129.84 58.6566C126.79 55.6181 125.145 51.5083 124.905 46.3271L124.872 44.458ZM135.886 45.1466C135.886 48.4258 136.398 50.8305 137.422 52.3608C138.446 53.8911 139.96 54.6562 141.964 54.6562C145.886 54.6562 147.891 51.6284 147.978 45.5729V44.458C147.978 38.0963 145.951 34.9155 141.899 34.9155C138.217 34.9155 136.223 37.6591 135.918 43.1463L135.886 45.1466ZM176.671 18.2244V27.0454H182.488V34.7188H176.671V50.9508C176.671 52.2843 176.911 53.2134 177.39 53.7381C177.87 54.2628 178.818 54.5251 180.234 54.5251C181.323 54.5251 182.238 54.4595 182.979 54.3283V62.2311C180.996 62.865 178.926 63.1823 176.769 63.1823C172.978 63.1823 170.179 62.2861 168.371 60.4931C166.562 58.7006 165.658 55.9789 165.658 52.328V34.7188H161.148V27.0454H165.658V18.2244H176.671ZM203.96 63.1823C198.535 63.1823 194.145 61.5647 190.789 58.329C187.434 55.0716 185.756 50.8415 185.756 45.6385V44.7203C185.756 41.0913 186.421 37.8886 187.75 35.1122C189.101 32.3359 191.062 30.1934 193.633 28.6851C196.203 27.1547 199.254 26.3896 202.783 26.3896C207.751 26.3896 211.672 27.9417 214.549 31.0461C217.424 34.1285 218.862 38.4352 218.862 43.9661V48.2618H196.966C197.358 50.2512 198.219 51.8143 199.548 52.951C200.877 54.0879 202.598 54.6562 204.712 54.6562C208.198 54.6562 210.921 53.432 212.882 50.9836L217.915 56.9517C216.542 58.8535 214.592 60.3732 212.065 61.5097C209.559 62.6247 206.857 63.1823 203.96 63.1823ZM202.718 34.9155C199.493 34.9155 197.576 37.0579 196.966 41.3428H208.078V40.4901C208.121 38.7194 207.674 37.353 206.738 36.3911C205.801 35.4074 204.461 34.9155 202.718 34.9155ZM256.151 45.0482C256.151 50.5573 254.909 54.9623 252.425 58.2635C249.963 61.5427 246.63 63.1823 242.425 63.1823C239.179 63.1823 236.51 61.9908 234.418 59.6078V76.1675H223.405V27.0454H233.699L234.026 30.3246C236.139 27.7013 238.918 26.3896 242.36 26.3896C246.717 26.3896 250.105 28.0073 252.523 31.2428C254.942 34.4564 256.151 38.8833 256.151 44.5235V45.0482ZM245.137 44.3596C245.137 38.0635 243.308 34.9155 239.647 34.9155C237.033 34.9155 235.29 35.8555 234.418 37.7356V51.705C235.377 53.6725 237.142 54.6562 239.713 54.6562C243.22 54.6562 245.029 51.6176 245.137 45.5401V44.3596ZM280.956 62.5263C280.564 61.805 280.215 60.7449 279.91 59.3456C277.884 61.9034 275.051 63.1823 271.413 63.1823C268.08 63.1823 265.247 62.1766 262.916 60.1654C260.585 58.1321 259.419 55.5854 259.419 52.5248C259.419 48.6772 260.836 45.7696 263.668 43.8021C266.5 41.8346 270.618 40.8508 276.021 40.8508H279.42V38.9817C279.42 35.7244 278.015 34.0957 275.204 34.0957C272.59 34.0957 271.282 35.3855 271.282 37.9652H260.269C260.269 34.5329 261.718 31.7456 264.615 29.6032C267.535 27.4608 271.25 26.3896 275.76 26.3896C280.27 26.3896 283.832 27.4936 286.446 29.7016C289.06 31.9096 290.401 34.9374 290.466 38.785V54.4923C290.509 57.7496 291.011 60.2418 291.969 61.9688V62.5263H280.956ZM274.06 55.3121C275.433 55.3121 276.566 55.017 277.459 54.4267C278.374 53.8364 279.028 53.1697 279.42 52.4264V46.7534H276.217C272.383 46.7534 270.465 48.4804 270.465 51.9345C270.465 52.9402 270.803 53.76 271.479 54.3939C272.154 55.006 273.015 55.3121 274.06 55.3121ZM295.205 44.5235C295.205 38.9052 296.414 34.4783 298.832 31.2428C301.25 28.0073 304.628 26.3896 308.964 26.3896C312.123 26.3896 314.781 27.6357 316.938 30.1279V12.1579H327.983V62.5263H318.081L317.525 58.7226C315.26 61.6955 312.384 63.1823 308.898 63.1823C304.693 63.1823 301.359 61.5647 298.898 58.329C296.436 55.0935 295.205 50.4917 295.205 44.5235ZM306.218 45.2122C306.218 51.5083 308.048 54.6562 311.708 54.6562C314.148 54.6562 315.891 53.6288 316.938 51.5738V38.0635C315.935 35.9649 314.214 34.9155 311.774 34.9155C308.375 34.9155 306.534 37.67 306.251 43.1791L306.218 45.2122Z" fill="#1F1F1F"/>
<path fill-rule="evenodd" clip-rule="evenodd" d="M10.6742 55.8684H26.6856V61.2237H10.6742V55.8684ZM21.325 7.67105H69.4062C72.3453 7.67105 74.7196 10.0851 74.7196 13.063V77.253C74.7196 80.2352 72.3407 82.6447 69.4062 82.6447H21.325C18.3856 82.6447 16.0113 80.2305 16.0113 77.253V66.5789H26.6866C29.6336 66.5789 32.0227 64.2082 32.0227 61.2295V55.8628C32.0227 52.9083 29.6545 50.5132 26.6866 50.5132H16.0113V39.8026H26.6866C29.6336 39.8026 32.0227 37.4321 32.0227 34.453V29.0865C32.0227 26.1319 29.6545 23.7368 26.6866 23.7368H16.0113V13.063C16.0113 10.0806 18.3904 7.67105 21.325 7.67105ZM10.6742 29.0921H26.6856V34.4474H10.6742V29.0921Z" fill="#1F1F1F"/>
</svg>
