<svg width="320" height="280" viewBox="0 0 320 280" fill="none" xmlns="http://www.w3.org/2000/svg">
<path d="M72.0469 168H71.5723V155.678H63.3984V168H62.9238V155.203H72.0469V168ZM82.585 163.333C82.585 164.815 82.2656 165.993 81.627 166.866C80.9883 167.739 80.1182 168.176 79.0166 168.176C78.2959 168.176 77.6543 168.029 77.0918 167.736C76.5293 167.443 76.0898 167.039 75.7734 166.523V171.656H75.2988V158.49H75.7734V160.187C76.1016 159.583 76.5439 159.12 77.1006 158.798C77.6572 158.476 78.29 158.314 78.999 158.314C80.1123 158.314 80.9883 158.742 81.627 159.598C82.2656 160.447 82.585 161.643 82.585 163.184V163.333ZM82.1016 163.148C82.1016 161.783 81.8291 160.717 81.2842 159.949C80.7451 159.176 79.9863 158.789 79.0078 158.789C78.2109 158.789 77.5342 158.997 76.9775 159.413C76.4209 159.823 76.0195 160.415 75.7734 161.188V165.636C76.0195 166.292 76.4209 166.802 76.9775 167.165C77.54 167.522 78.2227 167.701 79.0254 167.701C79.998 167.701 80.7539 167.314 81.293 166.541C81.832 165.768 82.1016 164.637 82.1016 163.148ZM91.5322 158.49H92.0156V168H91.5322V159.334L85.6523 168H85.1777V158.49H85.6523V167.156L91.5322 158.49ZM101.877 158.49V168H101.394V158.974H96.8408L96.6562 163.421C96.5625 165.114 96.334 166.298 95.9707 166.972C95.6133 167.646 95.0391 167.988 94.248 168H93.9141V167.534H94.3096C94.9072 167.511 95.3438 167.197 95.6191 166.594C95.9004 165.99 96.085 164.982 96.1729 163.57L96.3838 158.49H101.877ZM104.18 163.061C104.18 162.152 104.353 161.338 104.698 160.617C105.05 159.891 105.542 159.325 106.175 158.921C106.813 158.517 107.534 158.314 108.337 158.314C109.134 158.314 109.849 158.511 110.481 158.903C111.114 159.296 111.606 159.853 111.958 160.573C112.315 161.294 112.497 162.105 112.503 163.008V163.43C112.503 164.344 112.33 165.161 111.984 165.882C111.639 166.603 111.146 167.165 110.508 167.569C109.875 167.974 109.157 168.176 108.354 168.176C107.552 168.176 106.831 167.977 106.192 167.578C105.56 167.18 105.067 166.623 104.716 165.908C104.364 165.188 104.186 164.379 104.18 163.482V163.061ZM104.654 163.43C104.654 164.221 104.81 164.947 105.12 165.609C105.437 166.266 105.873 166.778 106.43 167.147C106.992 167.517 107.634 167.701 108.354 167.701C109.438 167.701 110.32 167.294 111 166.479C111.686 165.665 112.028 164.616 112.028 163.333V163.061C112.028 162.281 111.87 161.561 111.554 160.898C111.237 160.236 110.798 159.721 110.235 159.352C109.679 158.977 109.046 158.789 108.337 158.789C107.253 158.789 106.368 159.202 105.683 160.028C104.997 160.854 104.654 161.895 104.654 163.148V163.43ZM121.556 163.359H120.185V168H119.71V163.359H118.348L113.971 168H113.347L117.838 163.148L113.9 158.49H114.489L118.269 162.885H119.71V158.49H120.185V162.885H121.652L125.423 158.49H126.029L122.065 163.148L126.574 168H125.95L121.556 163.359ZM131.698 168.176C130.931 168.176 130.225 167.971 129.58 167.561C128.941 167.145 128.44 166.576 128.077 165.855C127.714 165.135 127.532 164.335 127.532 163.456V163.061C127.532 162.182 127.708 161.376 128.06 160.644C128.411 159.911 128.895 159.34 129.51 158.93C130.125 158.52 130.796 158.314 131.522 158.314C132.583 158.314 133.45 158.692 134.124 159.448C134.798 160.204 135.135 161.197 135.135 162.428V162.929H128.007V163.447C128.007 164.221 128.168 164.938 128.49 165.601C128.818 166.257 129.267 166.772 129.835 167.147C130.409 167.522 131.03 167.71 131.698 167.71C132.337 167.71 132.879 167.604 133.324 167.394C133.775 167.177 134.174 166.846 134.52 166.4L134.854 166.638C134.145 167.663 133.093 168.176 131.698 168.176ZM131.522 158.789C130.597 158.789 129.812 159.135 129.167 159.826C128.522 160.512 128.145 161.388 128.033 162.454H134.66V162.34C134.66 161.695 134.522 161.098 134.247 160.547C133.978 159.99 133.603 159.56 133.122 159.255C132.647 158.944 132.114 158.789 131.522 158.789ZM144.188 168H143.704V163.351H137.824V168H137.35V158.49H137.824V162.876H143.704V158.49H144.188V168ZM153.565 158.49H154.049V168H153.565V159.334L147.686 168H147.211V158.49H147.686V167.156L153.565 158.49ZM160.491 168.176C159.724 168.176 159.018 167.971 158.373 167.561C157.734 167.145 157.233 166.576 156.87 165.855C156.507 165.135 156.325 164.335 156.325 163.456V163.061C156.325 162.182 156.501 161.376 156.853 160.644C157.204 159.911 157.688 159.34 158.303 158.93C158.918 158.52 159.589 158.314 160.315 158.314C161.376 158.314 162.243 158.692 162.917 159.448C163.591 160.204 163.928 161.197 163.928 162.428V162.929H156.8V163.447C156.8 164.221 156.961 164.938 157.283 165.601C157.611 166.257 158.06 166.772 158.628 167.147C159.202 167.522 159.823 167.71 160.491 167.71C161.13 167.71 161.672 167.604 162.117 167.394C162.568 167.177 162.967 166.846 163.312 166.4L163.646 166.638C162.938 167.663 161.886 168.176 160.491 168.176ZM160.315 158.789C159.39 158.789 158.604 159.135 157.96 159.826C157.315 160.512 156.938 161.388 156.826 162.454H163.453V162.34C163.453 161.695 163.315 161.098 163.04 160.547C162.771 159.99 162.396 159.56 161.915 159.255C161.44 158.944 160.907 158.789 160.315 158.789ZM173.358 167.262L173.42 167.086L176.707 158.49H177.234L172.98 169.652L172.77 170.18C172.312 171.287 171.557 171.841 170.502 171.841C170.162 171.841 169.928 171.809 169.799 171.744L169.79 171.296C169.978 171.349 170.191 171.375 170.432 171.375C170.93 171.375 171.343 171.229 171.671 170.936C171.999 170.648 172.283 170.177 172.523 169.521L173.104 167.947L169.315 158.49H169.834L173.358 167.262ZM178.192 167.525L178.526 167.077C179.388 165.899 179.889 164.191 180.029 161.953L180.214 158.49H185.32V167.525H186.076V170.795H185.602V168H177.946V170.795H177.56V167.525H178.192ZM178.772 167.525H184.846V158.965H180.662L180.495 162.111C180.331 164.496 179.757 166.301 178.772 167.525ZM187.605 163.061C187.605 162.152 187.778 161.338 188.124 160.617C188.476 159.891 188.968 159.325 189.601 158.921C190.239 158.517 190.96 158.314 191.763 158.314C192.56 158.314 193.274 158.511 193.907 158.903C194.54 159.296 195.032 159.853 195.384 160.573C195.741 161.294 195.923 162.105 195.929 163.008V163.43C195.929 164.344 195.756 165.161 195.41 165.882C195.064 166.603 194.572 167.165 193.934 167.569C193.301 167.974 192.583 168.176 191.78 168.176C190.978 168.176 190.257 167.977 189.618 167.578C188.985 167.18 188.493 166.623 188.142 165.908C187.79 165.188 187.611 164.379 187.605 163.482V163.061ZM188.08 163.43C188.08 164.221 188.235 164.947 188.546 165.609C188.862 166.266 189.299 166.778 189.855 167.147C190.418 167.517 191.06 167.701 191.78 167.701C192.864 167.701 193.746 167.294 194.426 166.479C195.111 165.665 195.454 164.616 195.454 163.333V163.061C195.454 162.281 195.296 161.561 194.979 160.898C194.663 160.236 194.224 159.721 193.661 159.352C193.104 158.977 192.472 158.789 191.763 158.789C190.679 158.789 189.794 159.202 189.108 160.028C188.423 160.854 188.08 161.895 188.08 163.148V163.43ZM201.738 159.193C202.969 159.193 203.971 159.586 204.744 160.371C205.523 161.15 205.913 162.19 205.913 163.491V163.781C205.913 164.625 205.737 165.384 205.386 166.058C205.034 166.731 204.539 167.253 203.9 167.622C203.268 167.991 202.553 168.176 201.756 168.176C200.953 168.176 200.229 167.988 199.585 167.613C198.946 167.238 198.451 166.717 198.1 166.049C197.754 165.381 197.581 164.625 197.581 163.781V162.797C197.581 160.887 197.956 159.331 198.706 158.13C199.462 156.929 200.508 156.234 201.844 156.047C202.77 155.918 203.44 155.722 203.856 155.458C204.278 155.194 204.489 154.825 204.489 154.351H204.964C204.964 154.966 204.706 155.455 204.19 155.818C203.681 156.182 202.934 156.416 201.949 156.521C200.965 156.621 200.145 157.069 199.488 157.866C198.832 158.663 198.396 159.738 198.179 161.092C198.53 160.5 199.011 160.037 199.62 159.703C200.229 159.363 200.936 159.193 201.738 159.193ZM201.738 159.668C200.654 159.668 199.77 160.028 199.084 160.749C198.398 161.464 198.056 162.378 198.056 163.491V163.781C198.056 164.508 198.211 165.173 198.521 165.776C198.838 166.38 199.274 166.852 199.831 167.191C200.394 167.531 201.035 167.701 201.756 167.701C202.834 167.701 203.716 167.329 204.401 166.585C205.087 165.835 205.43 164.871 205.43 163.693V163.412C205.43 162.727 205.274 162.097 204.964 161.522C204.653 160.942 204.217 160.488 203.654 160.16C203.092 159.832 202.453 159.668 201.738 159.668ZM214.781 168H214.298V163.351H208.418V168H207.943V158.49H208.418V162.876H214.298V158.49H214.781V168ZM217.084 163.061C217.084 162.152 217.257 161.338 217.603 160.617C217.954 159.891 218.446 159.325 219.079 158.921C219.718 158.517 220.438 158.314 221.241 158.314C222.038 158.314 222.753 158.511 223.386 158.903C224.019 159.296 224.511 159.853 224.862 160.573C225.22 161.294 225.401 162.105 225.407 163.008V163.43C225.407 164.344 225.234 165.161 224.889 165.882C224.543 166.603 224.051 167.165 223.412 167.569C222.779 167.974 222.062 168.176 221.259 168.176C220.456 168.176 219.735 167.977 219.097 167.578C218.464 167.18 217.972 166.623 217.62 165.908C217.269 165.188 217.09 164.379 217.084 163.482V163.061ZM217.559 163.43C217.559 164.221 217.714 164.947 218.024 165.609C218.341 166.266 218.777 166.778 219.334 167.147C219.896 167.517 220.538 167.701 221.259 167.701C222.343 167.701 223.225 167.294 223.904 166.479C224.59 165.665 224.933 164.616 224.933 163.333V163.061C224.933 162.281 224.774 161.561 224.458 160.898C224.142 160.236 223.702 159.721 223.14 159.352C222.583 158.977 221.95 158.789 221.241 158.789C220.157 158.789 219.272 159.202 218.587 160.028C217.901 160.854 217.559 161.895 217.559 163.148V163.43ZM231.665 167.525L231.999 167.077C232.86 165.899 233.361 164.191 233.502 161.953L233.687 158.49H238.793V167.525H239.549V170.795H239.074V168H231.419V170.795H231.032V167.525H231.665ZM232.245 167.525H238.318V158.965H234.135L233.968 162.111C233.804 164.496 233.229 166.301 232.245 167.525ZM248.637 158.49V168H248.153V158.974H243.601L243.416 163.421C243.322 165.114 243.094 166.298 242.73 166.972C242.373 167.646 241.799 167.988 241.008 168H240.674V167.534H241.069C241.667 167.511 242.104 167.197 242.379 166.594C242.66 165.99 242.845 164.982 242.933 163.57L243.144 158.49H248.637ZM258.27 158.49V168H257.795V164.045H254.314L251.933 168H251.37L253.77 164.001C253.084 163.89 252.542 163.591 252.144 163.104C251.745 162.618 251.546 162.006 251.546 161.268C251.546 160.441 251.824 159.776 252.381 159.272C252.943 158.769 253.705 158.508 254.666 158.49H258.27ZM252.021 161.285C252.021 161.971 252.226 162.519 252.636 162.929C253.052 163.339 253.611 163.55 254.314 163.562H257.795V158.974H254.754C253.898 158.974 253.228 159.179 252.741 159.589C252.261 159.999 252.021 160.564 252.021 161.285ZM39.9141 179.49H40.3975V189H39.9141V180.334L34.0342 189H33.5596V179.49H34.0342V188.156L39.9141 179.49ZM46.6465 188.701C47.5078 188.701 48.2168 188.473 48.7734 188.016C49.3359 187.559 49.6436 186.926 49.6963 186.117H50.1709C50.124 187.037 49.7695 187.778 49.1074 188.341C48.4453 188.897 47.625 189.176 46.6465 189.176C45.457 189.176 44.5107 188.745 43.8076 187.884C43.1104 187.022 42.7617 185.854 42.7617 184.377V184.061C42.7617 182.619 43.1104 181.468 43.8076 180.606C44.5107 179.745 45.4512 179.314 46.6289 179.314C47.6367 179.314 48.4688 179.616 49.125 180.22C49.7812 180.823 50.1299 181.626 50.1709 182.628H49.6963C49.6553 181.772 49.3535 181.087 48.791 180.571C48.2344 180.05 47.5137 179.789 46.6289 179.789C45.5684 179.789 44.7363 180.173 44.1328 180.94C43.5352 181.702 43.2363 182.763 43.2363 184.122V184.43C43.2363 185.76 43.5381 186.806 44.1416 187.567C44.751 188.323 45.5859 188.701 46.6465 188.701ZM59.3994 189H58.916V179.974H53.0361V189H52.5615V179.49H59.3994V189ZM61.7021 184.061C61.7021 183.152 61.875 182.338 62.2207 181.617C62.5723 180.891 63.0645 180.325 63.6973 179.921C64.3359 179.517 65.0566 179.314 65.8594 179.314C66.6562 179.314 67.3711 179.511 68.0039 179.903C68.6367 180.296 69.1289 180.853 69.4805 181.573C69.8379 182.294 70.0195 183.105 70.0254 184.008V184.43C70.0254 185.344 69.8525 186.161 69.5068 186.882C69.1611 187.603 68.6689 188.165 68.0303 188.569C67.3975 188.974 66.6797 189.176 65.877 189.176C65.0742 189.176 64.3535 188.977 63.7148 188.578C63.082 188.18 62.5898 187.623 62.2383 186.908C61.8867 186.188 61.708 185.379 61.7021 184.482V184.061ZM62.1768 184.43C62.1768 185.221 62.332 185.947 62.6426 186.609C62.959 187.266 63.3955 187.778 63.9521 188.147C64.5146 188.517 65.1562 188.701 65.877 188.701C66.9609 188.701 67.8428 188.294 68.5225 187.479C69.208 186.665 69.5508 185.616 69.5508 184.333V184.061C69.5508 183.281 69.3926 182.561 69.0762 181.898C68.7598 181.236 68.3203 180.721 67.7578 180.352C67.2012 179.977 66.5684 179.789 65.8594 179.789C64.7754 179.789 63.8906 180.202 63.2051 181.028C62.5195 181.854 62.1768 182.895 62.1768 184.148V184.43ZM79.0342 179.49V189H78.5508V179.974H73.998L73.8135 184.421C73.7197 186.114 73.4912 187.298 73.1279 187.972C72.7705 188.646 72.1963 188.988 71.4053 189H71.0713V188.534H71.4668C72.0645 188.511 72.501 188.197 72.7764 187.594C73.0576 186.99 73.2422 185.982 73.3301 184.57L73.541 179.49H79.0342ZM82.6113 183.111H85.7314C86.7451 183.129 87.5508 183.404 88.1484 183.938C88.7461 184.465 89.0449 185.171 89.0449 186.056C89.0449 186.935 88.749 187.641 88.1572 188.174C87.5654 188.707 86.7568 188.982 85.7314 189H82.1367V179.49H82.6113V183.111ZM82.6113 183.586V188.525H85.6436C86.5576 188.525 87.2725 188.303 87.7881 187.857C88.3096 187.406 88.5703 186.8 88.5703 186.038C88.5703 185.312 88.3154 184.726 87.8057 184.28C87.3018 183.829 86.6045 183.598 85.7139 183.586H82.6113ZM97.4736 181.925C97.4736 181.251 97.2246 180.727 96.7266 180.352C96.2344 179.977 95.5137 179.789 94.5645 179.789C93.7441 179.789 93.0498 179.997 92.4814 180.413C91.9189 180.829 91.6377 181.351 91.6377 181.978H91.1543C91.1543 181.21 91.4854 180.574 92.1475 180.07C92.8154 179.566 93.6211 179.314 94.5645 179.314C95.6426 179.314 96.4775 179.549 97.0693 180.018C97.6611 180.48 97.957 181.125 97.957 181.951C97.957 182.449 97.7959 182.892 97.4736 183.278C97.1514 183.665 96.6973 183.949 96.1113 184.131C97.4531 184.436 98.124 185.209 98.124 186.451C98.124 187.283 97.8018 187.945 97.1572 188.438C96.5186 188.924 95.6572 189.167 94.5732 189.167C93.9404 189.167 93.3457 189.05 92.7891 188.815C92.2324 188.581 91.793 188.253 91.4707 187.831C91.1543 187.409 90.9961 186.917 90.9961 186.354H91.4795C91.4795 187.011 91.7725 187.564 92.3584 188.016C92.9443 188.461 93.6826 188.684 94.5732 188.684C95.5811 188.684 96.3428 188.487 96.8584 188.095C97.3799 187.696 97.6406 187.157 97.6406 186.478C97.6406 185.745 97.3857 185.215 96.876 184.887C96.3721 184.559 95.6133 184.392 94.5996 184.386H93.2725V183.902H94.6963C96.5479 183.873 97.4736 183.214 97.4736 181.925ZM99.9346 184.061C99.9346 183.152 100.107 182.338 100.453 181.617C100.805 180.891 101.297 180.325 101.93 179.921C102.568 179.517 103.289 179.314 104.092 179.314C104.889 179.314 105.604 179.511 106.236 179.903C106.869 180.296 107.361 180.853 107.713 181.573C108.07 182.294 108.252 183.105 108.258 184.008V184.43C108.258 185.344 108.085 186.161 107.739 186.882C107.394 187.603 106.901 188.165 106.263 188.569C105.63 188.974 104.912 189.176 104.109 189.176C103.307 189.176 102.586 188.977 101.947 188.578C101.314 188.18 100.822 187.623 100.471 186.908C100.119 186.188 99.9404 185.379 99.9346 184.482V184.061ZM100.409 184.43C100.409 185.221 100.564 185.947 100.875 186.609C101.191 187.266 101.628 187.778 102.185 188.147C102.747 188.517 103.389 188.701 104.109 188.701C105.193 188.701 106.075 188.294 106.755 187.479C107.44 186.665 107.783 185.616 107.783 184.333V184.061C107.783 183.281 107.625 182.561 107.309 181.898C106.992 181.236 106.553 180.721 105.99 180.352C105.434 179.977 104.801 179.789 104.092 179.789C103.008 179.789 102.123 180.202 101.438 181.028C100.752 181.854 100.409 182.895 100.409 184.148V184.43ZM110.648 189V179.49H113.918C115.072 179.49 115.954 179.701 116.563 180.123C117.179 180.539 117.486 181.148 117.486 181.951C117.486 182.479 117.322 182.938 116.994 183.331C116.672 183.724 116.209 183.987 115.605 184.122H115.614C116.259 184.192 116.801 184.444 117.24 184.878C117.68 185.312 117.899 185.827 117.899 186.425C117.899 187.239 117.598 187.872 116.994 188.323C116.396 188.774 115.559 189 114.48 189H110.648ZM111.123 184.421V188.525H114.524C115.433 188.525 116.145 188.344 116.66 187.98C117.176 187.617 117.434 187.102 117.434 186.434C117.434 185.836 117.17 185.353 116.643 184.983C116.121 184.608 115.406 184.421 114.498 184.421H111.123ZM111.123 183.946H114.094C115.055 183.946 115.781 183.776 116.273 183.437C116.766 183.097 117.012 182.593 117.012 181.925C117.012 181.245 116.748 180.75 116.221 180.439C115.693 180.129 114.926 179.974 113.918 179.974H111.123V183.946ZM126.574 189C126.457 188.596 126.398 188.016 126.398 187.26C126.023 187.869 125.511 188.341 124.86 188.675C124.21 189.009 123.475 189.176 122.654 189.176C121.775 189.176 121.066 188.938 120.527 188.464C119.994 187.983 119.728 187.359 119.728 186.592C119.728 185.719 120.12 185.021 120.905 184.5C121.696 183.973 122.745 183.703 124.052 183.691H126.398V182.303C126.398 181.506 126.146 180.888 125.643 180.448C125.145 180.009 124.43 179.789 123.498 179.789C122.631 179.789 121.907 180.012 121.327 180.457C120.747 180.902 120.457 181.453 120.457 182.109L119.982 182.092C119.982 181.318 120.322 180.662 121.002 180.123C121.682 179.584 122.514 179.314 123.498 179.314C124.523 179.314 125.338 179.572 125.941 180.088C126.545 180.598 126.855 181.318 126.873 182.25V186.794C126.873 187.837 126.955 188.546 127.119 188.921V189H126.574ZM122.654 188.71C123.545 188.71 124.31 188.511 124.948 188.112C125.593 187.714 126.076 187.154 126.398 186.434V184.175H124.201C122.842 184.175 121.802 184.444 121.081 184.983C120.495 185.423 120.202 185.971 120.202 186.627C120.202 187.207 120.434 187.699 120.896 188.104C121.359 188.508 121.945 188.71 122.654 188.71ZM136.778 189H136.295V184.351H130.415V189H129.94V179.49H130.415V183.876H136.295V179.49H136.778V189ZM146.156 179.49H146.64V189H146.156V180.334L140.276 189H139.802V179.49H140.276V188.156L146.156 179.49ZM156.272 179.49V189H155.798V185.045H152.317L149.936 189H149.373L151.772 185.001C151.087 184.89 150.545 184.591 150.146 184.104C149.748 183.618 149.549 183.006 149.549 182.268C149.549 181.441 149.827 180.776 150.384 180.272C150.946 179.769 151.708 179.508 152.669 179.49H156.272ZM150.023 182.285C150.023 182.971 150.229 183.519 150.639 183.929C151.055 184.339 151.614 184.55 152.317 184.562H155.798V179.974H152.757C151.901 179.974 151.23 180.179 150.744 180.589C150.264 180.999 150.023 181.564 150.023 182.285ZM165.87 184.351H164.13V189H163.646V179.49H164.13V183.885H165.958L169.729 179.49H170.414L166.371 184.148L170.968 189H170.256L165.87 184.351ZM178.729 189C178.611 188.596 178.553 188.016 178.553 187.26C178.178 187.869 177.665 188.341 177.015 188.675C176.364 189.009 175.629 189.176 174.809 189.176C173.93 189.176 173.221 188.938 172.682 188.464C172.148 187.983 171.882 187.359 171.882 186.592C171.882 185.719 172.274 185.021 173.06 184.5C173.851 183.973 174.899 183.703 176.206 183.691H178.553V182.303C178.553 181.506 178.301 180.888 177.797 180.448C177.299 180.009 176.584 179.789 175.652 179.789C174.785 179.789 174.062 180.012 173.481 180.457C172.901 180.902 172.611 181.453 172.611 182.109L172.137 182.092C172.137 181.318 172.477 180.662 173.156 180.123C173.836 179.584 174.668 179.314 175.652 179.314C176.678 179.314 177.492 179.572 178.096 180.088C178.699 180.598 179.01 181.318 179.027 182.25V186.794C179.027 187.837 179.109 188.546 179.273 188.921V189H178.729ZM174.809 188.71C175.699 188.71 176.464 188.511 177.103 188.112C177.747 187.714 178.23 187.154 178.553 186.434V184.175H176.355C174.996 184.175 173.956 184.444 173.235 184.983C172.649 185.423 172.356 185.971 172.356 186.627C172.356 187.207 172.588 187.699 173.051 188.104C173.514 188.508 174.1 188.71 174.809 188.71ZM184.31 184.351H182.569V189H182.086V179.49H182.569V183.885H184.397L188.168 179.49H188.854L184.811 184.148L189.407 189H188.695L184.31 184.351ZM202.169 189H201.686V184.351H195.806V189H195.331V179.49H195.806V183.876H201.686V179.49H202.169V189ZM211.336 189C211.219 188.596 211.16 188.016 211.16 187.26C210.785 187.869 210.272 188.341 209.622 188.675C208.972 189.009 208.236 189.176 207.416 189.176C206.537 189.176 205.828 188.938 205.289 188.464C204.756 187.983 204.489 187.359 204.489 186.592C204.489 185.719 204.882 185.021 205.667 184.5C206.458 183.973 207.507 183.703 208.813 183.691H211.16V182.303C211.16 181.506 210.908 180.888 210.404 180.448C209.906 180.009 209.191 179.789 208.26 179.789C207.393 179.789 206.669 180.012 206.089 180.457C205.509 180.902 205.219 181.453 205.219 182.109L204.744 182.092C204.744 181.318 205.084 180.662 205.764 180.123C206.443 179.584 207.275 179.314 208.26 179.314C209.285 179.314 210.1 179.572 210.703 180.088C211.307 180.598 211.617 181.318 211.635 182.25V186.794C211.635 187.837 211.717 188.546 211.881 188.921V189H211.336ZM207.416 188.71C208.307 188.71 209.071 188.511 209.71 188.112C210.354 187.714 210.838 187.154 211.16 186.434V184.175H208.963C207.604 184.175 206.563 184.444 205.843 184.983C205.257 185.423 204.964 185.971 204.964 186.627C204.964 187.207 205.195 187.699 205.658 188.104C206.121 188.508 206.707 188.71 207.416 188.71ZM222.507 180.193C223.737 180.193 224.739 180.586 225.513 181.371C226.292 182.15 226.682 183.19 226.682 184.491V184.781C226.682 185.625 226.506 186.384 226.154 187.058C225.803 187.731 225.308 188.253 224.669 188.622C224.036 188.991 223.321 189.176 222.524 189.176C221.722 189.176 220.998 188.988 220.354 188.613C219.715 188.238 219.22 187.717 218.868 187.049C218.522 186.381 218.35 185.625 218.35 184.781V183.797C218.35 181.887 218.725 180.331 219.475 179.13C220.23 177.929 221.276 177.234 222.612 177.047C223.538 176.918 224.209 176.722 224.625 176.458C225.047 176.194 225.258 175.825 225.258 175.351H225.732C225.732 175.966 225.475 176.455 224.959 176.818C224.449 177.182 223.702 177.416 222.718 177.521C221.733 177.621 220.913 178.069 220.257 178.866C219.601 179.663 219.164 180.738 218.947 182.092C219.299 181.5 219.779 181.037 220.389 180.703C220.998 180.363 221.704 180.193 222.507 180.193ZM222.507 180.668C221.423 180.668 220.538 181.028 219.853 181.749C219.167 182.464 218.824 183.378 218.824 184.491V184.781C218.824 185.508 218.979 186.173 219.29 186.776C219.606 187.38 220.043 187.852 220.6 188.191C221.162 188.531 221.804 188.701 222.524 188.701C223.603 188.701 224.484 188.329 225.17 187.585C225.855 186.835 226.198 185.871 226.198 184.693V184.412C226.198 183.727 226.043 183.097 225.732 182.522C225.422 181.942 224.985 181.488 224.423 181.16C223.86 180.832 223.222 180.668 222.507 180.668ZM228.149 184.061C228.149 183.152 228.322 182.338 228.668 181.617C229.02 180.891 229.512 180.325 230.145 179.921C230.783 179.517 231.504 179.314 232.307 179.314C233.104 179.314 233.818 179.511 234.451 179.903C235.084 180.296 235.576 180.853 235.928 181.573C236.285 182.294 236.467 183.105 236.473 184.008V184.43C236.473 185.344 236.3 186.161 235.954 186.882C235.608 187.603 235.116 188.165 234.478 188.569C233.845 188.974 233.127 189.176 232.324 189.176C231.521 189.176 230.801 188.977 230.162 188.578C229.529 188.18 229.037 187.623 228.686 186.908C228.334 186.188 228.155 185.379 228.149 184.482V184.061ZM228.624 184.43C228.624 185.221 228.779 185.947 229.09 186.609C229.406 187.266 229.843 187.778 230.399 188.147C230.962 188.517 231.604 188.701 232.324 188.701C233.408 188.701 234.29 188.294 234.97 187.479C235.655 186.665 235.998 185.616 235.998 184.333V184.061C235.998 183.281 235.84 182.561 235.523 181.898C235.207 181.236 234.768 180.721 234.205 180.352C233.648 179.977 233.016 179.789 232.307 179.789C231.223 179.789 230.338 180.202 229.652 181.028C228.967 181.854 228.624 182.895 228.624 184.148V184.43ZM245.481 179.49V189H244.998V179.974H240.445L240.261 184.421C240.167 186.114 239.938 187.298 239.575 187.972C239.218 188.646 238.644 188.988 237.853 189H237.519V188.534H237.914C238.512 188.511 238.948 188.197 239.224 187.594C239.505 186.99 239.689 185.982 239.777 184.57L239.988 179.49H245.481ZM249.059 183.111H252.179C253.192 183.129 253.998 183.404 254.596 183.938C255.193 184.465 255.492 185.171 255.492 186.056C255.492 186.935 255.196 187.641 254.604 188.174C254.013 188.707 253.204 188.982 252.179 189H248.584V179.49H249.059V183.111ZM249.059 183.586V188.525H252.091C253.005 188.525 253.72 188.303 254.235 187.857C254.757 187.406 255.018 186.8 255.018 186.038C255.018 185.312 254.763 184.726 254.253 184.28C253.749 183.829 253.052 183.598 252.161 183.586H249.059ZM258.472 179.49V188.525H263.455V179.49H263.938V188.525H268.843V179.49H269.317V189H257.997V179.49H258.472ZM278.361 179.49H278.845V189H278.361V180.334L272.481 189H272.007V179.49H272.481V188.156L278.361 179.49ZM284.654 183.709L287.687 179.49H288.284L284.944 184.122L288.46 189H287.871L284.646 184.535L281.429 189H280.84L284.355 184.122L281.016 179.49H281.613L284.654 183.709ZM47.1387 200.789C46.2539 200.789 45.5391 201.026 44.9941 201.501C44.4551 201.976 44.1855 202.614 44.1855 203.417H43.6934C43.6934 202.503 44.0244 201.759 44.6865 201.185C45.3486 200.604 46.166 200.314 47.1387 200.314C48.334 200.314 49.2949 200.748 50.0215 201.615C50.748 202.477 51.1113 203.646 51.1113 205.122V205.43C51.1113 206.865 50.748 208.017 50.0215 208.884C49.2949 209.745 48.3398 210.176 47.1562 210.176C46.1191 210.176 45.2812 209.871 44.6426 209.262C44.0098 208.646 43.6934 207.832 43.6934 206.818H44.1855C44.1855 207.697 44.4551 208.397 44.9941 208.919C45.5391 209.44 46.2598 209.701 47.1562 209.701C48.2109 209.701 49.0518 209.32 49.6787 208.559C50.3057 207.791 50.625 206.76 50.6367 205.465H45.6094V204.99H50.6367C50.625 203.719 50.3086 202.702 49.6875 201.94C49.0664 201.173 48.2168 200.789 47.1387 200.789ZM55.9277 205.351H54.1875V210H53.7041V200.49H54.1875V204.885H56.0156L59.7861 200.49H60.4717L56.4287 205.148L61.0254 210H60.3135L55.9277 205.351ZM69.9111 205.333C69.9111 206.815 69.5918 207.993 68.9531 208.866C68.3145 209.739 67.4443 210.176 66.3428 210.176C65.6221 210.176 64.9805 210.029 64.418 209.736C63.8555 209.443 63.416 209.039 63.0996 208.523V213.656H62.625V200.49H63.0996V202.187C63.4277 201.583 63.8701 201.12 64.4268 200.798C64.9834 200.476 65.6162 200.314 66.3252 200.314C67.4385 200.314 68.3145 200.742 68.9531 201.598C69.5918 202.447 69.9111 203.643 69.9111 205.184V205.333ZM69.4277 205.148C69.4277 203.783 69.1553 202.717 68.6104 201.949C68.0713 201.176 67.3125 200.789 66.334 200.789C65.5371 200.789 64.8604 200.997 64.3037 201.413C63.7471 201.823 63.3457 202.415 63.0996 203.188V207.636C63.3457 208.292 63.7471 208.802 64.3037 209.165C64.8662 209.522 65.5488 209.701 66.3516 209.701C67.3242 209.701 68.0801 209.314 68.6191 208.541C69.1582 207.768 69.4277 206.637 69.4277 205.148ZM78.6475 210C78.5303 209.596 78.4717 209.016 78.4717 208.26C78.0967 208.869 77.584 209.341 76.9336 209.675C76.2832 210.009 75.5479 210.176 74.7275 210.176C73.8486 210.176 73.1396 209.938 72.6006 209.464C72.0674 208.983 71.8008 208.359 71.8008 207.592C71.8008 206.719 72.1934 206.021 72.9785 205.5C73.7695 204.973 74.8184 204.703 76.125 204.691H78.4717V203.303C78.4717 202.506 78.2197 201.888 77.7158 201.448C77.2178 201.009 76.5029 200.789 75.5713 200.789C74.7041 200.789 73.9805 201.012 73.4004 201.457C72.8203 201.902 72.5303 202.453 72.5303 203.109L72.0557 203.092C72.0557 202.318 72.3955 201.662 73.0752 201.123C73.7549 200.584 74.5869 200.314 75.5713 200.314C76.5967 200.314 77.4111 200.572 78.0146 201.088C78.6182 201.598 78.9287 202.318 78.9463 203.25V207.794C78.9463 208.837 79.0283 209.546 79.1924 209.921V210H78.6475ZM74.7275 209.71C75.6182 209.71 76.3828 209.511 77.0215 209.112C77.666 208.714 78.1494 208.154 78.4717 207.434V205.175H76.2744C74.915 205.175 73.875 205.444 73.1543 205.983C72.5684 206.423 72.2754 206.971 72.2754 207.627C72.2754 208.207 72.5068 208.699 72.9697 209.104C73.4326 209.508 74.0186 209.71 74.7275 209.71ZM88.8516 210H88.3682V205.351H82.4883V210H82.0137V200.49H82.4883V204.876H88.3682V200.49H88.8516V210ZM98.0186 210C97.9014 209.596 97.8428 209.016 97.8428 208.26C97.4678 208.869 96.9551 209.341 96.3047 209.675C95.6543 210.009 94.9189 210.176 94.0986 210.176C93.2197 210.176 92.5107 209.938 91.9717 209.464C91.4385 208.983 91.1719 208.359 91.1719 207.592C91.1719 206.719 91.5645 206.021 92.3496 205.5C93.1406 204.973 94.1895 204.703 95.4961 204.691H97.8428V203.303C97.8428 202.506 97.5908 201.888 97.0869 201.448C96.5889 201.009 95.874 200.789 94.9424 200.789C94.0752 200.789 93.3516 201.012 92.7715 201.457C92.1914 201.902 91.9014 202.453 91.9014 203.109L91.4268 203.092C91.4268 202.318 91.7666 201.662 92.4463 201.123C93.126 200.584 93.958 200.314 94.9424 200.314C95.9678 200.314 96.7822 200.572 97.3857 201.088C97.9893 201.598 98.2998 202.318 98.3174 203.25V207.794C98.3174 208.837 98.3994 209.546 98.5635 209.921V210H98.0186ZM94.0986 209.71C94.9893 209.71 95.7539 209.511 96.3926 209.112C97.0371 208.714 97.5205 208.154 97.8428 207.434V205.175H95.6455C94.2861 205.175 93.2461 205.444 92.5254 205.983C91.9395 206.423 91.6465 206.971 91.6465 207.627C91.6465 208.207 91.8779 208.699 92.3408 209.104C92.8037 209.508 93.3896 209.71 94.0986 209.71ZM104.171 204.709L107.203 200.49H107.801L104.461 205.122L107.977 210H107.388L104.162 205.535L100.945 210H100.356L103.872 205.122L100.532 200.49H101.13L104.171 204.709ZM109.603 212.241L109.277 211.96C109.752 211.351 110.01 210.721 110.051 210.07L110.06 208.603H110.534V209.886C110.511 210.817 110.2 211.603 109.603 212.241ZM124.254 200.974H120.519V210H120.044V200.974H116.502V200.49H124.254V200.974ZM132.12 210C132.003 209.596 131.944 209.016 131.944 208.26C131.569 208.869 131.057 209.341 130.406 209.675C129.756 210.009 129.021 210.176 128.2 210.176C127.321 210.176 126.612 209.938 126.073 209.464C125.54 208.983 125.273 208.359 125.273 207.592C125.273 206.719 125.666 206.021 126.451 205.5C127.242 204.973 128.291 204.703 129.598 204.691H131.944V203.303C131.944 202.506 131.692 201.888 131.188 201.448C130.69 201.009 129.976 200.789 129.044 200.789C128.177 200.789 127.453 201.012 126.873 201.457C126.293 201.902 126.003 202.453 126.003 203.109L125.528 203.092C125.528 202.318 125.868 201.662 126.548 201.123C127.228 200.584 128.06 200.314 129.044 200.314C130.069 200.314 130.884 200.572 131.487 201.088C132.091 201.598 132.401 202.318 132.419 203.25V207.794C132.419 208.837 132.501 209.546 132.665 209.921V210H132.12ZM128.2 209.71C129.091 209.71 129.855 209.511 130.494 209.112C131.139 208.714 131.622 208.154 131.944 207.434V205.175H129.747C128.388 205.175 127.348 205.444 126.627 205.983C126.041 206.423 125.748 206.971 125.748 207.627C125.748 208.207 125.979 208.699 126.442 209.104C126.905 209.508 127.491 209.71 128.2 209.71ZM137.701 205.351H135.961V210H135.478V200.49H135.961V204.885H137.789L141.56 200.49H142.245L138.202 205.148L142.799 210H142.087L137.701 205.351ZM155.077 200.49H155.561V210H155.077V201.334L149.197 210H148.723V200.49H149.197V209.156L155.077 200.49ZM169.729 210H169.245V205.351H163.365V210H162.891V200.49H163.365V204.876H169.245V200.49H169.729V210ZM178.896 210C178.778 209.596 178.72 209.016 178.72 208.26C178.345 208.869 177.832 209.341 177.182 209.675C176.531 210.009 175.796 210.176 174.976 210.176C174.097 210.176 173.388 209.938 172.849 209.464C172.315 208.983 172.049 208.359 172.049 207.592C172.049 206.719 172.441 206.021 173.227 205.5C174.018 204.973 175.066 204.703 176.373 204.691H178.72V203.303C178.72 202.506 178.468 201.888 177.964 201.448C177.466 201.009 176.751 200.789 175.819 200.789C174.952 200.789 174.229 201.012 173.648 201.457C173.068 201.902 172.778 202.453 172.778 203.109L172.304 203.092C172.304 202.318 172.644 201.662 173.323 201.123C174.003 200.584 174.835 200.314 175.819 200.314C176.845 200.314 177.659 200.572 178.263 201.088C178.866 201.598 179.177 202.318 179.194 203.25V207.794C179.194 208.837 179.276 209.546 179.44 209.921V210H178.896ZM174.976 209.71C175.866 209.71 176.631 209.511 177.27 209.112C177.914 208.714 178.397 208.154 178.72 207.434V205.175H176.522C175.163 205.175 174.123 205.444 173.402 205.983C172.816 206.423 172.523 206.971 172.523 207.627C172.523 208.207 172.755 208.699 173.218 209.104C173.681 209.508 174.267 209.71 174.976 209.71ZM191.622 209.279L195.946 200.49H196.518V210H196.034V201.404L191.807 210H191.438L187.122 201.193V210H186.647V200.49H187.298L191.622 209.279ZM198.82 205.061C198.82 204.152 198.993 203.338 199.339 202.617C199.69 201.891 200.183 201.325 200.815 200.921C201.454 200.517 202.175 200.314 202.978 200.314C203.774 200.314 204.489 200.511 205.122 200.903C205.755 201.296 206.247 201.853 206.599 202.573C206.956 203.294 207.138 204.105 207.144 205.008V205.43C207.144 206.344 206.971 207.161 206.625 207.882C206.279 208.603 205.787 209.165 205.148 209.569C204.516 209.974 203.798 210.176 202.995 210.176C202.192 210.176 201.472 209.977 200.833 209.578C200.2 209.18 199.708 208.623 199.356 207.908C199.005 207.188 198.826 206.379 198.82 205.482V205.061ZM199.295 205.43C199.295 206.221 199.45 206.947 199.761 207.609C200.077 208.266 200.514 208.778 201.07 209.147C201.633 209.517 202.274 209.701 202.995 209.701C204.079 209.701 204.961 209.294 205.641 208.479C206.326 207.665 206.669 206.616 206.669 205.333V205.061C206.669 204.281 206.511 203.561 206.194 202.898C205.878 202.236 205.438 201.721 204.876 201.352C204.319 200.977 203.687 200.789 202.978 200.789C201.894 200.789 201.009 201.202 200.323 202.028C199.638 202.854 199.295 203.895 199.295 205.148V205.43ZM212.953 201.193C214.184 201.193 215.186 201.586 215.959 202.371C216.738 203.15 217.128 204.19 217.128 205.491V205.781C217.128 206.625 216.952 207.384 216.601 208.058C216.249 208.731 215.754 209.253 215.115 209.622C214.482 209.991 213.768 210.176 212.971 210.176C212.168 210.176 211.444 209.988 210.8 209.613C210.161 209.238 209.666 208.717 209.314 208.049C208.969 207.381 208.796 206.625 208.796 205.781V204.797C208.796 202.887 209.171 201.331 209.921 200.13C210.677 198.929 211.723 198.234 213.059 198.047C213.984 197.918 214.655 197.722 215.071 197.458C215.493 197.194 215.704 196.825 215.704 196.351H216.179C216.179 196.966 215.921 197.455 215.405 197.818C214.896 198.182 214.148 198.416 213.164 198.521C212.18 198.621 211.359 199.069 210.703 199.866C210.047 200.663 209.61 201.738 209.394 203.092C209.745 202.5 210.226 202.037 210.835 201.703C211.444 201.363 212.15 201.193 212.953 201.193ZM212.953 201.668C211.869 201.668 210.984 202.028 210.299 202.749C209.613 203.464 209.271 204.378 209.271 205.491V205.781C209.271 206.508 209.426 207.173 209.736 207.776C210.053 208.38 210.489 208.852 211.046 209.191C211.608 209.531 212.25 209.701 212.971 209.701C214.049 209.701 214.931 209.329 215.616 208.585C216.302 207.835 216.645 206.871 216.645 205.693V205.412C216.645 204.727 216.489 204.097 216.179 203.522C215.868 202.942 215.432 202.488 214.869 202.16C214.307 201.832 213.668 201.668 212.953 201.668ZM225.513 200.49H225.996V210H225.513V201.334L219.633 210H219.158V200.49H219.633V209.156L225.513 200.49ZM235.857 200.49V210H235.374V200.974H230.821L230.637 205.421C230.543 207.114 230.314 208.298 229.951 208.972C229.594 209.646 229.02 209.988 228.229 210H227.895V209.534H228.29C228.888 209.511 229.324 209.197 229.6 208.594C229.881 207.99 230.065 206.982 230.153 205.57L230.364 200.49H235.857ZM239.435 204.111H242.555C243.568 204.129 244.374 204.404 244.972 204.938C245.569 205.465 245.868 206.171 245.868 207.056C245.868 207.935 245.572 208.641 244.98 209.174C244.389 209.707 243.58 209.982 242.555 210H238.96V200.49H239.435V204.111ZM239.435 204.586V209.525H242.467C243.381 209.525 244.096 209.303 244.611 208.857C245.133 208.406 245.394 207.8 245.394 207.038C245.394 206.312 245.139 205.726 244.629 205.28C244.125 204.829 243.428 204.598 242.537 204.586H239.435ZM255.211 210H254.728V205.351H248.848V210H248.373V200.49H248.848V204.876H254.728V200.49H255.211V210ZM258.788 204.111H261.908C262.922 204.129 263.728 204.404 264.325 204.938C264.923 205.465 265.222 206.171 265.222 207.056C265.222 207.935 264.926 208.641 264.334 209.174C263.742 209.707 262.934 209.982 261.908 210H258.313V200.49H258.788V204.111ZM258.788 204.586V209.525H261.82C262.734 209.525 263.449 209.303 263.965 208.857C264.486 208.406 264.747 207.8 264.747 207.038C264.747 206.312 264.492 205.726 263.982 205.28C263.479 204.829 262.781 204.598 261.891 204.586H258.788ZM268.28 210H267.806V200.49H268.28V210ZM274.081 204.709L277.113 200.49H277.711L274.371 205.122L277.887 210H277.298L274.072 205.535L270.855 210H270.267L273.782 205.122L270.442 200.49H271.04L274.081 204.709ZM114.287 230.262L114.349 230.086L117.636 221.49H118.163L113.909 232.652L113.698 233.18C113.241 234.287 112.485 234.841 111.431 234.841C111.091 234.841 110.856 234.809 110.728 234.744L110.719 234.296C110.906 234.349 111.12 234.375 111.36 234.375C111.858 234.375 112.271 234.229 112.6 233.936C112.928 233.648 113.212 233.177 113.452 232.521L114.032 230.947L110.244 221.49H110.763L114.287 230.262ZM123.076 230.701C123.938 230.701 124.646 230.473 125.203 230.016C125.766 229.559 126.073 228.926 126.126 228.117H126.601C126.554 229.037 126.199 229.778 125.537 230.341C124.875 230.897 124.055 231.176 123.076 231.176C121.887 231.176 120.94 230.745 120.237 229.884C119.54 229.022 119.191 227.854 119.191 226.377V226.061C119.191 224.619 119.54 223.468 120.237 222.606C120.94 221.745 121.881 221.314 123.059 221.314C124.066 221.314 124.898 221.616 125.555 222.22C126.211 222.823 126.56 223.626 126.601 224.628H126.126C126.085 223.772 125.783 223.087 125.221 222.571C124.664 222.05 123.943 221.789 123.059 221.789C121.998 221.789 121.166 222.173 120.562 222.94C119.965 223.702 119.666 224.763 119.666 226.122V226.43C119.666 227.76 119.968 228.806 120.571 229.567C121.181 230.323 122.016 230.701 123.076 230.701ZM135.583 221.974H131.848V231H131.373V221.974H127.831V221.49H135.583V221.974ZM144.715 226.333C144.715 227.815 144.396 228.993 143.757 229.866C143.118 230.739 142.248 231.176 141.146 231.176C140.426 231.176 139.784 231.029 139.222 230.736C138.659 230.443 138.22 230.039 137.903 229.523V234.656H137.429V221.49H137.903V223.187C138.231 222.583 138.674 222.12 139.23 221.798C139.787 221.476 140.42 221.314 141.129 221.314C142.242 221.314 143.118 221.742 143.757 222.598C144.396 223.447 144.715 224.643 144.715 226.184V226.333ZM144.231 226.148C144.231 224.783 143.959 223.717 143.414 222.949C142.875 222.176 142.116 221.789 141.138 221.789C140.341 221.789 139.664 221.997 139.107 222.413C138.551 222.823 138.149 223.415 137.903 224.188V228.636C138.149 229.292 138.551 229.802 139.107 230.165C139.67 230.522 140.353 230.701 141.155 230.701C142.128 230.701 142.884 230.314 143.423 229.541C143.962 228.768 144.231 227.637 144.231 226.148ZM146.587 226.061C146.587 225.152 146.76 224.338 147.105 223.617C147.457 222.891 147.949 222.325 148.582 221.921C149.221 221.517 149.941 221.314 150.744 221.314C151.541 221.314 152.256 221.511 152.889 221.903C153.521 222.296 154.014 222.853 154.365 223.573C154.723 224.294 154.904 225.105 154.91 226.008V226.43C154.91 227.344 154.737 228.161 154.392 228.882C154.046 229.603 153.554 230.165 152.915 230.569C152.282 230.974 151.564 231.176 150.762 231.176C149.959 231.176 149.238 230.977 148.6 230.578C147.967 230.18 147.475 229.623 147.123 228.908C146.771 228.188 146.593 227.379 146.587 226.482V226.061ZM147.062 226.43C147.062 227.221 147.217 227.947 147.527 228.609C147.844 229.266 148.28 229.778 148.837 230.147C149.399 230.517 150.041 230.701 150.762 230.701C151.846 230.701 152.728 230.294 153.407 229.479C154.093 228.665 154.436 227.616 154.436 226.333V226.061C154.436 225.281 154.277 224.561 153.961 223.898C153.645 223.236 153.205 222.721 152.643 222.352C152.086 221.977 151.453 221.789 150.744 221.789C149.66 221.789 148.775 222.202 148.09 223.028C147.404 223.854 147.062 224.895 147.062 226.148V226.43ZM163.576 221.49H164.06V231H163.576V222.334L157.696 231H157.222V221.49H157.696V230.156L163.576 221.49ZM163.022 218.098C163.022 218.754 162.8 219.281 162.354 219.68C161.915 220.078 161.323 220.277 160.579 220.277C159.829 220.277 159.231 220.078 158.786 219.68C158.347 219.281 158.127 218.754 158.127 218.098H158.602C158.602 218.631 158.769 219.047 159.103 219.346C159.437 219.639 159.929 219.785 160.579 219.785C161.206 219.785 161.689 219.636 162.029 219.337C162.375 219.032 162.548 218.619 162.548 218.098H163.022ZM170.309 230.701C171.17 230.701 171.879 230.473 172.436 230.016C172.998 229.559 173.306 228.926 173.358 228.117H173.833C173.786 229.037 173.432 229.778 172.77 230.341C172.107 230.897 171.287 231.176 170.309 231.176C169.119 231.176 168.173 230.745 167.47 229.884C166.772 229.022 166.424 227.854 166.424 226.377V226.061C166.424 224.619 166.772 223.468 167.47 222.606C168.173 221.745 169.113 221.314 170.291 221.314C171.299 221.314 172.131 221.616 172.787 222.22C173.443 222.823 173.792 223.626 173.833 224.628H173.358C173.317 223.772 173.016 223.087 172.453 222.571C171.896 222.05 171.176 221.789 170.291 221.789C169.23 221.789 168.398 222.173 167.795 222.94C167.197 223.702 166.898 224.763 166.898 226.122V226.43C166.898 227.76 167.2 228.806 167.804 229.567C168.413 230.323 169.248 230.701 170.309 230.701ZM182.815 221.974H179.08V231H178.605V221.974H175.063V221.49H182.815V221.974ZM184.758 231V221.49H188.027C189.182 221.49 190.063 221.701 190.673 222.123C191.288 222.539 191.596 223.148 191.596 223.951C191.596 224.479 191.432 224.938 191.104 225.331C190.781 225.724 190.318 225.987 189.715 226.122H189.724C190.368 226.192 190.91 226.444 191.35 226.878C191.789 227.312 192.009 227.827 192.009 228.425C192.009 229.239 191.707 229.872 191.104 230.323C190.506 230.774 189.668 231 188.59 231H184.758ZM185.232 226.421V230.525H188.634C189.542 230.525 190.254 230.344 190.77 229.98C191.285 229.617 191.543 229.102 191.543 228.434C191.543 227.836 191.279 227.353 190.752 226.983C190.23 226.608 189.516 226.421 188.607 226.421H185.232ZM185.232 225.946H188.203C189.164 225.946 189.891 225.776 190.383 225.437C190.875 225.097 191.121 224.593 191.121 223.925C191.121 223.245 190.857 222.75 190.33 222.439C189.803 222.129 189.035 221.974 188.027 221.974H185.232V225.946ZM200.684 231C200.566 230.596 200.508 230.016 200.508 229.26C200.133 229.869 199.62 230.341 198.97 230.675C198.319 231.009 197.584 231.176 196.764 231.176C195.885 231.176 195.176 230.938 194.637 230.464C194.104 229.983 193.837 229.359 193.837 228.592C193.837 227.719 194.229 227.021 195.015 226.5C195.806 225.973 196.854 225.703 198.161 225.691H200.508V224.303C200.508 223.506 200.256 222.888 199.752 222.448C199.254 222.009 198.539 221.789 197.607 221.789C196.74 221.789 196.017 222.012 195.437 222.457C194.856 222.902 194.566 223.453 194.566 224.109L194.092 224.092C194.092 223.318 194.432 222.662 195.111 222.123C195.791 221.584 196.623 221.314 197.607 221.314C198.633 221.314 199.447 221.572 200.051 222.088C200.654 222.598 200.965 223.318 200.982 224.25V228.794C200.982 229.837 201.064 230.546 201.229 230.921V231H200.684ZM196.764 230.71C197.654 230.71 198.419 230.511 199.058 230.112C199.702 229.714 200.186 229.154 200.508 228.434V226.175H198.311C196.951 226.175 195.911 226.444 195.19 226.983C194.604 227.423 194.312 227.971 194.312 228.627C194.312 229.207 194.543 229.699 195.006 230.104C195.469 230.508 196.055 230.71 196.764 230.71ZM206.836 225.709L209.868 221.49H210.466L207.126 226.122L210.642 231H210.053L206.827 226.535L203.61 231H203.021L206.537 226.122L203.197 221.49H203.795L206.836 225.709Z" fill="black"/>
<path d="M36.4023 133.547H29.2539L27.6484 138H25.3281L31.8438 120.938H33.8125L40.3398 138H38.0312L36.4023 133.547ZM29.9336 131.695H35.7344L32.8281 123.715L29.9336 131.695ZM42.1914 136.23L42.9414 135.305C43.7852 134.211 44.2656 132.57 44.3828 130.383L44.582 125.32H52.75V136.23H54.3789V141.727H52.2109V138H43.3633V141.727H41.1953L41.207 136.23H42.1914ZM44.7578 136.23H50.582V127.324H46.6797L46.5508 130.348C46.418 132.871 45.8203 134.832 44.7578 136.23ZM64.6094 138C64.4844 137.75 64.3828 137.305 64.3047 136.664C63.2969 137.711 62.0938 138.234 60.6953 138.234C59.4453 138.234 58.418 137.883 57.6133 137.18C56.8164 136.469 56.418 135.57 56.418 134.484C56.418 133.164 56.918 132.141 57.918 131.414C58.9258 130.68 60.3398 130.312 62.1602 130.312H64.2695V129.316C64.2695 128.559 64.043 127.957 63.5898 127.512C63.1367 127.059 62.4688 126.832 61.5859 126.832C60.8125 126.832 60.1641 127.027 59.6406 127.418C59.1172 127.809 58.8555 128.281 58.8555 128.836H56.6758C56.6758 128.203 56.8984 127.594 57.3438 127.008C57.7969 126.414 58.4062 125.945 59.1719 125.602C59.9453 125.258 60.793 125.086 61.7148 125.086C63.1758 125.086 64.3203 125.453 65.1484 126.188C65.9766 126.914 66.4062 127.918 66.4375 129.199V135.035C66.4375 136.199 66.5859 137.125 66.8828 137.812V138H64.6094ZM61.0117 136.348C61.6914 136.348 62.3359 136.172 62.9453 135.82C63.5547 135.469 63.9961 135.012 64.2695 134.449V131.848H62.5703C59.9141 131.848 58.5859 132.625 58.5859 134.18C58.5859 134.859 58.8125 135.391 59.2656 135.773C59.7188 136.156 60.3008 136.348 61.0117 136.348ZM80.207 138H78.0391V127.113H72.2031V138H70.0234V125.32H80.207V138ZM93.1094 127.078H88.8555V138H86.6875V127.078H82.5156V125.32H93.1094V127.078ZM103.422 125.32H105.59V138H103.422V128.754L97.5742 138H95.4062V125.32H97.5742V134.578L103.422 125.32ZM109.27 138V125.32H114.215C115.902 125.32 117.195 125.617 118.094 126.211C119 126.797 119.453 127.66 119.453 128.801C119.453 129.387 119.277 129.918 118.926 130.395C118.574 130.863 118.055 131.223 117.367 131.473C118.133 131.652 118.746 132.004 119.207 132.527C119.676 133.051 119.91 133.676 119.91 134.402C119.91 135.566 119.48 136.457 118.621 137.074C117.77 137.691 116.562 138 115 138H109.27ZM111.438 132.434V136.254H115.023C115.93 136.254 116.605 136.086 117.051 135.75C117.504 135.414 117.73 134.941 117.73 134.332C117.73 133.066 116.801 132.434 114.941 132.434H111.438ZM111.438 130.699H114.238C116.27 130.699 117.285 130.105 117.285 128.918C117.285 127.73 116.324 127.117 114.402 127.078H111.438V130.699ZM133.141 138H130.973V132.586H125.148V138H122.969V125.32H125.148V130.816H130.973V125.32H133.141V138ZM139 129.691H142.293C143.73 129.707 144.867 130.082 145.703 130.816C146.539 131.551 146.957 132.547 146.957 133.805C146.957 135.07 146.527 136.086 145.668 136.852C144.809 137.617 143.652 138 142.199 138H136.832V125.32H139V129.691ZM151.48 138H149.301V125.32H151.48V138ZM139 131.461V136.23H142.223C143.035 136.23 143.664 136.023 144.109 135.609C144.555 135.188 144.777 134.613 144.777 133.887C144.777 133.184 144.559 132.609 144.121 132.164C143.691 131.711 143.086 131.477 142.305 131.461H139ZM163.469 125.32H165.637V138H163.469V128.754L157.621 138H155.453V125.32H157.621V134.578L163.469 125.32ZM164.055 120.703C164.055 121.648 163.73 122.41 163.082 122.988C162.441 123.559 161.598 123.844 160.551 123.844C159.504 123.844 158.656 123.555 158.008 122.977C157.359 122.398 157.035 121.641 157.035 120.703H158.805C158.805 121.25 158.953 121.68 159.25 121.992C159.547 122.297 159.98 122.449 160.551 122.449C161.098 122.449 161.523 122.297 161.828 121.992C162.141 121.688 162.297 121.258 162.297 120.703H164.055ZM183.273 125.32H185.441V138H183.273V128.754L177.426 138H175.258V125.32H177.426V134.578L183.273 125.32ZM199.281 138H197.113V132.586H191.289V138H189.109V125.32H191.289V130.816H197.113V125.32H199.281V138ZM212.195 127.078H207.941V138H205.773V127.078H201.602V125.32H212.195V127.078ZM218.629 138.234C216.91 138.234 215.512 137.672 214.434 136.547C213.355 135.414 212.816 133.902 212.816 132.012V131.613C212.816 130.355 213.055 129.234 213.531 128.25C214.016 127.258 214.688 126.484 215.547 125.93C216.414 125.367 217.352 125.086 218.359 125.086C220.008 125.086 221.289 125.629 222.203 126.715C223.117 127.801 223.574 129.355 223.574 131.379V132.281H214.984C215.016 133.531 215.379 134.543 216.074 135.316C216.777 136.082 217.668 136.465 218.746 136.465C219.512 136.465 220.16 136.309 220.691 135.996C221.223 135.684 221.688 135.27 222.086 134.754L223.41 135.785C222.348 137.418 220.754 138.234 218.629 138.234ZM218.359 126.867C217.484 126.867 216.75 127.188 216.156 127.828C215.562 128.461 215.195 129.352 215.055 130.5H221.406V130.336C221.344 129.234 221.047 128.383 220.516 127.781C219.984 127.172 219.266 126.867 218.359 126.867ZM236.805 131.801C236.805 133.73 236.363 135.285 235.48 136.465C234.598 137.645 233.402 138.234 231.895 138.234C230.355 138.234 229.145 137.746 228.262 136.77V142.875H226.094V125.32H228.074L228.18 126.727C229.062 125.633 230.289 125.086 231.859 125.086C233.383 125.086 234.586 125.66 235.469 126.809C236.359 127.957 236.805 129.555 236.805 131.602V131.801ZM234.637 131.555C234.637 130.125 234.332 128.996 233.723 128.168C233.113 127.34 232.277 126.926 231.215 126.926C229.902 126.926 228.918 127.508 228.262 128.672V134.73C228.91 135.887 229.902 136.465 231.238 136.465C232.277 136.465 233.102 136.055 233.711 135.234C234.328 134.406 234.637 133.18 234.637 131.555ZM239.102 131.895C239.102 129.777 239.512 128.113 240.332 126.902C241.152 125.691 242.277 125.086 243.707 125.086C244.371 125.086 244.953 125.199 245.453 125.426V120H247.621V125.496C248.168 125.223 248.809 125.086 249.543 125.086C250.98 125.086 252.109 125.691 252.93 126.902C253.75 128.113 254.16 129.859 254.16 132.141C254.16 134.008 253.75 135.492 252.93 136.594C252.117 137.695 250.996 138.246 249.566 138.246C248.809 138.246 248.16 138.121 247.621 137.871V142.875H245.453V137.906C244.938 138.133 244.348 138.246 243.684 138.246C242.262 138.246 241.141 137.695 240.32 136.594C239.508 135.492 239.102 133.984 239.102 132.07V131.895ZM251.992 131.895C251.992 130.301 251.719 129.066 251.172 128.191C250.625 127.309 249.871 126.867 248.91 126.867C248.418 126.867 247.988 126.945 247.621 127.102V136.277C247.973 136.41 248.41 136.477 248.934 136.477C249.902 136.477 250.652 136.102 251.184 135.352C251.723 134.602 251.992 133.449 251.992 131.895ZM241.27 132.141C241.27 133.562 241.523 134.641 242.031 135.375C242.539 136.109 243.27 136.477 244.223 136.477C244.676 136.477 245.086 136.406 245.453 136.266V127.066C245.125 126.934 244.723 126.867 244.246 126.867C243.293 126.867 242.559 127.293 242.043 128.145C241.527 128.996 241.27 130.328 241.27 132.141ZM262.246 138.234C260.527 138.234 259.129 137.672 258.051 136.547C256.973 135.414 256.434 133.902 256.434 132.012V131.613C256.434 130.355 256.672 129.234 257.148 128.25C257.633 127.258 258.305 126.484 259.164 125.93C260.031 125.367 260.969 125.086 261.977 125.086C263.625 125.086 264.906 125.629 265.82 126.715C266.734 127.801 267.191 129.355 267.191 131.379V132.281H258.602C258.633 133.531 258.996 134.543 259.691 135.316C260.395 136.082 261.285 136.465 262.363 136.465C263.129 136.465 263.777 136.309 264.309 135.996C264.84 135.684 265.305 135.27 265.703 134.754L267.027 135.785C265.965 137.418 264.371 138.234 262.246 138.234ZM261.977 126.867C261.102 126.867 260.367 127.188 259.773 127.828C259.18 128.461 258.812 129.352 258.672 130.5H265.023V130.336C264.961 129.234 264.664 128.383 264.133 127.781C263.602 127.172 262.883 126.867 261.977 126.867ZM277.914 125.32H280.082V138H277.914V128.754L272.066 138H269.898V125.32H272.066V134.578L277.914 125.32ZM278.5 120.703C278.5 121.648 278.176 122.41 277.527 122.988C276.887 123.559 276.043 123.844 274.996 123.844C273.949 123.844 273.102 123.555 272.453 122.977C271.805 122.398 271.48 121.641 271.48 120.703H273.25C273.25 121.25 273.398 121.68 273.695 121.992C273.992 122.297 274.426 122.449 274.996 122.449C275.543 122.449 275.969 122.297 276.273 121.992C276.586 121.688 276.742 121.258 276.742 120.703H278.5ZM288.648 136.465C289.422 136.465 290.098 136.23 290.676 135.762C291.254 135.293 291.574 134.707 291.637 134.004H293.688C293.648 134.73 293.398 135.422 292.938 136.078C292.477 136.734 291.859 137.258 291.086 137.648C290.32 138.039 289.508 138.234 288.648 138.234C286.922 138.234 285.547 137.66 284.523 136.512C283.508 135.355 283 133.777 283 131.777V131.414C283 130.18 283.227 129.082 283.68 128.121C284.133 127.16 284.781 126.414 285.625 125.883C286.477 125.352 287.48 125.086 288.637 125.086C290.059 125.086 291.238 125.512 292.176 126.363C293.121 127.215 293.625 128.32 293.688 129.68H291.637C291.574 128.859 291.262 128.188 290.699 127.664C290.145 127.133 289.457 126.867 288.637 126.867C287.535 126.867 286.68 127.266 286.07 128.062C285.469 128.852 285.168 129.996 285.168 131.496V131.906C285.168 133.367 285.469 134.492 286.07 135.281C286.672 136.07 287.531 136.465 288.648 136.465Z" fill="#1F1F1F"/>
<path d="M117.75 26.5V75.25C117.75 78.825 120.675 81.75 124.25 81.75H195.75C199.325 81.75 202.25 78.825 202.25 75.25V26.5C202.25 22.925 199.325 20 195.75 20H124.25C120.675 20 117.75 22.925 117.75 26.5Z" stroke="#1F1F1F" stroke-width="2" stroke-miterlimit="10" stroke-linecap="round" stroke-linejoin="round"/>
<path d="M117.75 68.75H202.25" stroke="#1F1F1F" stroke-width="2" stroke-miterlimit="10" stroke-linecap="round" stroke-linejoin="round"/>
<path d="M137.25 101.25H182.75" stroke="#1F1F1F" stroke-width="2" stroke-miterlimit="10" stroke-linecap="round" stroke-linejoin="round"/>
<path d="M150.25 81.75C150.25 88.575 147.975 96.7 144.4 101.25" stroke="#1F1F1F" stroke-width="2" stroke-miterlimit="10" stroke-linecap="round" stroke-linejoin="round"/>
<path d="M175.6 101.25C172.025 96.7 169.75 88.575 169.75 81.75" stroke="#1F1F1F" stroke-width="2" stroke-miterlimit="10" stroke-linecap="round" stroke-linejoin="round"/>
<g clip-path="url(#clip0)">
<rect x="177.989" y="54.8731" width="25.7777" height="42.9629" fill="white"/>
<path d="M202.009 93.6487H203.009V92.6487V57.5734V56.5734H202.009H179.894H178.894V57.5734V92.6487V93.6487H179.894H202.009ZM180.948 51.6646H200.956C203.291 51.6646 205.222 53.5997 205.222 55.9791V97.4317C205.222 99.8111 203.291 101.746 200.956 101.746H180.948C178.613 101.746 176.682 99.8111 176.682 97.4317V55.9791C176.682 53.5997 178.613 51.6646 180.948 51.6646ZM186.266 97.9632C186.266 99.0998 186.907 100.038 187.761 100.653C188.617 101.27 189.748 101.62 190.952 101.62C192.156 101.62 193.287 101.27 194.142 100.654C194.997 100.038 195.638 99.1001 195.638 97.9632C195.638 96.8264 194.997 95.8884 194.143 95.2728C193.287 94.6563 192.156 94.3059 190.952 94.3059C189.748 94.3059 188.617 94.6563 187.761 95.2729C186.907 95.8885 186.266 96.8265 186.266 97.9632Z" fill="white" stroke="#1F1F1F" stroke-width="2"/>
</g>
<defs>
<clipPath id="clip0">
<rect x="175.682" y="50.746" width="30.5397" height="52" fill="white"/>
</clipPath>
</defs>
</svg>
