<svg width="320" height="280" viewBox="0 0 320 280" fill="none" xmlns="http://www.w3.org/2000/svg">
<path d="M197.891 56.6576L197.872 57.086L198.292 57.1702C209.167 59.3509 217.1 68.8595 217.1 80.2C217.1 93.1575 206.557 103.7 193.6 103.7H128.8C114.52 103.7 102.9 92.0799 102.9 77.8C102.9 65.2508 112.088 54.5043 124.232 52.3241L124.687 52.2425L124.641 51.7829C124.547 50.8261 124.5 49.9041 124.5 49C124.5 32.0729 138.273 18.3 155.2 18.3C169.594 18.3 181.852 28.1514 185.063 41.997L185.144 42.3433L185.497 42.3812C192.458 43.127 197.9 49.0424 197.9 56.2C197.9 56.3536 197.898 56.5065 197.891 56.6576ZM195.542 60.5984L193.424 60.3913L193.87 58.3097C193.87 58.3095 193.87 58.3094 193.87 58.3092C194.024 57.5988 194.1 56.8892 194.1 56.2C194.1 50.6295 189.57 46.1 184 46.1H183.867L183.815 46.1299C183.773 46.1348 183.716 46.1391 183.655 46.141L183.651 46.1412L181.975 46.2096L181.7 44.5547L181.23 44.6329L181.7 44.5547C179.533 31.5456 168.388 22.1 155.2 22.1C140.368 22.1 128.3 34.1679 128.3 49C128.3 50.4393 128.44 51.9366 128.72 53.5769L128.72 53.5778L129.073 55.6256L127.001 55.7928C115.614 56.7114 106.7 66.3771 106.7 77.8C106.7 89.9849 116.613 99.9 128.8 99.9H193.6C204.462 99.9 213.3 91.0626 213.3 80.2C213.3 70.0168 205.665 61.5883 195.542 60.5984Z" fill="#1F1F1F" stroke="white"/>
<path d="M178.7 67.2064V68.4135L179.553 67.56L182.303 64.8103L184.989 67.4968L176.8 75.6865L168.61 67.4968L171.297 64.8103L174.046 67.56L174.9 68.4135V67.2064V65.8C174.9 61.5543 171.446 58.1 167.2 58.1H152.8C148.722 58.1 145.374 61.2864 145.116 65.3H141.311C141.573 59.1903 146.627 54.3 152.8 54.3H167.2C173.54 54.3 178.7 59.4593 178.7 65.8V67.2064Z" fill="#1F1F1F" stroke="white"/>
<path d="M145.954 78.44L145.1 77.5865V78.7936V80.2C145.1 84.4457 148.554 87.9 152.8 87.9H167.2C171.278 87.9 174.625 84.7136 174.884 80.7H178.689C178.427 86.8097 173.373 91.7 167.2 91.7H152.8C146.459 91.7 141.3 86.5407 141.3 80.2V78.7936V77.5865L140.446 78.44L137.697 81.1897L135.01 78.5032L143.2 70.3135L151.39 78.5032L148.703 81.1897L145.954 78.44Z" fill="#1F1F1F" stroke="white"/>
<path d="M57.5098 155.678H50.4082V161.074H53.7568C55.0049 161.092 55.9893 161.405 56.71 162.015C57.4307 162.618 57.791 163.459 57.791 164.537C57.791 165.604 57.4277 166.447 56.7012 167.068C55.9805 167.684 54.9756 167.994 53.6865 168H49.9336V155.203H57.5098V155.678ZM50.4082 161.549V167.525H53.6514C54.8115 167.525 55.7109 167.259 56.3496 166.726C56.9883 166.187 57.3076 165.451 57.3076 164.52C57.3076 163.629 56.9912 162.914 56.3584 162.375C55.7314 161.836 54.8555 161.561 53.7305 161.549H50.4082ZM67.8369 158.49V168H67.3535V158.974H62.8008L62.6162 163.421C62.5225 165.114 62.2939 166.298 61.9307 166.972C61.5732 167.646 60.999 167.988 60.208 168H59.874V167.534H60.2695C60.8672 167.511 61.3037 167.197 61.5791 166.594C61.8604 165.99 62.0449 164.982 62.1328 163.57L62.3438 158.49H67.8369ZM77.0039 168C76.8867 167.596 76.8281 167.016 76.8281 166.26C76.4531 166.869 75.9404 167.341 75.29 167.675C74.6396 168.009 73.9043 168.176 73.084 168.176C72.2051 168.176 71.4961 167.938 70.957 167.464C70.4238 166.983 70.1572 166.359 70.1572 165.592C70.1572 164.719 70.5498 164.021 71.335 163.5C72.126 162.973 73.1748 162.703 74.4814 162.691H76.8281V161.303C76.8281 160.506 76.5762 159.888 76.0723 159.448C75.5742 159.009 74.8594 158.789 73.9277 158.789C73.0605 158.789 72.3369 159.012 71.7568 159.457C71.1768 159.902 70.8867 160.453 70.8867 161.109L70.4121 161.092C70.4121 160.318 70.752 159.662 71.4316 159.123C72.1113 158.584 72.9434 158.314 73.9277 158.314C74.9531 158.314 75.7676 158.572 76.3711 159.088C76.9746 159.598 77.2852 160.318 77.3027 161.25V165.794C77.3027 166.837 77.3848 167.546 77.5488 167.921V168H77.0039ZM73.084 167.71C73.9746 167.71 74.7393 167.511 75.3779 167.112C76.0225 166.714 76.5059 166.154 76.8281 165.434V163.175H74.6309C73.2715 163.175 72.2314 163.444 71.5107 163.983C70.9248 164.423 70.6318 164.971 70.6318 165.627C70.6318 166.207 70.8633 166.699 71.3262 167.104C71.7891 167.508 72.375 167.71 73.084 167.71ZM86.083 158.974H80.8447V168H80.3701V158.49H86.083V158.974ZM87.1025 163.061C87.1025 162.152 87.2754 161.338 87.6211 160.617C87.9727 159.891 88.4648 159.325 89.0977 158.921C89.7363 158.517 90.457 158.314 91.2598 158.314C92.0566 158.314 92.7715 158.511 93.4043 158.903C94.0371 159.296 94.5293 159.853 94.8809 160.573C95.2383 161.294 95.4199 162.105 95.4258 163.008V163.43C95.4258 164.344 95.2529 165.161 94.9072 165.882C94.5615 166.603 94.0693 167.165 93.4307 167.569C92.7979 167.974 92.0801 168.176 91.2773 168.176C90.4746 168.176 89.7539 167.977 89.1152 167.578C88.4824 167.18 87.9902 166.623 87.6387 165.908C87.2871 165.188 87.1084 164.379 87.1025 163.482V163.061ZM87.5771 163.43C87.5771 164.221 87.7324 164.947 88.043 165.609C88.3594 166.266 88.7959 166.778 89.3525 167.147C89.915 167.517 90.5566 167.701 91.2773 167.701C92.3613 167.701 93.2432 167.294 93.9229 166.479C94.6084 165.665 94.9512 164.616 94.9512 163.333V163.061C94.9512 162.281 94.793 161.561 94.4766 160.898C94.1602 160.236 93.7207 159.721 93.1582 159.352C92.6016 158.977 91.9688 158.789 91.2598 158.789C90.1758 158.789 89.291 159.202 88.6055 160.028C87.9199 160.854 87.5771 161.895 87.5771 163.148V163.43ZM96.7441 167.525L97.0781 167.077C97.9395 165.899 98.4404 164.191 98.5811 161.953L98.7656 158.49H103.872V167.525H104.628V170.795H104.153V168H96.498V170.795H96.1113V167.525H96.7441ZM97.3242 167.525H103.397V158.965H99.2139L99.0469 162.111C98.8828 164.496 98.3086 166.301 97.3242 167.525ZM113.021 168C112.904 167.596 112.846 167.016 112.846 166.26C112.471 166.869 111.958 167.341 111.308 167.675C110.657 168.009 109.922 168.176 109.102 168.176C108.223 168.176 107.514 167.938 106.975 167.464C106.441 166.983 106.175 166.359 106.175 165.592C106.175 164.719 106.567 164.021 107.353 163.5C108.144 162.973 109.192 162.703 110.499 162.691H112.846V161.303C112.846 160.506 112.594 159.888 112.09 159.448C111.592 159.009 110.877 158.789 109.945 158.789C109.078 158.789 108.354 159.012 107.774 159.457C107.194 159.902 106.904 160.453 106.904 161.109L106.43 161.092C106.43 160.318 106.77 159.662 107.449 159.123C108.129 158.584 108.961 158.314 109.945 158.314C110.971 158.314 111.785 158.572 112.389 159.088C112.992 159.598 113.303 160.318 113.32 161.25V165.794C113.32 166.837 113.402 167.546 113.566 167.921V168H113.021ZM109.102 167.71C109.992 167.71 110.757 167.511 111.396 167.112C112.04 166.714 112.523 166.154 112.846 165.434V163.175H110.648C109.289 163.175 108.249 163.444 107.528 163.983C106.942 164.423 106.649 164.971 106.649 165.627C106.649 166.207 106.881 166.699 107.344 167.104C107.807 167.508 108.393 167.71 109.102 167.71ZM123.656 163.333C123.656 164.815 123.337 165.993 122.698 166.866C122.06 167.739 121.189 168.176 120.088 168.176C119.367 168.176 118.726 168.029 118.163 167.736C117.601 167.443 117.161 167.039 116.845 166.523V171.656H116.37V158.49H116.845V160.187C117.173 159.583 117.615 159.12 118.172 158.798C118.729 158.476 119.361 158.314 120.07 158.314C121.184 158.314 122.06 158.742 122.698 159.598C123.337 160.447 123.656 161.643 123.656 163.184V163.333ZM123.173 163.148C123.173 161.783 122.9 160.717 122.355 159.949C121.816 159.176 121.058 158.789 120.079 158.789C119.282 158.789 118.605 158.997 118.049 159.413C117.492 159.823 117.091 160.415 116.845 161.188V165.636C117.091 166.292 117.492 166.802 118.049 167.165C118.611 167.522 119.294 167.701 120.097 167.701C121.069 167.701 121.825 167.314 122.364 166.541C122.903 165.768 123.173 164.637 123.173 163.148ZM132.858 158.49V168H132.384V164.045H128.903L126.521 168H125.959L128.358 164.001C127.673 163.89 127.131 163.591 126.732 163.104C126.334 162.618 126.135 162.006 126.135 161.268C126.135 160.441 126.413 159.776 126.97 159.272C127.532 158.769 128.294 158.508 129.255 158.49H132.858ZM126.609 161.285C126.609 161.971 126.814 162.519 127.225 162.929C127.641 163.339 128.2 163.55 128.903 163.562H132.384V158.974H129.343C128.487 158.974 127.816 159.179 127.33 159.589C126.85 159.999 126.609 160.564 126.609 161.285ZM146.385 168C146.268 167.596 146.209 167.016 146.209 166.26C145.834 166.869 145.321 167.341 144.671 167.675C144.021 168.009 143.285 168.176 142.465 168.176C141.586 168.176 140.877 167.938 140.338 167.464C139.805 166.983 139.538 166.359 139.538 165.592C139.538 164.719 139.931 164.021 140.716 163.5C141.507 162.973 142.556 162.703 143.862 162.691H146.209V161.303C146.209 160.506 145.957 159.888 145.453 159.448C144.955 159.009 144.24 158.789 143.309 158.789C142.441 158.789 141.718 159.012 141.138 159.457C140.558 159.902 140.268 160.453 140.268 161.109L139.793 161.092C139.793 160.318 140.133 159.662 140.812 159.123C141.492 158.584 142.324 158.314 143.309 158.314C144.334 158.314 145.148 158.572 145.752 159.088C146.355 159.598 146.666 160.318 146.684 161.25V165.794C146.684 166.837 146.766 167.546 146.93 167.921V168H146.385ZM142.465 167.71C143.355 167.71 144.12 167.511 144.759 167.112C145.403 166.714 145.887 166.154 146.209 165.434V163.175H144.012C142.652 163.175 141.612 163.444 140.892 163.983C140.306 164.423 140.013 164.971 140.013 165.627C140.013 166.207 140.244 166.699 140.707 167.104C141.17 167.508 141.756 167.71 142.465 167.71ZM149.83 168V158.49H153.1C154.254 158.49 155.136 158.701 155.745 159.123C156.36 159.539 156.668 160.148 156.668 160.951C156.668 161.479 156.504 161.938 156.176 162.331C155.854 162.724 155.391 162.987 154.787 163.122H154.796C155.44 163.192 155.982 163.444 156.422 163.878C156.861 164.312 157.081 164.827 157.081 165.425C157.081 166.239 156.779 166.872 156.176 167.323C155.578 167.774 154.74 168 153.662 168H149.83ZM150.305 163.421V167.525H153.706C154.614 167.525 155.326 167.344 155.842 166.98C156.357 166.617 156.615 166.102 156.615 165.434C156.615 164.836 156.352 164.353 155.824 163.983C155.303 163.608 154.588 163.421 153.68 163.421H150.305ZM150.305 162.946H153.275C154.236 162.946 154.963 162.776 155.455 162.437C155.947 162.097 156.193 161.593 156.193 160.925C156.193 160.245 155.93 159.75 155.402 159.439C154.875 159.129 154.107 158.974 153.1 158.974H150.305V162.946ZM166.099 158.974H162.363V168H161.889V158.974H158.347V158.49H166.099V158.974ZM166.872 163.061C166.872 162.152 167.045 161.338 167.391 160.617C167.742 159.891 168.234 159.325 168.867 158.921C169.506 158.517 170.227 158.314 171.029 158.314C171.826 158.314 172.541 158.511 173.174 158.903C173.807 159.296 174.299 159.853 174.65 160.573C175.008 161.294 175.189 162.105 175.195 163.008V163.43C175.195 164.344 175.022 165.161 174.677 165.882C174.331 166.603 173.839 167.165 173.2 167.569C172.567 167.974 171.85 168.176 171.047 168.176C170.244 168.176 169.523 167.977 168.885 167.578C168.252 167.18 167.76 166.623 167.408 165.908C167.057 165.188 166.878 164.379 166.872 163.482V163.061ZM167.347 163.43C167.347 164.221 167.502 164.947 167.812 165.609C168.129 166.266 168.565 166.778 169.122 167.147C169.685 167.517 170.326 167.701 171.047 167.701C172.131 167.701 173.013 167.294 173.692 166.479C174.378 165.665 174.721 164.616 174.721 163.333V163.061C174.721 162.281 174.562 161.561 174.246 160.898C173.93 160.236 173.49 159.721 172.928 159.352C172.371 158.977 171.738 158.789 171.029 158.789C169.945 158.789 169.061 159.202 168.375 160.028C167.689 160.854 167.347 161.895 167.347 163.148V163.43ZM182.561 167.279L186.885 158.49H187.456V168H186.973V159.404L182.745 168H182.376L178.061 159.193V168H177.586V158.49H178.236L182.561 167.279ZM196.623 168C196.506 167.596 196.447 167.016 196.447 166.26C196.072 166.869 195.56 167.341 194.909 167.675C194.259 168.009 193.523 168.176 192.703 168.176C191.824 168.176 191.115 167.938 190.576 167.464C190.043 166.983 189.776 166.359 189.776 165.592C189.776 164.719 190.169 164.021 190.954 163.5C191.745 162.973 192.794 162.703 194.101 162.691H196.447V161.303C196.447 160.506 196.195 159.888 195.691 159.448C195.193 159.009 194.479 158.789 193.547 158.789C192.68 158.789 191.956 159.012 191.376 159.457C190.796 159.902 190.506 160.453 190.506 161.109L190.031 161.092C190.031 160.318 190.371 159.662 191.051 159.123C191.73 158.584 192.562 158.314 193.547 158.314C194.572 158.314 195.387 158.572 195.99 159.088C196.594 159.598 196.904 160.318 196.922 161.25V165.794C196.922 166.837 197.004 167.546 197.168 167.921V168H196.623ZM192.703 167.71C193.594 167.71 194.358 167.511 194.997 167.112C195.642 166.714 196.125 166.154 196.447 165.434V163.175H194.25C192.891 163.175 191.851 163.444 191.13 163.983C190.544 164.423 190.251 164.971 190.251 165.627C190.251 166.207 190.482 166.699 190.945 167.104C191.408 167.508 191.994 167.71 192.703 167.71ZM206.44 158.974H202.705V168H202.23V158.974H198.688V158.49H206.44V158.974ZM214.658 158.49H215.142V168H214.658V159.334L208.778 168H208.304V158.49H208.778V167.156L214.658 158.49ZM224.52 168H224.045V163.412C223.623 163.617 223.146 163.787 222.612 163.922C222.085 164.051 221.64 164.115 221.276 164.115C220.327 164.115 219.606 164.004 219.114 163.781C218.622 163.553 218.259 163.184 218.024 162.674C217.796 162.158 217.682 161.455 217.682 160.564V158.49H218.156V160.564C218.156 161.344 218.256 161.956 218.455 162.401C218.654 162.841 218.968 163.157 219.396 163.351C219.829 163.544 220.456 163.641 221.276 163.641C221.745 163.617 222.246 163.541 222.779 163.412C223.318 163.277 223.74 163.128 224.045 162.964V158.49H224.52V168ZM230.971 168.176C230.203 168.176 229.497 167.971 228.853 167.561C228.214 167.145 227.713 166.576 227.35 165.855C226.986 165.135 226.805 164.335 226.805 163.456V163.061C226.805 162.182 226.98 161.376 227.332 160.644C227.684 159.911 228.167 159.34 228.782 158.93C229.397 158.52 230.068 158.314 230.795 158.314C231.855 158.314 232.723 158.692 233.396 159.448C234.07 160.204 234.407 161.197 234.407 162.428V162.929H227.279V163.447C227.279 164.221 227.44 164.938 227.763 165.601C228.091 166.257 228.539 166.772 229.107 167.147C229.682 167.522 230.303 167.71 230.971 167.71C231.609 167.71 232.151 167.604 232.597 167.394C233.048 167.177 233.446 166.846 233.792 166.4L234.126 166.638C233.417 167.663 232.365 168.176 230.971 168.176ZM230.795 158.789C229.869 158.789 229.084 159.135 228.439 159.826C227.795 160.512 227.417 161.388 227.306 162.454H233.933V162.34C233.933 161.695 233.795 161.098 233.52 160.547C233.25 159.99 232.875 159.56 232.395 159.255C231.92 158.944 231.387 158.789 230.795 158.789ZM239.848 167.701C240.709 167.701 241.418 167.473 241.975 167.016C242.537 166.559 242.845 165.926 242.897 165.117H243.372C243.325 166.037 242.971 166.778 242.309 167.341C241.646 167.897 240.826 168.176 239.848 168.176C238.658 168.176 237.712 167.745 237.009 166.884C236.312 166.022 235.963 164.854 235.963 163.377V163.061C235.963 161.619 236.312 160.468 237.009 159.606C237.712 158.745 238.652 158.314 239.83 158.314C240.838 158.314 241.67 158.616 242.326 159.22C242.982 159.823 243.331 160.626 243.372 161.628H242.897C242.856 160.772 242.555 160.087 241.992 159.571C241.436 159.05 240.715 158.789 239.83 158.789C238.77 158.789 237.938 159.173 237.334 159.94C236.736 160.702 236.438 161.763 236.438 163.122V163.43C236.438 164.76 236.739 165.806 237.343 166.567C237.952 167.323 238.787 167.701 239.848 167.701ZM247.978 163.351H246.237V168H245.754V158.49H246.237V162.885H248.065L251.836 158.49H252.521L248.479 163.148L253.075 168H252.363L247.978 163.351ZM253.778 163.061C253.778 162.152 253.951 161.338 254.297 160.617C254.648 159.891 255.141 159.325 255.773 158.921C256.412 158.517 257.133 158.314 257.936 158.314C258.732 158.314 259.447 158.511 260.08 158.903C260.713 159.296 261.205 159.853 261.557 160.573C261.914 161.294 262.096 162.105 262.102 163.008V163.43C262.102 164.344 261.929 165.161 261.583 165.882C261.237 166.603 260.745 167.165 260.106 167.569C259.474 167.974 258.756 168.176 257.953 168.176C257.15 168.176 256.43 167.977 255.791 167.578C255.158 167.18 254.666 166.623 254.314 165.908C253.963 165.188 253.784 164.379 253.778 163.482V163.061ZM254.253 163.43C254.253 164.221 254.408 164.947 254.719 165.609C255.035 166.266 255.472 166.778 256.028 167.147C256.591 167.517 257.232 167.701 257.953 167.701C259.037 167.701 259.919 167.294 260.599 166.479C261.284 165.665 261.627 164.616 261.627 163.333V163.061C261.627 162.281 261.469 161.561 261.152 160.898C260.836 160.236 260.396 159.721 259.834 159.352C259.277 158.977 258.645 158.789 257.936 158.789C256.852 158.789 255.967 159.202 255.281 160.028C254.596 160.854 254.253 161.895 254.253 163.148V163.43ZM270.768 158.49H271.251V168H270.768V159.334L264.888 168H264.413V158.49H264.888V167.156L270.768 158.49ZM270.214 155.098C270.214 155.754 269.991 156.281 269.546 156.68C269.106 157.078 268.515 157.277 267.771 157.277C267.021 157.277 266.423 157.078 265.978 156.68C265.538 156.281 265.318 155.754 265.318 155.098H265.793C265.793 155.631 265.96 156.047 266.294 156.346C266.628 156.639 267.12 156.785 267.771 156.785C268.397 156.785 268.881 156.636 269.221 156.337C269.566 156.032 269.739 155.619 269.739 155.098H270.214ZM100.98 188.701C101.842 188.701 102.551 188.473 103.107 188.016C103.67 187.559 103.978 186.926 104.03 186.117H104.505C104.458 187.037 104.104 187.778 103.441 188.341C102.779 188.897 101.959 189.176 100.98 189.176C99.791 189.176 98.8447 188.745 98.1416 187.884C97.4443 187.022 97.0957 185.854 97.0957 184.377V184.061C97.0957 182.619 97.4443 181.468 98.1416 180.606C98.8447 179.745 99.7852 179.314 100.963 179.314C101.971 179.314 102.803 179.616 103.459 180.22C104.115 180.823 104.464 181.626 104.505 182.628H104.03C103.989 181.772 103.688 181.087 103.125 180.571C102.568 180.05 101.848 179.789 100.963 179.789C99.9023 179.789 99.0703 180.173 98.4668 180.94C97.8691 181.702 97.5703 182.763 97.5703 184.122V184.43C97.5703 185.76 97.8721 186.806 98.4756 187.567C99.085 188.323 99.9199 188.701 100.98 188.701ZM113.25 179.49H113.733V189H113.25V180.334L107.37 189H106.896V179.49H107.37V188.156L113.25 179.49ZM123.595 189H123.111V184.351H117.231V189H116.757V179.49H117.231V183.876H123.111V179.49H123.595V189ZM129.404 183.709L132.437 179.49H133.034L129.694 184.122L133.21 189H132.621L129.396 184.535L126.179 189H125.59L129.105 184.122L125.766 179.49H126.363L129.404 183.709ZM142.482 184.333C142.482 185.815 142.163 186.993 141.524 187.866C140.886 188.739 140.016 189.176 138.914 189.176C138.193 189.176 137.552 189.029 136.989 188.736C136.427 188.443 135.987 188.039 135.671 187.523V192.656H135.196V179.49H135.671V181.187C135.999 180.583 136.441 180.12 136.998 179.798C137.555 179.476 138.188 179.314 138.896 179.314C140.01 179.314 140.886 179.742 141.524 180.598C142.163 181.447 142.482 182.643 142.482 184.184V184.333ZM141.999 184.148C141.999 182.783 141.727 181.717 141.182 180.949C140.643 180.176 139.884 179.789 138.905 179.789C138.108 179.789 137.432 179.997 136.875 180.413C136.318 180.823 135.917 181.415 135.671 182.188V186.636C135.917 187.292 136.318 187.802 136.875 188.165C137.438 188.522 138.12 188.701 138.923 188.701C139.896 188.701 140.651 188.314 141.19 187.541C141.729 186.768 141.999 185.637 141.999 184.148ZM144.354 184.061C144.354 183.152 144.527 182.338 144.873 181.617C145.225 180.891 145.717 180.325 146.35 179.921C146.988 179.517 147.709 179.314 148.512 179.314C149.309 179.314 150.023 179.511 150.656 179.903C151.289 180.296 151.781 180.853 152.133 181.573C152.49 182.294 152.672 183.105 152.678 184.008V184.43C152.678 185.344 152.505 186.161 152.159 186.882C151.813 187.603 151.321 188.165 150.683 188.569C150.05 188.974 149.332 189.176 148.529 189.176C147.727 189.176 147.006 188.977 146.367 188.578C145.734 188.18 145.242 187.623 144.891 186.908C144.539 186.188 144.36 185.379 144.354 184.482V184.061ZM144.829 184.43C144.829 185.221 144.984 185.947 145.295 186.609C145.611 187.266 146.048 187.778 146.604 188.147C147.167 188.517 147.809 188.701 148.529 188.701C149.613 188.701 150.495 188.294 151.175 187.479C151.86 186.665 152.203 185.616 152.203 184.333V184.061C152.203 183.281 152.045 182.561 151.729 181.898C151.412 181.236 150.973 180.721 150.41 180.352C149.854 179.977 149.221 179.789 148.512 179.789C147.428 179.789 146.543 180.202 145.857 181.028C145.172 181.854 144.829 182.895 144.829 184.148V184.43ZM161.827 189H161.344V184.351H155.464V189H154.989V179.49H155.464V183.876H161.344V179.49H161.827V189ZM171.205 179.49H171.688V189H171.205V180.334L165.325 189H164.851V179.49H165.325V188.156L171.205 179.49ZM180.636 181.925C180.636 181.251 180.387 180.727 179.889 180.352C179.396 179.977 178.676 179.789 177.727 179.789C176.906 179.789 176.212 179.997 175.644 180.413C175.081 180.829 174.8 181.351 174.8 181.978H174.316C174.316 181.21 174.647 180.574 175.31 180.07C175.978 179.566 176.783 179.314 177.727 179.314C178.805 179.314 179.64 179.549 180.231 180.018C180.823 180.48 181.119 181.125 181.119 181.951C181.119 182.449 180.958 182.892 180.636 183.278C180.313 183.665 179.859 183.949 179.273 184.131C180.615 184.436 181.286 185.209 181.286 186.451C181.286 187.283 180.964 187.945 180.319 188.438C179.681 188.924 178.819 189.167 177.735 189.167C177.103 189.167 176.508 189.05 175.951 188.815C175.395 188.581 174.955 188.253 174.633 187.831C174.316 187.409 174.158 186.917 174.158 186.354H174.642C174.642 187.011 174.935 187.564 175.521 188.016C176.106 188.461 176.845 188.684 177.735 188.684C178.743 188.684 179.505 188.487 180.021 188.095C180.542 187.696 180.803 187.157 180.803 186.478C180.803 185.745 180.548 185.215 180.038 184.887C179.534 184.559 178.775 184.392 177.762 184.386H176.435V183.902H177.858C179.71 183.873 180.636 183.214 180.636 181.925ZM189.961 189C189.844 188.596 189.785 188.016 189.785 187.26C189.41 187.869 188.897 188.341 188.247 188.675C187.597 189.009 186.861 189.176 186.041 189.176C185.162 189.176 184.453 188.938 183.914 188.464C183.381 187.983 183.114 187.359 183.114 186.592C183.114 185.719 183.507 185.021 184.292 184.5C185.083 183.973 186.132 183.703 187.438 183.691H189.785V182.303C189.785 181.506 189.533 180.888 189.029 180.448C188.531 180.009 187.816 179.789 186.885 179.789C186.018 179.789 185.294 180.012 184.714 180.457C184.134 180.902 183.844 181.453 183.844 182.109L183.369 182.092C183.369 181.318 183.709 180.662 184.389 180.123C185.068 179.584 185.9 179.314 186.885 179.314C187.91 179.314 188.725 179.572 189.328 180.088C189.932 180.598 190.242 181.318 190.26 182.25V186.794C190.26 187.837 190.342 188.546 190.506 188.921V189H189.961ZM186.041 188.71C186.932 188.71 187.696 188.511 188.335 188.112C188.979 187.714 189.463 187.154 189.785 186.434V184.175H187.588C186.229 184.175 185.188 184.444 184.468 184.983C183.882 185.423 183.589 185.971 183.589 186.627C183.589 187.207 183.82 187.699 184.283 188.104C184.746 188.508 185.332 188.71 186.041 188.71ZM193.327 179.49H193.802V188.525H199.682V179.49H200.165V188.525H200.965V191.821H200.49V189H193.327V179.49ZM209.525 179.49H210.009V189H209.525V180.334L203.646 189H203.171V179.49H203.646V188.156L209.525 179.49ZM219.387 179.49H219.87V189H219.387V180.334L213.507 189H213.032V179.49H213.507V188.156L219.387 179.49ZM222.516 191.241L222.19 190.96C222.665 190.351 222.923 189.721 222.964 189.07L222.973 187.603H223.447V188.886C223.424 189.817 223.113 190.603 222.516 191.241ZM39.958 210V200.49H43.2275C44.3818 200.49 45.2637 200.701 45.873 201.123C46.4883 201.539 46.7959 202.148 46.7959 202.951C46.7959 203.479 46.6318 203.938 46.3037 204.331C45.9814 204.724 45.5186 204.987 44.915 205.122H44.9238C45.5684 205.192 46.1104 205.444 46.5498 205.878C46.9893 206.312 47.209 206.827 47.209 207.425C47.209 208.239 46.9072 208.872 46.3037 209.323C45.7061 209.774 44.8682 210 43.79 210H39.958ZM40.4326 205.421V209.525H43.834C44.7422 209.525 45.4541 209.344 45.9697 208.98C46.4854 208.617 46.7432 208.102 46.7432 207.434C46.7432 206.836 46.4795 206.353 45.9521 205.983C45.4307 205.608 44.7158 205.421 43.8076 205.421H40.4326ZM40.4326 204.946H43.4033C44.3643 204.946 45.0908 204.776 45.583 204.437C46.0752 204.097 46.3213 203.593 46.3213 202.925C46.3213 202.245 46.0576 201.75 45.5303 201.439C45.0029 201.129 44.2354 200.974 43.2275 200.974H40.4326V204.946ZM50.2939 204.111H53.4141C54.4277 204.129 55.2334 204.404 55.8311 204.938C56.4287 205.465 56.7275 206.171 56.7275 207.056C56.7275 207.935 56.4316 208.641 55.8398 209.174C55.248 209.707 54.4395 209.982 53.4141 210H49.8193V200.49H50.2939V204.111ZM50.2939 204.586V209.525H53.3262C54.2402 209.525 54.9551 209.303 55.4707 208.857C55.9922 208.406 56.2529 207.8 56.2529 207.038C56.2529 206.312 55.998 205.726 55.4883 205.28C54.9844 204.829 54.2871 204.598 53.3965 204.586H50.2939ZM59.7861 210H59.3115V200.49H59.7861V210ZM72.1611 209.279L76.4854 200.49H77.0566V210H76.5732V201.404L72.3457 210H71.9766L67.6611 201.193V210H67.1865V200.49H67.8369L72.1611 209.279ZM79.3594 205.061C79.3594 204.152 79.5322 203.338 79.8779 202.617C80.2295 201.891 80.7217 201.325 81.3545 200.921C81.9932 200.517 82.7139 200.314 83.5166 200.314C84.3135 200.314 85.0283 200.511 85.6611 200.903C86.2939 201.296 86.7861 201.853 87.1377 202.573C87.4951 203.294 87.6768 204.105 87.6826 205.008V205.43C87.6826 206.344 87.5098 207.161 87.1641 207.882C86.8184 208.603 86.3262 209.165 85.6875 209.569C85.0547 209.974 84.3369 210.176 83.5342 210.176C82.7314 210.176 82.0107 209.977 81.3721 209.578C80.7393 209.18 80.2471 208.623 79.8955 207.908C79.5439 207.188 79.3652 206.379 79.3594 205.482V205.061ZM79.834 205.43C79.834 206.221 79.9893 206.947 80.2998 207.609C80.6162 208.266 81.0527 208.778 81.6094 209.147C82.1719 209.517 82.8135 209.701 83.5342 209.701C84.6182 209.701 85.5 209.294 86.1797 208.479C86.8652 207.665 87.208 206.616 87.208 205.333V205.061C87.208 204.281 87.0498 203.561 86.7334 202.898C86.417 202.236 85.9775 201.721 85.415 201.352C84.8584 200.977 84.2256 200.789 83.5166 200.789C82.4326 200.789 81.5479 201.202 80.8623 202.028C80.1768 202.854 79.834 203.895 79.834 205.148V205.43ZM96.7354 205.359H95.3643V210H94.8896V205.359H93.5273L89.1504 210H88.5264L93.0176 205.148L89.0801 200.49H89.6689L93.4482 204.885H94.8896V200.49H95.3643V204.885H96.832L100.603 200.49H101.209L97.2451 205.148L101.754 210H101.13L96.7354 205.359ZM106.878 210.176C106.11 210.176 105.404 209.971 104.76 209.561C104.121 209.145 103.62 208.576 103.257 207.855C102.894 207.135 102.712 206.335 102.712 205.456V205.061C102.712 204.182 102.888 203.376 103.239 202.644C103.591 201.911 104.074 201.34 104.689 200.93C105.305 200.52 105.976 200.314 106.702 200.314C107.763 200.314 108.63 200.692 109.304 201.448C109.978 202.204 110.314 203.197 110.314 204.428V204.929H103.187V205.447C103.187 206.221 103.348 206.938 103.67 207.601C103.998 208.257 104.446 208.772 105.015 209.147C105.589 209.522 106.21 209.71 106.878 209.71C107.517 209.71 108.059 209.604 108.504 209.394C108.955 209.177 109.354 208.846 109.699 208.4L110.033 208.638C109.324 209.663 108.272 210.176 106.878 210.176ZM106.702 200.789C105.776 200.789 104.991 201.135 104.347 201.826C103.702 202.512 103.324 203.388 103.213 204.454H109.84V204.34C109.84 203.695 109.702 203.098 109.427 202.547C109.157 201.99 108.782 201.56 108.302 201.255C107.827 200.944 107.294 200.789 106.702 200.789ZM119.016 200.974H115.28V210H114.806V200.974H111.264V200.49H119.016V200.974ZM123.595 210.176C122.827 210.176 122.121 209.971 121.477 209.561C120.838 209.145 120.337 208.576 119.974 207.855C119.61 207.135 119.429 206.335 119.429 205.456V205.061C119.429 204.182 119.604 203.376 119.956 202.644C120.308 201.911 120.791 201.34 121.406 200.93C122.021 200.52 122.692 200.314 123.419 200.314C124.479 200.314 125.347 200.692 126.021 201.448C126.694 202.204 127.031 203.197 127.031 204.428V204.929H119.903V205.447C119.903 206.221 120.064 206.938 120.387 207.601C120.715 208.257 121.163 208.772 121.731 209.147C122.306 209.522 122.927 209.71 123.595 209.71C124.233 209.71 124.775 209.604 125.221 209.394C125.672 209.177 126.07 208.846 126.416 208.4L126.75 208.638C126.041 209.663 124.989 210.176 123.595 210.176ZM123.419 200.789C122.493 200.789 121.708 201.135 121.063 201.826C120.419 202.512 120.041 203.388 119.93 204.454H126.557V204.34C126.557 203.695 126.419 203.098 126.144 202.547C125.874 201.99 125.499 201.56 125.019 201.255C124.544 200.944 124.011 200.789 123.419 200.789ZM140.391 210H139.907V205.351H134.027V210H133.553V200.49H134.027V204.876H139.907V200.49H140.391V210ZM146.833 210.176C146.065 210.176 145.359 209.971 144.715 209.561C144.076 209.145 143.575 208.576 143.212 207.855C142.849 207.135 142.667 206.335 142.667 205.456V205.061C142.667 204.182 142.843 203.376 143.194 202.644C143.546 201.911 144.029 201.34 144.645 200.93C145.26 200.52 145.931 200.314 146.657 200.314C147.718 200.314 148.585 200.692 149.259 201.448C149.933 202.204 150.27 203.197 150.27 204.428V204.929H143.142V205.447C143.142 206.221 143.303 206.938 143.625 207.601C143.953 208.257 144.401 208.772 144.97 209.147C145.544 209.522 146.165 209.71 146.833 209.71C147.472 209.71 148.014 209.604 148.459 209.394C148.91 209.177 149.309 208.846 149.654 208.4L149.988 208.638C149.279 209.663 148.228 210.176 146.833 210.176ZM146.657 200.789C145.731 200.789 144.946 201.135 144.302 201.826C143.657 202.512 143.279 203.388 143.168 204.454H149.795V204.34C149.795 203.695 149.657 203.098 149.382 202.547C149.112 201.99 148.737 201.56 148.257 201.255C147.782 200.944 147.249 200.789 146.657 200.789ZM160.289 201.193C161.52 201.193 162.521 201.586 163.295 202.371C164.074 203.15 164.464 204.19 164.464 205.491V205.781C164.464 206.625 164.288 207.384 163.937 208.058C163.585 208.731 163.09 209.253 162.451 209.622C161.818 209.991 161.104 210.176 160.307 210.176C159.504 210.176 158.78 209.988 158.136 209.613C157.497 209.238 157.002 208.717 156.65 208.049C156.305 207.381 156.132 206.625 156.132 205.781V204.797C156.132 202.887 156.507 201.331 157.257 200.13C158.013 198.929 159.059 198.234 160.395 198.047C161.32 197.918 161.991 197.722 162.407 197.458C162.829 197.194 163.04 196.825 163.04 196.351H163.515C163.515 196.966 163.257 197.455 162.741 197.818C162.231 198.182 161.484 198.416 160.5 198.521C159.516 198.621 158.695 199.069 158.039 199.866C157.383 200.663 156.946 201.738 156.729 203.092C157.081 202.5 157.562 202.037 158.171 201.703C158.78 201.363 159.486 201.193 160.289 201.193ZM160.289 201.668C159.205 201.668 158.32 202.028 157.635 202.749C156.949 203.464 156.606 204.378 156.606 205.491V205.781C156.606 206.508 156.762 207.173 157.072 207.776C157.389 208.38 157.825 208.852 158.382 209.191C158.944 209.531 159.586 209.701 160.307 209.701C161.385 209.701 162.267 209.329 162.952 208.585C163.638 207.835 163.98 206.871 163.98 205.693V205.412C163.98 204.727 163.825 204.097 163.515 203.522C163.204 202.942 162.768 202.488 162.205 202.16C161.643 201.832 161.004 201.668 160.289 201.668ZM170.071 210.176C169.304 210.176 168.598 209.971 167.953 209.561C167.314 209.145 166.813 208.576 166.45 207.855C166.087 207.135 165.905 206.335 165.905 205.456V205.061C165.905 204.182 166.081 203.376 166.433 202.644C166.784 201.911 167.268 201.34 167.883 200.93C168.498 200.52 169.169 200.314 169.896 200.314C170.956 200.314 171.823 200.692 172.497 201.448C173.171 202.204 173.508 203.197 173.508 204.428V204.929H166.38V205.447C166.38 206.221 166.541 206.938 166.863 207.601C167.191 208.257 167.64 208.772 168.208 209.147C168.782 209.522 169.403 209.71 170.071 209.71C170.71 209.71 171.252 209.604 171.697 209.394C172.148 209.177 172.547 208.846 172.893 208.4L173.227 208.638C172.518 209.663 171.466 210.176 170.071 210.176ZM169.896 200.789C168.97 200.789 168.185 201.135 167.54 201.826C166.896 202.512 166.518 203.388 166.406 204.454H173.033V204.34C173.033 203.695 172.896 203.098 172.62 202.547C172.351 201.99 171.976 201.56 171.495 201.255C171.021 200.944 170.487 200.789 169.896 200.789ZM178.948 209.701C179.81 209.701 180.519 209.473 181.075 209.016C181.638 208.559 181.945 207.926 181.998 207.117H182.473C182.426 208.037 182.071 208.778 181.409 209.341C180.747 209.897 179.927 210.176 178.948 210.176C177.759 210.176 176.812 209.745 176.109 208.884C175.412 208.022 175.063 206.854 175.063 205.377V205.061C175.063 203.619 175.412 202.468 176.109 201.606C176.812 200.745 177.753 200.314 178.931 200.314C179.938 200.314 180.771 200.616 181.427 201.22C182.083 201.823 182.432 202.626 182.473 203.628H181.998C181.957 202.772 181.655 202.087 181.093 201.571C180.536 201.05 179.815 200.789 178.931 200.789C177.87 200.789 177.038 201.173 176.435 201.94C175.837 202.702 175.538 203.763 175.538 205.122V205.43C175.538 206.76 175.84 207.806 176.443 208.567C177.053 209.323 177.888 209.701 178.948 209.701ZM191.701 210H191.218V200.974H185.338V210H184.863V200.49H191.701V210ZM194.004 205.061C194.004 204.152 194.177 203.338 194.522 202.617C194.874 201.891 195.366 201.325 195.999 200.921C196.638 200.517 197.358 200.314 198.161 200.314C198.958 200.314 199.673 200.511 200.306 200.903C200.938 201.296 201.431 201.853 201.782 202.573C202.14 203.294 202.321 204.105 202.327 205.008V205.43C202.327 206.344 202.154 207.161 201.809 207.882C201.463 208.603 200.971 209.165 200.332 209.569C199.699 209.974 198.981 210.176 198.179 210.176C197.376 210.176 196.655 209.977 196.017 209.578C195.384 209.18 194.892 208.623 194.54 207.908C194.188 207.188 194.01 206.379 194.004 205.482V205.061ZM194.479 205.43C194.479 206.221 194.634 206.947 194.944 207.609C195.261 208.266 195.697 208.778 196.254 209.147C196.816 209.517 197.458 209.701 198.179 209.701C199.263 209.701 200.145 209.294 200.824 208.479C201.51 207.665 201.853 206.616 201.853 205.333V205.061C201.853 204.281 201.694 203.561 201.378 202.898C201.062 202.236 200.622 201.721 200.06 201.352C199.503 200.977 198.87 200.789 198.161 200.789C197.077 200.789 196.192 201.202 195.507 202.028C194.821 202.854 194.479 203.895 194.479 205.148V205.43ZM206.854 205.351H205.113V210H204.63V200.49H205.113V204.885H206.941L210.712 200.49H211.397L207.354 205.148L211.951 210H211.239L206.854 205.351ZM212.654 205.061C212.654 204.152 212.827 203.338 213.173 202.617C213.524 201.891 214.017 201.325 214.649 200.921C215.288 200.517 216.009 200.314 216.812 200.314C217.608 200.314 218.323 200.511 218.956 200.903C219.589 201.296 220.081 201.853 220.433 202.573C220.79 203.294 220.972 204.105 220.978 205.008V205.43C220.978 206.344 220.805 207.161 220.459 207.882C220.113 208.603 219.621 209.165 218.982 209.569C218.35 209.974 217.632 210.176 216.829 210.176C216.026 210.176 215.306 209.977 214.667 209.578C214.034 209.18 213.542 208.623 213.19 207.908C212.839 207.188 212.66 206.379 212.654 205.482V205.061ZM213.129 205.43C213.129 206.221 213.284 206.947 213.595 207.609C213.911 208.266 214.348 208.778 214.904 209.147C215.467 209.517 216.108 209.701 216.829 209.701C217.913 209.701 218.795 209.294 219.475 208.479C220.16 207.665 220.503 206.616 220.503 205.333V205.061C220.503 204.281 220.345 203.561 220.028 202.898C219.712 202.236 219.272 201.721 218.71 201.352C218.153 200.977 217.521 200.789 216.812 200.789C215.728 200.789 214.843 201.202 214.157 202.028C213.472 202.854 213.129 203.895 213.129 205.148V205.43ZM229.644 200.49H230.127V210H229.644V201.334L223.764 210H223.289V200.49H223.764V209.156L229.644 200.49ZM239.742 200.974H236.007V210H235.532V200.974H231.99V200.49H239.742V200.974ZM242.159 204.111H245.279C246.293 204.129 247.099 204.404 247.696 204.938C248.294 205.465 248.593 206.171 248.593 207.056C248.593 207.935 248.297 208.641 247.705 209.174C247.113 209.707 246.305 209.982 245.279 210H241.685V200.49H242.159V204.111ZM242.159 204.586V209.525H245.191C246.105 209.525 246.82 209.303 247.336 208.857C247.857 208.406 248.118 207.8 248.118 207.038C248.118 206.312 247.863 205.726 247.354 205.28C246.85 204.829 246.152 204.598 245.262 204.586H242.159ZM254.323 209.701C255.185 209.701 255.894 209.473 256.45 209.016C257.013 208.559 257.32 207.926 257.373 207.117H257.848C257.801 208.037 257.446 208.778 256.784 209.341C256.122 209.897 255.302 210.176 254.323 210.176C253.134 210.176 252.188 209.745 251.484 208.884C250.787 208.022 250.438 206.854 250.438 205.377V205.061C250.438 203.619 250.787 202.468 251.484 201.606C252.188 200.745 253.128 200.314 254.306 200.314C255.313 200.314 256.146 200.616 256.802 201.22C257.458 201.823 257.807 202.626 257.848 203.628H257.373C257.332 202.772 257.03 202.087 256.468 201.571C255.911 201.05 255.19 200.789 254.306 200.789C253.245 200.789 252.413 201.173 251.81 201.94C251.212 202.702 250.913 203.763 250.913 205.122V205.43C250.913 206.76 251.215 207.806 251.818 208.567C252.428 209.323 253.263 209.701 254.323 209.701ZM266.848 200.49V210H266.373V206.045H262.893L260.511 210H259.948L262.348 206.001C261.662 205.89 261.12 205.591 260.722 205.104C260.323 204.618 260.124 204.006 260.124 203.268C260.124 202.441 260.402 201.776 260.959 201.272C261.521 200.769 262.283 200.508 263.244 200.49H266.848ZM260.599 203.285C260.599 203.971 260.804 204.519 261.214 204.929C261.63 205.339 262.189 205.55 262.893 205.562H266.373V200.974H263.332C262.477 200.974 261.806 201.179 261.319 201.589C260.839 201.999 260.599 202.564 260.599 203.285ZM273.51 205.061C273.51 204.152 273.683 203.338 274.028 202.617C274.38 201.891 274.872 201.325 275.505 200.921C276.144 200.517 276.864 200.314 277.667 200.314C278.464 200.314 279.179 200.511 279.812 200.903C280.444 201.296 280.937 201.853 281.288 202.573C281.646 203.294 281.827 204.105 281.833 205.008V205.43C281.833 206.344 281.66 207.161 281.314 207.882C280.969 208.603 280.477 209.165 279.838 209.569C279.205 209.974 278.487 210.176 277.685 210.176C276.882 210.176 276.161 209.977 275.522 209.578C274.89 209.18 274.397 208.623 274.046 207.908C273.694 207.188 273.516 206.379 273.51 205.482V205.061ZM273.984 205.43C273.984 206.221 274.14 206.947 274.45 207.609C274.767 208.266 275.203 208.778 275.76 209.147C276.322 209.517 276.964 209.701 277.685 209.701C278.769 209.701 279.65 209.294 280.33 208.479C281.016 207.665 281.358 206.616 281.358 205.333V205.061C281.358 204.281 281.2 203.561 280.884 202.898C280.567 202.236 280.128 201.721 279.565 201.352C279.009 200.977 278.376 200.789 277.667 200.789C276.583 200.789 275.698 201.202 275.013 202.028C274.327 202.854 273.984 203.895 273.984 205.148V205.43ZM49.3096 230.701C50.1709 230.701 50.8799 230.473 51.4365 230.016C51.999 229.559 52.3066 228.926 52.3594 228.117H52.834C52.7871 229.037 52.4326 229.778 51.7705 230.341C51.1084 230.897 50.2881 231.176 49.3096 231.176C48.1201 231.176 47.1738 230.745 46.4707 229.884C45.7734 229.022 45.4248 227.854 45.4248 226.377V226.061C45.4248 224.619 45.7734 223.468 46.4707 222.606C47.1738 221.745 48.1143 221.314 49.292 221.314C50.2998 221.314 51.1318 221.616 51.7881 222.22C52.4443 222.823 52.793 223.626 52.834 224.628H52.3594C52.3184 223.772 52.0166 223.087 51.4541 222.571C50.8975 222.05 50.1768 221.789 49.292 221.789C48.2314 221.789 47.3994 222.173 46.7959 222.94C46.1982 223.702 45.8994 224.763 45.8994 226.122V226.43C45.8994 227.76 46.2012 228.806 46.8047 229.567C47.4141 230.323 48.249 230.701 49.3096 230.701ZM54.5039 226.061C54.5039 225.152 54.6768 224.338 55.0225 223.617C55.374 222.891 55.8662 222.325 56.499 221.921C57.1377 221.517 57.8584 221.314 58.6611 221.314C59.458 221.314 60.1729 221.511 60.8057 221.903C61.4385 222.296 61.9307 222.853 62.2822 223.573C62.6396 224.294 62.8213 225.105 62.8271 226.008V226.43C62.8271 227.344 62.6543 228.161 62.3086 228.882C61.9629 229.603 61.4707 230.165 60.832 230.569C60.1992 230.974 59.4814 231.176 58.6787 231.176C57.876 231.176 57.1553 230.977 56.5166 230.578C55.8838 230.18 55.3916 229.623 55.04 228.908C54.6885 228.188 54.5098 227.379 54.5039 226.482V226.061ZM54.9785 226.43C54.9785 227.221 55.1338 227.947 55.4443 228.609C55.7607 229.266 56.1973 229.778 56.7539 230.147C57.3164 230.517 57.958 230.701 58.6787 230.701C59.7627 230.701 60.6445 230.294 61.3242 229.479C62.0098 228.665 62.3525 227.616 62.3525 226.333V226.061C62.3525 225.281 62.1943 224.561 61.8779 223.898C61.5615 223.236 61.1221 222.721 60.5596 222.352C60.0029 221.977 59.3701 221.789 58.6611 221.789C57.5771 221.789 56.6924 222.202 56.0068 223.028C55.3213 223.854 54.9785 224.895 54.9785 226.148V226.43ZM67.7314 225.709L70.7637 221.49H71.3613L68.0215 226.122L71.5371 231H70.9482L67.7227 226.535L64.5059 231H63.917L67.4326 226.122L64.0928 221.49H64.6904L67.7314 225.709ZM80.8096 226.333C80.8096 227.815 80.4902 228.993 79.8516 229.866C79.2129 230.739 78.3428 231.176 77.2412 231.176C76.5205 231.176 75.8789 231.029 75.3164 230.736C74.7539 230.443 74.3145 230.039 73.998 229.523V234.656H73.5234V221.49H73.998V223.187C74.3262 222.583 74.7686 222.12 75.3252 221.798C75.8818 221.476 76.5146 221.314 77.2236 221.314C78.3369 221.314 79.2129 221.742 79.8516 222.598C80.4902 223.447 80.8096 224.643 80.8096 226.184V226.333ZM80.3262 226.148C80.3262 224.783 80.0537 223.717 79.5088 222.949C78.9697 222.176 78.2109 221.789 77.2324 221.789C76.4355 221.789 75.7588 221.997 75.2021 222.413C74.6455 222.823 74.2441 223.415 73.998 224.188V228.636C74.2441 229.292 74.6455 229.802 75.2021 230.165C75.7646 230.522 76.4473 230.701 77.25 230.701C78.2227 230.701 78.9785 230.314 79.5176 229.541C80.0566 228.768 80.3262 227.637 80.3262 226.148ZM89.5459 231C89.4287 230.596 89.3701 230.016 89.3701 229.26C88.9951 229.869 88.4824 230.341 87.832 230.675C87.1816 231.009 86.4463 231.176 85.626 231.176C84.7471 231.176 84.0381 230.938 83.499 230.464C82.9658 229.983 82.6992 229.359 82.6992 228.592C82.6992 227.719 83.0918 227.021 83.877 226.5C84.668 225.973 85.7168 225.703 87.0234 225.691H89.3701V224.303C89.3701 223.506 89.1182 222.888 88.6143 222.448C88.1162 222.009 87.4014 221.789 86.4697 221.789C85.6025 221.789 84.8789 222.012 84.2988 222.457C83.7188 222.902 83.4287 223.453 83.4287 224.109L82.9541 224.092C82.9541 223.318 83.2939 222.662 83.9736 222.123C84.6533 221.584 85.4854 221.314 86.4697 221.314C87.4951 221.314 88.3096 221.572 88.9131 222.088C89.5166 222.598 89.8271 223.318 89.8447 224.25V228.794C89.8447 229.837 89.9268 230.546 90.0908 230.921V231H89.5459ZM85.626 230.71C86.5166 230.71 87.2812 230.511 87.9199 230.112C88.5645 229.714 89.0479 229.154 89.3701 228.434V226.175H87.1729C85.8135 226.175 84.7734 226.444 84.0527 226.983C83.4668 227.423 83.1738 227.971 83.1738 228.627C83.1738 229.207 83.4053 229.699 83.8682 230.104C84.3311 230.508 84.917 230.71 85.626 230.71ZM99.75 231H99.2666V226.351H93.3867V231H92.9121V221.49H93.3867V225.876H99.2666V221.49H99.75V231ZM109.611 231H109.128V226.351H103.248V231H102.773V221.49H103.248V225.876H109.128V221.49H109.611V231ZM111.914 226.061C111.914 225.152 112.087 224.338 112.433 223.617C112.784 222.891 113.276 222.325 113.909 221.921C114.548 221.517 115.269 221.314 116.071 221.314C116.868 221.314 117.583 221.511 118.216 221.903C118.849 222.296 119.341 222.853 119.692 223.573C120.05 224.294 120.231 225.105 120.237 226.008V226.43C120.237 227.344 120.064 228.161 119.719 228.882C119.373 229.603 118.881 230.165 118.242 230.569C117.609 230.974 116.892 231.176 116.089 231.176C115.286 231.176 114.565 230.977 113.927 230.578C113.294 230.18 112.802 229.623 112.45 228.908C112.099 228.188 111.92 227.379 111.914 226.482V226.061ZM112.389 226.43C112.389 227.221 112.544 227.947 112.854 228.609C113.171 229.266 113.607 229.778 114.164 230.147C114.727 230.517 115.368 230.701 116.089 230.701C117.173 230.701 118.055 230.294 118.734 229.479C119.42 228.665 119.763 227.616 119.763 226.333V226.061C119.763 225.281 119.604 224.561 119.288 223.898C118.972 223.236 118.532 222.721 117.97 222.352C117.413 221.977 116.78 221.789 116.071 221.789C114.987 221.789 114.103 222.202 113.417 223.028C112.731 223.854 112.389 224.895 112.389 226.148V226.43ZM125.774 230.701C126.636 230.701 127.345 230.473 127.901 230.016C128.464 229.559 128.771 228.926 128.824 228.117H129.299C129.252 229.037 128.897 229.778 128.235 230.341C127.573 230.897 126.753 231.176 125.774 231.176C124.585 231.176 123.639 230.745 122.936 229.884C122.238 229.022 121.89 227.854 121.89 226.377V226.061C121.89 224.619 122.238 223.468 122.936 222.606C123.639 221.745 124.579 221.314 125.757 221.314C126.765 221.314 127.597 221.616 128.253 222.22C128.909 222.823 129.258 223.626 129.299 224.628H128.824C128.783 223.772 128.481 223.087 127.919 222.571C127.362 222.05 126.642 221.789 125.757 221.789C124.696 221.789 123.864 222.173 123.261 222.94C122.663 223.702 122.364 224.763 122.364 226.122V226.43C122.364 227.76 122.666 228.806 123.27 229.567C123.879 230.323 124.714 230.701 125.774 230.701ZM138.281 221.974H134.546V231H134.071V221.974H130.529V221.49H138.281V221.974ZM146.499 221.49H146.982V231H146.499V222.334L140.619 231H140.145V221.49H140.619V230.156L146.499 221.49ZM154.392 231V221.49H157.661C158.815 221.49 159.697 221.701 160.307 222.123C160.922 222.539 161.229 223.148 161.229 223.951C161.229 224.479 161.065 224.938 160.737 225.331C160.415 225.724 159.952 225.987 159.349 226.122H159.357C160.002 226.192 160.544 226.444 160.983 226.878C161.423 227.312 161.643 227.827 161.643 228.425C161.643 229.239 161.341 229.872 160.737 230.323C160.14 230.774 159.302 231 158.224 231H154.392ZM154.866 226.421V230.525H158.268C159.176 230.525 159.888 230.344 160.403 229.98C160.919 229.617 161.177 229.102 161.177 228.434C161.177 227.836 160.913 227.353 160.386 226.983C159.864 226.608 159.149 226.421 158.241 226.421H154.866ZM154.866 225.946H157.837C158.798 225.946 159.524 225.776 160.017 225.437C160.509 225.097 160.755 224.593 160.755 223.925C160.755 223.245 160.491 222.75 159.964 222.439C159.437 222.129 158.669 221.974 157.661 221.974H154.866V225.946ZM170.317 231C170.2 230.596 170.142 230.016 170.142 229.26C169.767 229.869 169.254 230.341 168.604 230.675C167.953 231.009 167.218 231.176 166.397 231.176C165.519 231.176 164.81 230.938 164.271 230.464C163.737 229.983 163.471 229.359 163.471 228.592C163.471 227.719 163.863 227.021 164.648 226.5C165.439 225.973 166.488 225.703 167.795 225.691H170.142V224.303C170.142 223.506 169.89 222.888 169.386 222.448C168.888 222.009 168.173 221.789 167.241 221.789C166.374 221.789 165.65 222.012 165.07 222.457C164.49 222.902 164.2 223.453 164.2 224.109L163.726 224.092C163.726 223.318 164.065 222.662 164.745 222.123C165.425 221.584 166.257 221.314 167.241 221.314C168.267 221.314 169.081 221.572 169.685 222.088C170.288 222.598 170.599 223.318 170.616 224.25V228.794C170.616 229.837 170.698 230.546 170.862 230.921V231H170.317ZM166.397 230.71C167.288 230.71 168.053 230.511 168.691 230.112C169.336 229.714 169.819 229.154 170.142 228.434V226.175H167.944C166.585 226.175 165.545 226.444 164.824 226.983C164.238 227.423 163.945 227.971 163.945 228.627C163.945 229.207 164.177 229.699 164.64 230.104C165.103 230.508 165.688 230.71 166.397 230.71ZM174.158 221.49V230.525H179.142V221.49H179.625V230.525H184.529V221.49H185.004V231H173.684V221.49H174.158ZM194.048 221.49H194.531V231H194.048V222.334L188.168 231H187.693V221.49H188.168V230.156L194.048 221.49ZM200.341 225.709L203.373 221.49H203.971L200.631 226.122L204.146 231H203.558L200.332 226.535L197.115 231H196.526L200.042 226.122L196.702 221.49H197.3L200.341 225.709ZM216.381 223.925C216.381 223.251 216.132 222.727 215.634 222.352C215.142 221.977 214.421 221.789 213.472 221.789C212.651 221.789 211.957 221.997 211.389 222.413C210.826 222.829 210.545 223.351 210.545 223.978H210.062C210.062 223.21 210.393 222.574 211.055 222.07C211.723 221.566 212.528 221.314 213.472 221.314C214.55 221.314 215.385 221.549 215.977 222.018C216.568 222.48 216.864 223.125 216.864 223.951C216.864 224.449 216.703 224.892 216.381 225.278C216.059 225.665 215.604 225.949 215.019 226.131C216.36 226.436 217.031 227.209 217.031 228.451C217.031 229.283 216.709 229.945 216.064 230.438C215.426 230.924 214.564 231.167 213.48 231.167C212.848 231.167 212.253 231.05 211.696 230.815C211.14 230.581 210.7 230.253 210.378 229.831C210.062 229.409 209.903 228.917 209.903 228.354H210.387C210.387 229.011 210.68 229.564 211.266 230.016C211.852 230.461 212.59 230.684 213.48 230.684C214.488 230.684 215.25 230.487 215.766 230.095C216.287 229.696 216.548 229.157 216.548 228.478C216.548 227.745 216.293 227.215 215.783 226.887C215.279 226.559 214.521 226.392 213.507 226.386H212.18V225.902H213.604C215.455 225.873 216.381 225.214 216.381 223.925ZM225.706 231C225.589 230.596 225.53 230.016 225.53 229.26C225.155 229.869 224.643 230.341 223.992 230.675C223.342 231.009 222.606 231.176 221.786 231.176C220.907 231.176 220.198 230.938 219.659 230.464C219.126 229.983 218.859 229.359 218.859 228.592C218.859 227.719 219.252 227.021 220.037 226.5C220.828 225.973 221.877 225.703 223.184 225.691H225.53V224.303C225.53 223.506 225.278 222.888 224.774 222.448C224.276 222.009 223.562 221.789 222.63 221.789C221.763 221.789 221.039 222.012 220.459 222.457C219.879 222.902 219.589 223.453 219.589 224.109L219.114 224.092C219.114 223.318 219.454 222.662 220.134 222.123C220.813 221.584 221.646 221.314 222.63 221.314C223.655 221.314 224.47 221.572 225.073 222.088C225.677 222.598 225.987 223.318 226.005 224.25V228.794C226.005 229.837 226.087 230.546 226.251 230.921V231H225.706ZM221.786 230.71C222.677 230.71 223.441 230.511 224.08 230.112C224.725 229.714 225.208 229.154 225.53 228.434V226.175H223.333C221.974 226.175 220.934 226.444 220.213 226.983C219.627 227.423 219.334 227.971 219.334 228.627C219.334 229.207 219.565 229.699 220.028 230.104C220.491 230.508 221.077 230.71 221.786 230.71ZM234.126 230.279L238.45 221.49H239.021V231H238.538V222.404L234.311 231H233.941L229.626 222.193V231H229.151V221.49H229.802L234.126 230.279ZM245.464 231.176C244.696 231.176 243.99 230.971 243.346 230.561C242.707 230.145 242.206 229.576 241.843 228.855C241.479 228.135 241.298 227.335 241.298 226.456V226.061C241.298 225.182 241.474 224.376 241.825 223.644C242.177 222.911 242.66 222.34 243.275 221.93C243.891 221.52 244.562 221.314 245.288 221.314C246.349 221.314 247.216 221.692 247.89 222.448C248.563 223.204 248.9 224.197 248.9 225.428V225.929H241.772V226.447C241.772 227.221 241.934 227.938 242.256 228.601C242.584 229.257 243.032 229.772 243.601 230.147C244.175 230.522 244.796 230.71 245.464 230.71C246.103 230.71 246.645 230.604 247.09 230.394C247.541 230.177 247.939 229.846 248.285 229.4L248.619 229.638C247.91 230.663 246.858 231.176 245.464 231.176ZM245.288 221.789C244.362 221.789 243.577 222.135 242.933 222.826C242.288 223.512 241.91 224.388 241.799 225.454H248.426V225.34C248.426 224.695 248.288 224.098 248.013 223.547C247.743 222.99 247.368 222.56 246.888 222.255C246.413 221.944 245.88 221.789 245.288 221.789ZM257.602 221.974H253.866V231H253.392V221.974H249.85V221.49H257.602V221.974ZM258.375 226.061C258.375 225.152 258.548 224.338 258.894 223.617C259.245 222.891 259.737 222.325 260.37 221.921C261.009 221.517 261.729 221.314 262.532 221.314C263.329 221.314 264.044 221.511 264.677 221.903C265.31 222.296 265.802 222.853 266.153 223.573C266.511 224.294 266.692 225.105 266.698 226.008V226.43C266.698 227.344 266.525 228.161 266.18 228.882C265.834 229.603 265.342 230.165 264.703 230.569C264.07 230.974 263.353 231.176 262.55 231.176C261.747 231.176 261.026 230.977 260.388 230.578C259.755 230.18 259.263 229.623 258.911 228.908C258.56 228.188 258.381 227.379 258.375 226.482V226.061ZM258.85 226.43C258.85 227.221 259.005 227.947 259.315 228.609C259.632 229.266 260.068 229.778 260.625 230.147C261.188 230.517 261.829 230.701 262.55 230.701C263.634 230.701 264.516 230.294 265.195 229.479C265.881 228.665 266.224 227.616 266.224 226.333V226.061C266.224 225.281 266.065 224.561 265.749 223.898C265.433 223.236 264.993 222.721 264.431 222.352C263.874 221.977 263.241 221.789 262.532 221.789C261.448 221.789 260.563 222.202 259.878 223.028C259.192 223.854 258.85 224.895 258.85 226.148V226.43ZM271.225 226.351H269.484V231H269.001V221.49H269.484V225.885H271.312L275.083 221.49H275.769L271.726 226.148L276.322 231H275.61L271.225 226.351Z" fill="black"/>
<path d="M86.5312 132.586C86.3203 134.391 85.6523 135.785 84.5273 136.77C83.4102 137.746 81.9219 138.234 80.0625 138.234C78.0469 138.234 76.4297 137.512 75.2109 136.066C74 134.621 73.3945 132.688 73.3945 130.266V128.625C73.3945 127.039 73.6758 125.645 74.2383 124.441C74.8086 123.238 75.6133 122.316 76.6523 121.676C77.6914 121.027 78.8945 120.703 80.2617 120.703C82.0742 120.703 83.5273 121.211 84.6211 122.227C85.7148 123.234 86.3516 124.633 86.5312 126.422H84.2695C84.0742 125.062 83.6484 124.078 82.9922 123.469C82.3438 122.859 81.4336 122.555 80.2617 122.555C78.8242 122.555 77.6953 123.086 76.875 124.148C76.0625 125.211 75.6562 126.723 75.6562 128.684V130.336C75.6562 132.188 76.043 133.66 76.8164 134.754C77.5898 135.848 78.6719 136.395 80.0625 136.395C81.3125 136.395 82.2695 136.113 82.9336 135.551C83.6055 134.98 84.0508 133.992 84.2695 132.586H86.5312ZM97.4766 125.32H99.6445V138H97.4766V128.754L91.6289 138H89.4609V125.32H91.6289V134.578L97.4766 125.32ZM113.484 138H111.316V132.586H105.492V138H103.312V125.32H105.492V130.816H111.316V125.32H113.484V138ZM121.23 129.949L124.043 125.32H126.574L122.426 131.59L126.703 138H124.195L121.266 133.254L118.336 138H115.816L120.094 131.59L115.945 125.32H118.453L121.23 129.949ZM139.594 131.801C139.594 133.73 139.152 135.285 138.27 136.465C137.387 137.645 136.191 138.234 134.684 138.234C133.145 138.234 131.934 137.746 131.051 136.77V142.875H128.883V125.32H130.863L130.969 126.727C131.852 125.633 133.078 125.086 134.648 125.086C136.172 125.086 137.375 125.66 138.258 126.809C139.148 127.957 139.594 129.555 139.594 131.602V131.801ZM137.426 131.555C137.426 130.125 137.121 128.996 136.512 128.168C135.902 127.34 135.066 126.926 134.004 126.926C132.691 126.926 131.707 127.508 131.051 128.672V134.73C131.699 135.887 132.691 136.465 134.027 136.465C135.066 136.465 135.891 136.055 136.5 135.234C137.117 134.406 137.426 133.18 137.426 131.555ZM141.785 131.543C141.785 130.301 142.027 129.184 142.512 128.191C143.004 127.199 143.684 126.434 144.551 125.895C145.426 125.355 146.422 125.086 147.539 125.086C149.266 125.086 150.66 125.684 151.723 126.879C152.793 128.074 153.328 129.664 153.328 131.648V131.801C153.328 133.035 153.09 134.145 152.613 135.129C152.145 136.105 151.469 136.867 150.586 137.414C149.711 137.961 148.703 138.234 147.562 138.234C145.844 138.234 144.449 137.637 143.379 136.441C142.316 135.246 141.785 133.664 141.785 131.695V131.543ZM143.965 131.801C143.965 133.207 144.289 134.336 144.938 135.188C145.594 136.039 146.469 136.465 147.562 136.465C148.664 136.465 149.539 136.035 150.188 135.176C150.836 134.309 151.16 133.098 151.16 131.543C151.16 130.152 150.828 129.027 150.164 128.168C149.508 127.301 148.633 126.867 147.539 126.867C146.469 126.867 145.605 127.293 144.949 128.145C144.293 128.996 143.965 130.215 143.965 131.801ZM166.406 138H164.238V132.586H158.414V138H156.234V125.32H158.414V130.816H164.238V125.32H166.406V138ZM178.102 125.32H180.27V138H178.102V128.754L172.254 138H170.086V125.32H172.254V134.578L178.102 125.32ZM190.723 128.789C190.723 128.195 190.496 127.727 190.043 127.383C189.59 127.031 188.969 126.855 188.18 126.855C187.414 126.855 186.773 127.055 186.258 127.453C185.75 127.852 185.496 128.32 185.496 128.859H183.34C183.34 127.758 183.801 126.855 184.723 126.152C185.645 125.449 186.797 125.098 188.18 125.098C189.664 125.098 190.82 125.418 191.648 126.059C192.477 126.691 192.891 127.598 192.891 128.777C192.891 129.348 192.719 129.871 192.375 130.348C192.031 130.824 191.543 131.203 190.91 131.484C192.387 131.984 193.125 132.969 193.125 134.438C193.125 135.602 192.676 136.523 191.777 137.203C190.879 137.883 189.68 138.223 188.18 138.223C186.719 138.223 185.512 137.867 184.559 137.156C183.613 136.438 183.141 135.469 183.141 134.25H185.297C185.297 134.867 185.57 135.398 186.117 135.844C186.672 136.281 187.359 136.5 188.18 136.5C189.008 136.5 189.676 136.309 190.184 135.926C190.691 135.543 190.945 135.047 190.945 134.438C190.945 133.727 190.73 133.219 190.301 132.914C189.879 132.602 189.219 132.445 188.32 132.445H186.152V130.617H188.508C189.984 130.578 190.723 129.969 190.723 128.789ZM203.766 138C203.641 137.75 203.539 137.305 203.461 136.664C202.453 137.711 201.25 138.234 199.852 138.234C198.602 138.234 197.574 137.883 196.77 137.18C195.973 136.469 195.574 135.57 195.574 134.484C195.574 133.164 196.074 132.141 197.074 131.414C198.082 130.68 199.496 130.312 201.316 130.312H203.426V129.316C203.426 128.559 203.199 127.957 202.746 127.512C202.293 127.059 201.625 126.832 200.742 126.832C199.969 126.832 199.32 127.027 198.797 127.418C198.273 127.809 198.012 128.281 198.012 128.836H195.832C195.832 128.203 196.055 127.594 196.5 127.008C196.953 126.414 197.562 125.945 198.328 125.602C199.102 125.258 199.949 125.086 200.871 125.086C202.332 125.086 203.477 125.453 204.305 126.188C205.133 126.914 205.562 127.918 205.594 129.199V135.035C205.594 136.199 205.742 137.125 206.039 137.812V138H203.766ZM200.168 136.348C200.848 136.348 201.492 136.172 202.102 135.82C202.711 135.469 203.152 135.012 203.426 134.449V131.848H201.727C199.07 131.848 197.742 132.625 197.742 134.18C197.742 134.859 197.969 135.391 198.422 135.773C198.875 136.156 199.457 136.348 200.168 136.348ZM209.18 125.32H211.359V136.23H217.195V125.32H219.363V136.23H220.875L220.664 141.762H218.719V138H209.18V125.32ZM231.422 125.32H233.59V138H231.422V128.754L225.574 138H223.406V125.32H225.574V134.578L231.422 125.32ZM246.762 125.32V138H244.582V133.066H241.312L238.324 138H235.98L239.168 132.738C238.355 132.441 237.73 131.984 237.293 131.367C236.863 130.742 236.648 130.016 236.648 129.188C236.648 128.031 237.082 127.102 237.949 126.398C238.816 125.688 239.977 125.328 241.43 125.32H246.762ZM238.828 129.211C238.828 129.828 239.039 130.328 239.461 130.711C239.883 131.086 240.441 131.277 241.137 131.285H244.582V127.078H241.465C240.66 127.078 240.02 127.277 239.543 127.676C239.066 128.066 238.828 128.578 238.828 129.211Z" fill="#1F1F1F"/>
</svg>
