<svg width="320" height="280" viewBox="0 0 320 280" fill="none" xmlns="http://www.w3.org/2000/svg">
<g clip-path="url(#clip0)">
<path d="M38.0166 168V155.203H41.3828C42.7598 155.203 43.7998 155.484 44.5029 156.047C45.2119 156.604 45.5664 157.415 45.5664 158.481C45.5664 159.255 45.3701 159.896 44.9775 160.406C44.585 160.916 44.0312 161.241 43.3164 161.382C44.125 161.487 44.7988 161.839 45.3379 162.437C45.877 163.028 46.1465 163.708 46.1465 164.476C46.1465 165.565 45.792 166.427 45.083 167.06C44.3799 167.687 43.3984 168 42.1387 168H38.0166ZM38.4912 161.681V167.525H42.1914C43.2754 167.525 44.125 167.259 44.7402 166.726C45.3613 166.187 45.6719 165.442 45.6719 164.493C45.6719 163.685 45.373 163.02 44.7754 162.498C44.1777 161.971 43.3779 161.698 42.376 161.681H38.4912ZM38.4912 161.206H41.5586C42.7246 161.206 43.6035 160.983 44.1953 160.538C44.7871 160.087 45.083 159.39 45.083 158.446C45.083 156.63 43.8848 155.707 41.4883 155.678H38.4912V161.206ZM49.1875 162.111H52.3076C53.3213 162.129 54.127 162.404 54.7246 162.938C55.3223 163.465 55.6211 164.171 55.6211 165.056C55.6211 165.935 55.3252 166.641 54.7334 167.174C54.1416 167.707 53.333 167.982 52.3076 168H48.7129V158.49H49.1875V162.111ZM49.1875 162.586V167.525H52.2197C53.1338 167.525 53.8486 167.303 54.3643 166.857C54.8857 166.406 55.1465 165.8 55.1465 165.038C55.1465 164.312 54.8916 163.726 54.3818 163.28C53.8779 162.829 53.1807 162.598 52.29 162.586H49.1875ZM58.6797 168H58.2051V158.49H58.6797V168ZM71.0547 167.279L75.3789 158.49H75.9502V168H75.4668V159.404L71.2393 168H70.8701L66.5547 159.193V168H66.0801V158.49H66.7305L71.0547 167.279ZM78.2529 163.061C78.2529 162.152 78.4258 161.338 78.7715 160.617C79.123 159.891 79.6152 159.325 80.248 158.921C80.8867 158.517 81.6074 158.314 82.4102 158.314C83.207 158.314 83.9219 158.511 84.5547 158.903C85.1875 159.296 85.6797 159.853 86.0312 160.573C86.3887 161.294 86.5703 162.105 86.5762 163.008V163.43C86.5762 164.344 86.4033 165.161 86.0576 165.882C85.7119 166.603 85.2197 167.165 84.5811 167.569C83.9482 167.974 83.2305 168.176 82.4277 168.176C81.625 168.176 80.9043 167.977 80.2656 167.578C79.6328 167.18 79.1406 166.623 78.7891 165.908C78.4375 165.188 78.2588 164.379 78.2529 163.482V163.061ZM78.7275 163.43C78.7275 164.221 78.8828 164.947 79.1934 165.609C79.5098 166.266 79.9463 166.778 80.5029 167.147C81.0654 167.517 81.707 167.701 82.4277 167.701C83.5117 167.701 84.3936 167.294 85.0732 166.479C85.7588 165.665 86.1016 164.616 86.1016 163.333V163.061C86.1016 162.281 85.9434 161.561 85.627 160.898C85.3105 160.236 84.8711 159.721 84.3086 159.352C83.752 158.977 83.1191 158.789 82.4102 158.789C81.3262 158.789 80.4414 159.202 79.7559 160.028C79.0703 160.854 78.7275 161.895 78.7275 163.148V163.43ZM95.6289 163.359H94.2578V168H93.7832V163.359H92.4209L88.0439 168H87.4199L91.9111 163.148L87.9736 158.49H88.5625L92.3418 162.885H93.7832V158.49H94.2578V162.885H95.7256L99.4961 158.49H100.103L96.1387 163.148L100.647 168H100.023L95.6289 163.359ZM105.771 168.176C105.004 168.176 104.298 167.971 103.653 167.561C103.015 167.145 102.514 166.576 102.15 165.855C101.787 165.135 101.605 164.335 101.605 163.456V163.061C101.605 162.182 101.781 161.376 102.133 160.644C102.484 159.911 102.968 159.34 103.583 158.93C104.198 158.52 104.869 158.314 105.596 158.314C106.656 158.314 107.523 158.692 108.197 159.448C108.871 160.204 109.208 161.197 109.208 162.428V162.929H102.08V163.447C102.08 164.221 102.241 164.938 102.563 165.601C102.892 166.257 103.34 166.772 103.908 167.147C104.482 167.522 105.104 167.71 105.771 167.71C106.41 167.71 106.952 167.604 107.397 167.394C107.849 167.177 108.247 166.846 108.593 166.4L108.927 166.638C108.218 167.663 107.166 168.176 105.771 168.176ZM105.596 158.789C104.67 158.789 103.885 159.135 103.24 159.826C102.596 160.512 102.218 161.388 102.106 162.454H108.733V162.34C108.733 161.695 108.596 161.098 108.32 160.547C108.051 159.99 107.676 159.56 107.195 159.255C106.721 158.944 106.188 158.789 105.596 158.789ZM117.909 158.974H114.174V168H113.699V158.974H110.157V158.49H117.909V158.974ZM122.488 168.176C121.721 168.176 121.015 167.971 120.37 167.561C119.731 167.145 119.23 166.576 118.867 165.855C118.504 165.135 118.322 164.335 118.322 163.456V163.061C118.322 162.182 118.498 161.376 118.85 160.644C119.201 159.911 119.685 159.34 120.3 158.93C120.915 158.52 121.586 158.314 122.312 158.314C123.373 158.314 124.24 158.692 124.914 159.448C125.588 160.204 125.925 161.197 125.925 162.428V162.929H118.797V163.447C118.797 164.221 118.958 164.938 119.28 165.601C119.608 166.257 120.057 166.772 120.625 167.147C121.199 167.522 121.82 167.71 122.488 167.71C123.127 167.71 123.669 167.604 124.114 167.394C124.565 167.177 124.964 166.846 125.31 166.4L125.644 166.638C124.935 167.663 123.883 168.176 122.488 168.176ZM122.312 158.789C121.387 158.789 120.602 159.135 119.957 159.826C119.312 160.512 118.935 161.388 118.823 162.454H125.45V162.34C125.45 161.695 125.312 161.098 125.037 160.547C124.768 159.99 124.393 159.56 123.912 159.255C123.438 158.944 122.904 158.789 122.312 158.789ZM138.801 158.49H139.284V168H138.801V159.334L132.921 168H132.446V158.49H132.921V167.156L138.801 158.49ZM145.533 167.701C146.395 167.701 147.104 167.473 147.66 167.016C148.223 166.559 148.53 165.926 148.583 165.117H149.058C149.011 166.037 148.656 166.778 147.994 167.341C147.332 167.897 146.512 168.176 145.533 168.176C144.344 168.176 143.397 167.745 142.694 166.884C141.997 166.022 141.648 164.854 141.648 163.377V163.061C141.648 161.619 141.997 160.468 142.694 159.606C143.397 158.745 144.338 158.314 145.516 158.314C146.523 158.314 147.355 158.616 148.012 159.22C148.668 159.823 149.017 160.626 149.058 161.628H148.583C148.542 160.772 148.24 160.087 147.678 159.571C147.121 159.05 146.4 158.789 145.516 158.789C144.455 158.789 143.623 159.173 143.02 159.94C142.422 160.702 142.123 161.763 142.123 163.122V163.43C142.123 164.76 142.425 165.806 143.028 166.567C143.638 167.323 144.473 167.701 145.533 167.701ZM158.286 168H157.803V158.974H151.923V168H151.448V158.49H158.286V168ZM160.589 163.061C160.589 162.152 160.762 161.338 161.107 160.617C161.459 159.891 161.951 159.325 162.584 158.921C163.223 158.517 163.943 158.314 164.746 158.314C165.543 158.314 166.258 158.511 166.891 158.903C167.523 159.296 168.016 159.853 168.367 160.573C168.725 161.294 168.906 162.105 168.912 163.008V163.43C168.912 164.344 168.739 165.161 168.394 165.882C168.048 166.603 167.556 167.165 166.917 167.569C166.284 167.974 165.566 168.176 164.764 168.176C163.961 168.176 163.24 167.977 162.602 167.578C161.969 167.18 161.477 166.623 161.125 165.908C160.773 165.188 160.595 164.379 160.589 163.482V163.061ZM161.063 163.43C161.063 164.221 161.219 164.947 161.529 165.609C161.846 166.266 162.282 166.778 162.839 167.147C163.401 167.517 164.043 167.701 164.764 167.701C165.848 167.701 166.729 167.294 167.409 166.479C168.095 165.665 168.438 164.616 168.438 163.333V163.061C168.438 162.281 168.279 161.561 167.963 160.898C167.646 160.236 167.207 159.721 166.645 159.352C166.088 158.977 165.455 158.789 164.746 158.789C163.662 158.789 162.777 159.202 162.092 160.028C161.406 160.854 161.063 161.895 161.063 163.148V163.43ZM177.921 158.49V168H177.438V158.974H172.885L172.7 163.421C172.606 165.114 172.378 166.298 172.015 166.972C171.657 167.646 171.083 167.988 170.292 168H169.958V167.534H170.354C170.951 167.511 171.388 167.197 171.663 166.594C171.944 165.99 172.129 164.982 172.217 163.57L172.428 158.49H177.921ZM181.498 162.111H184.618C185.632 162.129 186.438 162.404 187.035 162.938C187.633 163.465 187.932 164.171 187.932 165.056C187.932 165.935 187.636 166.641 187.044 167.174C186.452 167.707 185.644 167.982 184.618 168H181.023V158.49H181.498V162.111ZM181.498 162.586V167.525H184.53C185.444 167.525 186.159 167.303 186.675 166.857C187.196 166.406 187.457 165.8 187.457 165.038C187.457 164.312 187.202 163.726 186.692 163.28C186.188 162.829 185.491 162.598 184.601 162.586H181.498ZM196.36 160.925C196.36 160.251 196.111 159.727 195.613 159.352C195.121 158.977 194.4 158.789 193.451 158.789C192.631 158.789 191.937 158.997 191.368 159.413C190.806 159.829 190.524 160.351 190.524 160.978H190.041C190.041 160.21 190.372 159.574 191.034 159.07C191.702 158.566 192.508 158.314 193.451 158.314C194.529 158.314 195.364 158.549 195.956 159.018C196.548 159.48 196.844 160.125 196.844 160.951C196.844 161.449 196.683 161.892 196.36 162.278C196.038 162.665 195.584 162.949 194.998 163.131C196.34 163.436 197.011 164.209 197.011 165.451C197.011 166.283 196.688 166.945 196.044 167.438C195.405 167.924 194.544 168.167 193.46 168.167C192.827 168.167 192.232 168.05 191.676 167.815C191.119 167.581 190.68 167.253 190.357 166.831C190.041 166.409 189.883 165.917 189.883 165.354H190.366C190.366 166.011 190.659 166.564 191.245 167.016C191.831 167.461 192.569 167.684 193.46 167.684C194.468 167.684 195.229 167.487 195.745 167.095C196.267 166.696 196.527 166.157 196.527 165.478C196.527 164.745 196.272 164.215 195.763 163.887C195.259 163.559 194.5 163.392 193.486 163.386H192.159V162.902H193.583C195.435 162.873 196.36 162.214 196.36 160.925ZM198.821 163.061C198.821 162.152 198.994 161.338 199.34 160.617C199.691 159.891 200.184 159.325 200.816 158.921C201.455 158.517 202.176 158.314 202.979 158.314C203.775 158.314 204.49 158.511 205.123 158.903C205.756 159.296 206.248 159.853 206.6 160.573C206.957 161.294 207.139 162.105 207.145 163.008V163.43C207.145 164.344 206.972 165.161 206.626 165.882C206.28 166.603 205.788 167.165 205.149 167.569C204.517 167.974 203.799 168.176 202.996 168.176C202.193 168.176 201.473 167.977 200.834 167.578C200.201 167.18 199.709 166.623 199.357 165.908C199.006 165.188 198.827 164.379 198.821 163.482V163.061ZM199.296 163.43C199.296 164.221 199.451 164.947 199.762 165.609C200.078 166.266 200.515 166.778 201.071 167.147C201.634 167.517 202.275 167.701 202.996 167.701C204.08 167.701 204.962 167.294 205.642 166.479C206.327 165.665 206.67 164.616 206.67 163.333V163.061C206.67 162.281 206.512 161.561 206.195 160.898C205.879 160.236 205.439 159.721 204.877 159.352C204.32 158.977 203.688 158.789 202.979 158.789C201.895 158.789 201.01 159.202 200.324 160.028C199.639 160.854 199.296 161.895 199.296 163.148V163.43ZM209.535 168V158.49H212.805C213.959 158.49 214.841 158.701 215.45 159.123C216.065 159.539 216.373 160.148 216.373 160.951C216.373 161.479 216.209 161.938 215.881 162.331C215.559 162.724 215.096 162.987 214.492 163.122H214.501C215.146 163.192 215.688 163.444 216.127 163.878C216.566 164.312 216.786 164.827 216.786 165.425C216.786 166.239 216.484 166.872 215.881 167.323C215.283 167.774 214.445 168 213.367 168H209.535ZM210.01 163.421V167.525H213.411C214.319 167.525 215.031 167.344 215.547 166.98C216.062 166.617 216.32 166.102 216.32 165.434C216.32 164.836 216.057 164.353 215.529 163.983C215.008 163.608 214.293 163.421 213.385 163.421H210.01ZM210.01 162.946H212.98C213.941 162.946 214.668 162.776 215.16 162.437C215.652 162.097 215.898 161.593 215.898 160.925C215.898 160.245 215.635 159.75 215.107 159.439C214.58 159.129 213.812 158.974 212.805 158.974H210.01V162.946ZM225.461 168C225.344 167.596 225.285 167.016 225.285 166.26C224.91 166.869 224.397 167.341 223.747 167.675C223.097 168.009 222.361 168.176 221.541 168.176C220.662 168.176 219.953 167.938 219.414 167.464C218.881 166.983 218.614 166.359 218.614 165.592C218.614 164.719 219.007 164.021 219.792 163.5C220.583 162.973 221.632 162.703 222.938 162.691H225.285V161.303C225.285 160.506 225.033 159.888 224.529 159.448C224.031 159.009 223.316 158.789 222.385 158.789C221.518 158.789 220.794 159.012 220.214 159.457C219.634 159.902 219.344 160.453 219.344 161.109L218.869 161.092C218.869 160.318 219.209 159.662 219.889 159.123C220.568 158.584 221.4 158.314 222.385 158.314C223.41 158.314 224.225 158.572 224.828 159.088C225.432 159.598 225.742 160.318 225.76 161.25V165.794C225.76 166.837 225.842 167.546 226.006 167.921V168H225.461ZM221.541 167.71C222.432 167.71 223.196 167.511 223.835 167.112C224.479 166.714 224.963 166.154 225.285 165.434V163.175H223.088C221.729 163.175 220.688 163.444 219.968 163.983C219.382 164.423 219.089 164.971 219.089 165.627C219.089 166.207 219.32 166.699 219.783 167.104C220.246 167.508 220.832 167.71 221.541 167.71ZM235.278 158.974H231.543V168H231.068V158.974H227.526V158.49H235.278V158.974ZM237.695 162.111H240.815C241.829 162.129 242.635 162.404 243.232 162.938C243.83 163.465 244.129 164.171 244.129 165.056C244.129 165.935 243.833 166.641 243.241 167.174C242.649 167.707 241.841 167.982 240.815 168H237.221V158.49H237.695V162.111ZM237.695 162.586V167.525H240.728C241.642 167.525 242.356 167.303 242.872 166.857C243.394 166.406 243.654 165.8 243.654 165.038C243.654 164.312 243.399 163.726 242.89 163.28C242.386 162.829 241.688 162.598 240.798 162.586H237.695ZM257.532 158.974H253.797V168H253.322V158.974H249.78V158.49H257.532V158.974ZM262.111 168.176C261.344 168.176 260.638 167.971 259.993 167.561C259.354 167.145 258.854 166.576 258.49 165.855C258.127 165.135 257.945 164.335 257.945 163.456V163.061C257.945 162.182 258.121 161.376 258.473 160.644C258.824 159.911 259.308 159.34 259.923 158.93C260.538 158.52 261.209 158.314 261.936 158.314C262.996 158.314 263.863 158.692 264.537 159.448C265.211 160.204 265.548 161.197 265.548 162.428V162.929H258.42V163.447C258.42 164.221 258.581 164.938 258.903 165.601C259.231 166.257 259.68 166.772 260.248 167.147C260.822 167.522 261.443 167.71 262.111 167.71C262.75 167.71 263.292 167.604 263.737 167.394C264.188 167.177 264.587 166.846 264.933 166.4L265.267 166.638C264.558 167.663 263.506 168.176 262.111 168.176ZM261.936 158.789C261.01 158.789 260.225 159.135 259.58 159.826C258.936 160.512 258.558 161.388 258.446 162.454H265.073V162.34C265.073 161.695 264.936 161.098 264.66 160.547C264.391 159.99 264.016 159.56 263.535 159.255C263.061 158.944 262.527 158.789 261.936 158.789ZM273.476 158.974H268.237V168H267.763V158.49H273.476V158.974ZM281.746 158.49H282.229V168H281.746V159.334L275.866 168H275.392V158.49H275.866V167.156L281.746 158.49ZM26.1514 188.525L26.4854 188.077C27.3467 186.899 27.8477 185.191 27.9883 182.953L28.1729 179.49H33.2793V188.525H34.0352V191.795H33.5605V189H25.9053V191.795H25.5186V188.525H26.1514ZM26.7314 188.525H32.8047V179.965H28.6211L28.4541 183.111C28.29 185.496 27.7158 187.301 26.7314 188.525ZM43.123 179.49V189H42.6396V179.974H38.0869L37.9023 184.421C37.8086 186.114 37.5801 187.298 37.2168 187.972C36.8594 188.646 36.2852 188.988 35.4941 189H35.1602V188.534H35.5557C36.1533 188.511 36.5898 188.197 36.8652 187.594C37.1465 186.99 37.3311 185.982 37.4189 184.57L37.6299 179.49H43.123ZM52.7559 179.49V189H52.2812V185.045H48.8008L46.4189 189H45.8564L48.2559 185.001C47.5703 184.89 47.0283 184.591 46.6299 184.104C46.2314 183.618 46.0322 183.006 46.0322 182.268C46.0322 181.441 46.3105 180.776 46.8672 180.272C47.4297 179.769 48.1914 179.508 49.1523 179.49H52.7559ZM46.5068 182.285C46.5068 182.971 46.7119 183.519 47.1221 183.929C47.5381 184.339 48.0977 184.55 48.8008 184.562H52.2812V179.974H49.2402C48.3848 179.974 47.7139 180.179 47.2275 180.589C46.7471 180.999 46.5068 181.564 46.5068 182.285ZM66.7305 179.974H62.9951V189H62.5205V179.974H58.9785V179.49H66.7305V179.974ZM67.5039 184.061C67.5039 183.152 67.6768 182.338 68.0225 181.617C68.374 180.891 68.8662 180.325 69.499 179.921C70.1377 179.517 70.8584 179.314 71.6611 179.314C72.458 179.314 73.1729 179.511 73.8057 179.903C74.4385 180.296 74.9307 180.853 75.2822 181.573C75.6396 182.294 75.8213 183.105 75.8271 184.008V184.43C75.8271 185.344 75.6543 186.161 75.3086 186.882C74.9629 187.603 74.4707 188.165 73.832 188.569C73.1992 188.974 72.4814 189.176 71.6787 189.176C70.876 189.176 70.1553 188.977 69.5166 188.578C68.8838 188.18 68.3916 187.623 68.04 186.908C67.6885 186.188 67.5098 185.379 67.5039 184.482V184.061ZM67.9785 184.43C67.9785 185.221 68.1338 185.947 68.4443 186.609C68.7607 187.266 69.1973 187.778 69.7539 188.147C70.3164 188.517 70.958 188.701 71.6787 188.701C72.7627 188.701 73.6445 188.294 74.3242 187.479C75.0098 186.665 75.3525 185.616 75.3525 184.333V184.061C75.3525 183.281 75.1943 182.561 74.8779 181.898C74.5615 181.236 74.1221 180.721 73.5596 180.352C73.0029 179.977 72.3701 179.789 71.6611 179.789C70.5771 179.789 69.6924 180.202 69.0068 181.028C68.3213 181.854 67.9785 182.895 67.9785 184.148V184.43ZM83.8516 179.974H78.6133V189H78.1387V179.49H83.8516V179.974ZM84.8711 184.061C84.8711 183.152 85.0439 182.338 85.3896 181.617C85.7412 180.891 86.2334 180.325 86.8662 179.921C87.5049 179.517 88.2256 179.314 89.0283 179.314C89.8252 179.314 90.54 179.511 91.1729 179.903C91.8057 180.296 92.2979 180.853 92.6494 181.573C93.0068 182.294 93.1885 183.105 93.1943 184.008V184.43C93.1943 185.344 93.0215 186.161 92.6758 186.882C92.3301 187.603 91.8379 188.165 91.1992 188.569C90.5664 188.974 89.8486 189.176 89.0459 189.176C88.2432 189.176 87.5225 188.977 86.8838 188.578C86.251 188.18 85.7588 187.623 85.4072 186.908C85.0557 186.188 84.877 185.379 84.8711 184.482V184.061ZM85.3457 184.43C85.3457 185.221 85.501 185.947 85.8115 186.609C86.1279 187.266 86.5645 187.778 87.1211 188.147C87.6836 188.517 88.3252 188.701 89.0459 188.701C90.1299 188.701 91.0117 188.294 91.6914 187.479C92.377 186.665 92.7197 185.616 92.7197 184.333V184.061C92.7197 183.281 92.5615 182.561 92.2451 181.898C91.9287 181.236 91.4893 180.721 90.9268 180.352C90.3701 179.977 89.7373 179.789 89.0283 179.789C87.9443 179.789 87.0596 180.202 86.374 181.028C85.6885 181.854 85.3457 182.895 85.3457 184.148V184.43ZM95.1279 191.241L94.8027 190.96C95.2773 190.351 95.5352 189.721 95.5762 189.07L95.585 187.603H96.0596V188.886C96.0361 189.817 95.7256 190.603 95.1279 191.241ZM109.542 189H109.067V184.412C108.646 184.617 108.168 184.787 107.635 184.922C107.107 185.051 106.662 185.115 106.299 185.115C105.35 185.115 104.629 185.004 104.137 184.781C103.645 184.553 103.281 184.184 103.047 183.674C102.818 183.158 102.704 182.455 102.704 181.564V179.49H103.179V181.564C103.179 182.344 103.278 182.956 103.478 183.401C103.677 183.841 103.99 184.157 104.418 184.351C104.852 184.544 105.479 184.641 106.299 184.641C106.768 184.617 107.269 184.541 107.802 184.412C108.341 184.277 108.763 184.128 109.067 183.964V179.49H109.542V189ZM119.166 179.974H115.431V189H114.956V179.974H111.414V179.49H119.166V179.974ZM119.939 184.061C119.939 183.152 120.112 182.338 120.458 181.617C120.81 180.891 121.302 180.325 121.935 179.921C122.573 179.517 123.294 179.314 124.097 179.314C124.894 179.314 125.608 179.511 126.241 179.903C126.874 180.296 127.366 180.853 127.718 181.573C128.075 182.294 128.257 183.105 128.263 184.008V184.43C128.263 185.344 128.09 186.161 127.744 186.882C127.398 187.603 126.906 188.165 126.268 188.569C125.635 188.974 124.917 189.176 124.114 189.176C123.312 189.176 122.591 188.977 121.952 188.578C121.319 188.18 120.827 187.623 120.476 186.908C120.124 186.188 119.945 185.379 119.939 184.482V184.061ZM120.414 184.43C120.414 185.221 120.569 185.947 120.88 186.609C121.196 187.266 121.633 187.778 122.189 188.147C122.752 188.517 123.394 188.701 124.114 188.701C125.198 188.701 126.08 188.294 126.76 187.479C127.445 186.665 127.788 185.616 127.788 184.333V184.061C127.788 183.281 127.63 182.561 127.313 181.898C126.997 181.236 126.558 180.721 125.995 180.352C125.438 179.977 124.806 179.789 124.097 179.789C123.013 179.789 122.128 180.202 121.442 181.028C120.757 181.854 120.414 182.895 120.414 184.148V184.43ZM134.072 180.193C135.303 180.193 136.305 180.586 137.078 181.371C137.857 182.15 138.247 183.19 138.247 184.491V184.781C138.247 185.625 138.071 186.384 137.72 187.058C137.368 187.731 136.873 188.253 136.234 188.622C135.602 188.991 134.887 189.176 134.09 189.176C133.287 189.176 132.563 188.988 131.919 188.613C131.28 188.238 130.785 187.717 130.434 187.049C130.088 186.381 129.915 185.625 129.915 184.781V183.797C129.915 181.887 130.29 180.331 131.04 179.13C131.796 177.929 132.842 177.234 134.178 177.047C135.104 176.918 135.774 176.722 136.19 176.458C136.612 176.194 136.823 175.825 136.823 175.351H137.298C137.298 175.966 137.04 176.455 136.524 176.818C136.015 177.182 135.268 177.416 134.283 177.521C133.299 177.621 132.479 178.069 131.822 178.866C131.166 179.663 130.729 180.738 130.513 182.092C130.864 181.5 131.345 181.037 131.954 180.703C132.563 180.363 133.27 180.193 134.072 180.193ZM134.072 180.668C132.988 180.668 132.104 181.028 131.418 181.749C130.732 182.464 130.39 183.378 130.39 184.491V184.781C130.39 185.508 130.545 186.173 130.855 186.776C131.172 187.38 131.608 187.852 132.165 188.191C132.728 188.531 133.369 188.701 134.09 188.701C135.168 188.701 136.05 188.329 136.735 187.585C137.421 186.835 137.764 185.871 137.764 184.693V184.412C137.764 183.727 137.608 183.097 137.298 182.522C136.987 181.942 136.551 181.488 135.988 181.16C135.426 180.832 134.787 180.668 134.072 180.668ZM140.989 183.111H144.109C145.123 183.129 145.929 183.404 146.526 183.938C147.124 184.465 147.423 185.171 147.423 186.056C147.423 186.935 147.127 187.641 146.535 188.174C145.943 188.707 145.135 188.982 144.109 189H140.515V179.49H140.989V183.111ZM140.989 183.586V188.525H144.021C144.936 188.525 145.65 188.303 146.166 187.857C146.688 187.406 146.948 186.8 146.948 186.038C146.948 185.312 146.693 184.726 146.184 184.28C145.68 183.829 144.982 183.598 144.092 183.586H140.989ZM150.481 189H150.007V179.49H150.481V189ZM161.028 188.701C161.89 188.701 162.599 188.473 163.155 188.016C163.718 187.559 164.025 186.926 164.078 186.117H164.553C164.506 187.037 164.151 187.778 163.489 188.341C162.827 188.897 162.007 189.176 161.028 189.176C159.839 189.176 158.893 188.745 158.189 187.884C157.492 187.022 157.144 185.854 157.144 184.377V184.061C157.144 182.619 157.492 181.468 158.189 180.606C158.893 179.745 159.833 179.314 161.011 179.314C162.019 179.314 162.851 179.616 163.507 180.22C164.163 180.823 164.512 181.626 164.553 182.628H164.078C164.037 181.772 163.735 181.087 163.173 180.571C162.616 180.05 161.896 179.789 161.011 179.789C159.95 179.789 159.118 180.173 158.515 180.94C157.917 181.702 157.618 182.763 157.618 184.122V184.43C157.618 185.76 157.92 186.806 158.523 187.567C159.133 188.323 159.968 188.701 161.028 188.701ZM173.535 179.974H169.8V189H169.325V179.974H165.783V179.49H173.535V179.974ZM182.667 184.333C182.667 185.815 182.348 186.993 181.709 187.866C181.07 188.739 180.2 189.176 179.099 189.176C178.378 189.176 177.736 189.029 177.174 188.736C176.611 188.443 176.172 188.039 175.855 187.523V192.656H175.381V179.49H175.855V181.187C176.184 180.583 176.626 180.12 177.183 179.798C177.739 179.476 178.372 179.314 179.081 179.314C180.194 179.314 181.07 179.742 181.709 180.598C182.348 181.447 182.667 182.643 182.667 184.184V184.333ZM182.184 184.148C182.184 182.783 181.911 181.717 181.366 180.949C180.827 180.176 180.068 179.789 179.09 179.789C178.293 179.789 177.616 179.997 177.06 180.413C176.503 180.823 176.102 181.415 175.855 182.188V186.636C176.102 187.292 176.503 187.802 177.06 188.165C177.622 188.522 178.305 188.701 179.107 188.701C180.08 188.701 180.836 188.314 181.375 187.541C181.914 186.768 182.184 185.637 182.184 184.148ZM188.063 188.262L188.125 188.086L191.412 179.49H191.939L187.686 190.652L187.475 191.18C187.018 192.287 186.262 192.841 185.207 192.841C184.867 192.841 184.633 192.809 184.504 192.744L184.495 192.296C184.683 192.349 184.896 192.375 185.137 192.375C185.635 192.375 186.048 192.229 186.376 191.936C186.704 191.648 186.988 191.177 187.229 190.521L187.809 188.947L184.021 179.49H184.539L188.063 188.262ZM195.965 184.351H194.225V189H193.741V179.49H194.225V183.885H196.053L199.823 179.49H200.509L196.466 184.148L201.062 189H200.351L195.965 184.351ZM209.271 179.974H205.536V189H205.062V179.974H201.52V179.49H209.271V179.974ZM214.149 188.262L214.211 188.086L217.498 179.49H218.025L213.771 190.652L213.561 191.18C213.104 192.287 212.348 192.841 211.293 192.841C210.953 192.841 210.719 192.809 210.59 192.744L210.581 192.296C210.769 192.349 210.982 192.375 211.223 192.375C211.721 192.375 212.134 192.229 212.462 191.936C212.79 191.648 213.074 191.177 213.314 190.521L213.895 188.947L210.106 179.49H210.625L214.149 188.262ZM227.104 184.333C227.104 185.815 226.785 186.993 226.146 187.866C225.508 188.739 224.638 189.176 223.536 189.176C222.815 189.176 222.174 189.029 221.611 188.736C221.049 188.443 220.609 188.039 220.293 187.523V192.656H219.818V179.49H220.293V181.187C220.621 180.583 221.063 180.12 221.62 179.798C222.177 179.476 222.81 179.314 223.519 179.314C224.632 179.314 225.508 179.742 226.146 180.598C226.785 181.447 227.104 182.643 227.104 184.184V184.333ZM226.621 184.148C226.621 182.783 226.349 181.717 225.804 180.949C225.265 180.176 224.506 179.789 223.527 179.789C222.73 179.789 222.054 179.997 221.497 180.413C220.94 180.823 220.539 181.415 220.293 182.188V186.636C220.539 187.292 220.94 187.802 221.497 188.165C222.06 188.522 222.742 188.701 223.545 188.701C224.518 188.701 225.273 188.314 225.812 187.541C226.352 186.768 226.621 185.637 226.621 184.148ZM236.052 179.49H236.535V189H236.052V180.334L230.172 189H229.697V179.49H230.172V188.156L236.052 179.49ZM246.827 184.333C246.827 185.815 246.508 186.993 245.869 187.866C245.23 188.739 244.36 189.176 243.259 189.176C242.538 189.176 241.896 189.029 241.334 188.736C240.771 188.443 240.332 188.039 240.016 187.523V192.656H239.541V179.49H240.016V181.187C240.344 180.583 240.786 180.12 241.343 179.798C241.899 179.476 242.532 179.314 243.241 179.314C244.354 179.314 245.23 179.742 245.869 180.598C246.508 181.447 246.827 182.643 246.827 184.184V184.333ZM246.344 184.148C246.344 182.783 246.071 181.717 245.526 180.949C244.987 180.176 244.229 179.789 243.25 179.789C242.453 179.789 241.776 179.997 241.22 180.413C240.663 180.823 240.262 181.415 240.016 182.188V186.636C240.262 187.292 240.663 187.802 241.22 188.165C241.782 188.522 242.465 188.701 243.268 188.701C244.24 188.701 244.996 188.314 245.535 187.541C246.074 186.768 246.344 185.637 246.344 184.148ZM248.699 184.061C248.699 183.152 248.872 182.338 249.218 181.617C249.569 180.891 250.062 180.325 250.694 179.921C251.333 179.517 252.054 179.314 252.856 179.314C253.653 179.314 254.368 179.511 255.001 179.903C255.634 180.296 256.126 180.853 256.478 181.573C256.835 182.294 257.017 183.105 257.022 184.008V184.43C257.022 185.344 256.85 186.161 256.504 186.882C256.158 187.603 255.666 188.165 255.027 188.569C254.395 188.974 253.677 189.176 252.874 189.176C252.071 189.176 251.351 188.977 250.712 188.578C250.079 188.18 249.587 187.623 249.235 186.908C248.884 186.188 248.705 185.379 248.699 184.482V184.061ZM249.174 184.43C249.174 185.221 249.329 185.947 249.64 186.609C249.956 187.266 250.393 187.778 250.949 188.147C251.512 188.517 252.153 188.701 252.874 188.701C253.958 188.701 254.84 188.294 255.52 187.479C256.205 186.665 256.548 185.616 256.548 184.333V184.061C256.548 183.281 256.39 182.561 256.073 181.898C255.757 181.236 255.317 180.721 254.755 180.352C254.198 179.977 253.565 179.789 252.856 179.789C251.772 179.789 250.888 180.202 250.202 181.028C249.517 181.854 249.174 182.895 249.174 184.148V184.43ZM259.413 189V179.49H262.683C263.837 179.49 264.719 179.701 265.328 180.123C265.943 180.539 266.251 181.148 266.251 181.951C266.251 182.479 266.087 182.938 265.759 183.331C265.437 183.724 264.974 183.987 264.37 184.122H264.379C265.023 184.192 265.565 184.444 266.005 184.878C266.444 185.312 266.664 185.827 266.664 186.425C266.664 187.239 266.362 187.872 265.759 188.323C265.161 188.774 264.323 189 263.245 189H259.413ZM259.888 184.421V188.525H263.289C264.197 188.525 264.909 188.344 265.425 187.98C265.94 187.617 266.198 187.102 266.198 186.434C266.198 185.836 265.935 185.353 265.407 184.983C264.886 184.608 264.171 184.421 263.263 184.421H259.888ZM259.888 183.946H262.858C263.819 183.946 264.546 183.776 265.038 183.437C265.53 183.097 265.776 182.593 265.776 181.925C265.776 181.245 265.513 180.75 264.985 180.439C264.458 180.129 263.69 179.974 262.683 179.974H259.888V183.946ZM275.339 189C275.222 188.596 275.163 188.016 275.163 187.26C274.788 187.869 274.275 188.341 273.625 188.675C272.975 189.009 272.239 189.176 271.419 189.176C270.54 189.176 269.831 188.938 269.292 188.464C268.759 187.983 268.492 187.359 268.492 186.592C268.492 185.719 268.885 185.021 269.67 184.5C270.461 183.973 271.51 183.703 272.816 183.691H275.163V182.303C275.163 181.506 274.911 180.888 274.407 180.448C273.909 180.009 273.194 179.789 272.263 179.789C271.396 179.789 270.672 180.012 270.092 180.457C269.512 180.902 269.222 181.453 269.222 182.109L268.747 182.092C268.747 181.318 269.087 180.662 269.767 180.123C270.446 179.584 271.278 179.314 272.263 179.314C273.288 179.314 274.103 179.572 274.706 180.088C275.31 180.598 275.62 181.318 275.638 182.25V186.794C275.638 187.837 275.72 188.546 275.884 188.921V189H275.339ZM271.419 188.71C272.31 188.71 273.074 188.511 273.713 188.112C274.357 187.714 274.841 187.154 275.163 186.434V184.175H272.966C271.606 184.175 270.566 184.444 269.846 184.983C269.26 185.423 268.967 185.971 268.967 186.627C268.967 187.207 269.198 187.699 269.661 188.104C270.124 188.508 270.71 188.71 271.419 188.71ZM285.156 179.974H281.421V189H280.946V179.974H277.404V179.49H285.156V179.974ZM287.573 183.111H290.693C291.707 183.129 292.513 183.404 293.11 183.938C293.708 184.465 294.007 185.171 294.007 186.056C294.007 186.935 293.711 187.641 293.119 188.174C292.527 188.707 291.719 188.982 290.693 189H287.099V179.49H287.573V183.111ZM287.573 183.586V188.525H290.605C291.52 188.525 292.234 188.303 292.75 187.857C293.271 187.406 293.532 186.8 293.532 186.038C293.532 185.312 293.277 184.726 292.768 184.28C292.264 183.829 291.566 183.598 290.676 183.586H287.573ZM43.0352 202.925C43.0352 202.251 42.7861 201.727 42.2881 201.352C41.7959 200.977 41.0752 200.789 40.126 200.789C39.3057 200.789 38.6113 200.997 38.043 201.413C37.4805 201.829 37.1992 202.351 37.1992 202.978H36.7158C36.7158 202.21 37.0469 201.574 37.709 201.07C38.377 200.566 39.1826 200.314 40.126 200.314C41.2041 200.314 42.0391 200.549 42.6309 201.018C43.2227 201.48 43.5186 202.125 43.5186 202.951C43.5186 203.449 43.3574 203.892 43.0352 204.278C42.7129 204.665 42.2588 204.949 41.6729 205.131C43.0146 205.436 43.6855 206.209 43.6855 207.451C43.6855 208.283 43.3633 208.945 42.7188 209.438C42.0801 209.924 41.2188 210.167 40.1348 210.167C39.502 210.167 38.9072 210.05 38.3506 209.815C37.7939 209.581 37.3545 209.253 37.0322 208.831C36.7158 208.409 36.5576 207.917 36.5576 207.354H37.041C37.041 208.011 37.334 208.564 37.9199 209.016C38.5059 209.461 39.2441 209.684 40.1348 209.684C41.1426 209.684 41.9043 209.487 42.4199 209.095C42.9414 208.696 43.2021 208.157 43.2021 207.478C43.2021 206.745 42.9473 206.215 42.4375 205.887C41.9336 205.559 41.1748 205.392 40.1611 205.386H38.834V204.902H40.2578C42.1094 204.873 43.0352 204.214 43.0352 202.925ZM52.3604 210C52.2432 209.596 52.1846 209.016 52.1846 208.26C51.8096 208.869 51.2969 209.341 50.6465 209.675C49.9961 210.009 49.2607 210.176 48.4404 210.176C47.5615 210.176 46.8525 209.938 46.3135 209.464C45.7803 208.983 45.5137 208.359 45.5137 207.592C45.5137 206.719 45.9062 206.021 46.6914 205.5C47.4824 204.973 48.5312 204.703 49.8379 204.691H52.1846V203.303C52.1846 202.506 51.9326 201.888 51.4287 201.448C50.9307 201.009 50.2158 200.789 49.2842 200.789C48.417 200.789 47.6934 201.012 47.1133 201.457C46.5332 201.902 46.2432 202.453 46.2432 203.109L45.7686 203.092C45.7686 202.318 46.1084 201.662 46.7881 201.123C47.4678 200.584 48.2998 200.314 49.2842 200.314C50.3096 200.314 51.124 200.572 51.7275 201.088C52.3311 201.598 52.6416 202.318 52.6592 203.25V207.794C52.6592 208.837 52.7412 209.546 52.9053 209.921V210H52.3604ZM48.4404 209.71C49.3311 209.71 50.0957 209.511 50.7344 209.112C51.3789 208.714 51.8623 208.154 52.1846 207.434V205.175H49.9873C48.6279 205.175 47.5879 205.444 46.8672 205.983C46.2812 206.423 45.9883 206.971 45.9883 207.627C45.9883 208.207 46.2197 208.699 46.6826 209.104C47.1455 209.508 47.7314 209.71 48.4404 209.71ZM60.7803 209.279L65.1045 200.49H65.6758V210H65.1924V201.404L60.9648 210H60.5957L56.2803 201.193V210H55.8057V200.49H56.4561L60.7803 209.279ZM72.1182 210.176C71.3506 210.176 70.6445 209.971 70 209.561C69.3613 209.145 68.8604 208.576 68.4971 207.855C68.1338 207.135 67.9521 206.335 67.9521 205.456V205.061C67.9521 204.182 68.1279 203.376 68.4795 202.644C68.8311 201.911 69.3145 201.34 69.9297 200.93C70.5449 200.52 71.2158 200.314 71.9424 200.314C73.0029 200.314 73.8701 200.692 74.5439 201.448C75.2178 202.204 75.5547 203.197 75.5547 204.428V204.929H68.4268V205.447C68.4268 206.221 68.5879 206.938 68.9102 207.601C69.2383 208.257 69.6865 208.772 70.2549 209.147C70.8291 209.522 71.4502 209.71 72.1182 209.71C72.7568 209.71 73.2988 209.604 73.7441 209.394C74.1953 209.177 74.5938 208.846 74.9395 208.4L75.2734 208.638C74.5645 209.663 73.5127 210.176 72.1182 210.176ZM71.9424 200.789C71.0166 200.789 70.2314 201.135 69.5869 201.826C68.9424 202.512 68.5645 203.388 68.4531 204.454H75.0801V204.34C75.0801 203.695 74.9424 203.098 74.667 202.547C74.3975 201.99 74.0225 201.56 73.542 201.255C73.0674 200.944 72.5342 200.789 71.9424 200.789ZM84.2559 200.974H80.5205V210H80.0459V200.974H76.5039V200.49H84.2559V200.974ZM88.334 205.351H86.5938V210H86.1104V200.49H86.5938V204.885H88.4219L92.1924 200.49H92.8779L88.835 205.148L93.4316 210H92.7197L88.334 205.351ZM101.403 200.49H101.887V210H101.403V201.334L95.5234 210H95.0488V200.49H95.5234V209.156L101.403 200.49ZM115.571 200.49H116.055V210H115.571V201.334L109.691 210H109.217V200.49H109.691V209.156L115.571 200.49ZM126.883 201.193C128.113 201.193 129.115 201.586 129.889 202.371C130.668 203.15 131.058 204.19 131.058 205.491V205.781C131.058 206.625 130.882 207.384 130.53 208.058C130.179 208.731 129.684 209.253 129.045 209.622C128.412 209.991 127.697 210.176 126.9 210.176C126.098 210.176 125.374 209.988 124.729 209.613C124.091 209.238 123.596 208.717 123.244 208.049C122.898 207.381 122.726 206.625 122.726 205.781V204.797C122.726 202.887 123.101 201.331 123.851 200.13C124.606 198.929 125.652 198.234 126.988 198.047C127.914 197.918 128.585 197.722 129.001 197.458C129.423 197.194 129.634 196.825 129.634 196.351H130.108C130.108 196.966 129.851 197.455 129.335 197.818C128.825 198.182 128.078 198.416 127.094 198.521C126.109 198.621 125.289 199.069 124.633 199.866C123.977 200.663 123.54 201.738 123.323 203.092C123.675 202.5 124.155 202.037 124.765 201.703C125.374 201.363 126.08 201.193 126.883 201.193ZM126.883 201.668C125.799 201.668 124.914 202.028 124.229 202.749C123.543 203.464 123.2 204.378 123.2 205.491V205.781C123.2 206.508 123.355 207.173 123.666 207.776C123.982 208.38 124.419 208.852 124.976 209.191C125.538 209.531 126.18 209.701 126.9 209.701C127.979 209.701 128.86 209.329 129.546 208.585C130.231 207.835 130.574 206.871 130.574 205.693V205.412C130.574 204.727 130.419 204.097 130.108 203.522C129.798 202.942 129.361 202.488 128.799 202.16C128.236 201.832 127.598 201.668 126.883 201.668ZM133.8 204.111H136.92C137.934 204.129 138.739 204.404 139.337 204.938C139.935 205.465 140.233 206.171 140.233 207.056C140.233 207.935 139.938 208.641 139.346 209.174C138.754 209.707 137.945 209.982 136.92 210H133.325V200.49H133.8V204.111ZM133.8 204.586V209.525H136.832C137.746 209.525 138.461 209.303 138.977 208.857C139.498 208.406 139.759 207.8 139.759 207.038C139.759 206.312 139.504 205.726 138.994 205.28C138.49 204.829 137.793 204.598 136.902 204.586H133.8ZM143.292 210H142.817V200.49H143.292V210ZM149.532 209.701C150.394 209.701 151.103 209.473 151.659 209.016C152.222 208.559 152.529 207.926 152.582 207.117H153.057C153.01 208.037 152.655 208.778 151.993 209.341C151.331 209.897 150.511 210.176 149.532 210.176C148.343 210.176 147.396 209.745 146.693 208.884C145.996 208.022 145.647 206.854 145.647 205.377V205.061C145.647 203.619 145.996 202.468 146.693 201.606C147.396 200.745 148.337 200.314 149.515 200.314C150.522 200.314 151.354 200.616 152.011 201.22C152.667 201.823 153.016 202.626 153.057 203.628H152.582C152.541 202.772 152.239 202.087 151.677 201.571C151.12 201.05 150.399 200.789 149.515 200.789C148.454 200.789 147.622 201.173 147.019 201.94C146.421 202.702 146.122 203.763 146.122 205.122V205.43C146.122 206.76 146.424 207.806 147.027 208.567C147.637 209.323 148.472 209.701 149.532 209.701ZM162.039 200.974H158.304V210H157.829V200.974H154.287V200.49H162.039V200.974ZM171.171 205.333C171.171 206.815 170.852 207.993 170.213 208.866C169.574 209.739 168.704 210.176 167.603 210.176C166.882 210.176 166.24 210.029 165.678 209.736C165.115 209.443 164.676 209.039 164.359 208.523V213.656H163.885V200.49H164.359V202.187C164.688 201.583 165.13 201.12 165.687 200.798C166.243 200.476 166.876 200.314 167.585 200.314C168.698 200.314 169.574 200.742 170.213 201.598C170.852 202.447 171.171 203.643 171.171 205.184V205.333ZM170.688 205.148C170.688 203.783 170.415 202.717 169.87 201.949C169.331 201.176 168.572 200.789 167.594 200.789C166.797 200.789 166.12 200.997 165.563 201.413C165.007 201.823 164.605 202.415 164.359 203.188V207.636C164.605 208.292 165.007 208.802 165.563 209.165C166.126 209.522 166.809 209.701 167.611 209.701C168.584 209.701 169.34 209.314 169.879 208.541C170.418 207.768 170.688 206.637 170.688 205.148ZM173.043 205.061C173.043 204.152 173.216 203.338 173.562 202.617C173.913 201.891 174.405 201.325 175.038 200.921C175.677 200.517 176.397 200.314 177.2 200.314C177.997 200.314 178.712 200.511 179.345 200.903C179.978 201.296 180.47 201.853 180.821 202.573C181.179 203.294 181.36 204.105 181.366 205.008V205.43C181.366 206.344 181.193 207.161 180.848 207.882C180.502 208.603 180.01 209.165 179.371 209.569C178.738 209.974 178.021 210.176 177.218 210.176C176.415 210.176 175.694 209.977 175.056 209.578C174.423 209.18 173.931 208.623 173.579 207.908C173.228 207.188 173.049 206.379 173.043 205.482V205.061ZM173.518 205.43C173.518 206.221 173.673 206.947 173.983 207.609C174.3 208.266 174.736 208.778 175.293 209.147C175.855 209.517 176.497 209.701 177.218 209.701C178.302 209.701 179.184 209.294 179.863 208.479C180.549 207.665 180.892 206.616 180.892 205.333V205.061C180.892 204.281 180.733 203.561 180.417 202.898C180.101 202.236 179.661 201.721 179.099 201.352C178.542 200.977 177.909 200.789 177.2 200.789C176.116 200.789 175.231 201.202 174.546 202.028C173.86 202.854 173.518 203.895 173.518 205.148V205.43ZM194.822 210H194.339V205.351H188.459V210H187.984V200.49H188.459V204.876H194.339V200.49H194.822V210ZM203.989 210C203.872 209.596 203.813 209.016 203.813 208.26C203.438 208.869 202.926 209.341 202.275 209.675C201.625 210.009 200.89 210.176 200.069 210.176C199.19 210.176 198.481 209.938 197.942 209.464C197.409 208.983 197.143 208.359 197.143 207.592C197.143 206.719 197.535 206.021 198.32 205.5C199.111 204.973 200.16 204.703 201.467 204.691H203.813V203.303C203.813 202.506 203.562 201.888 203.058 201.448C202.56 201.009 201.845 200.789 200.913 200.789C200.046 200.789 199.322 201.012 198.742 201.457C198.162 201.902 197.872 202.453 197.872 203.109L197.397 203.092C197.397 202.318 197.737 201.662 198.417 201.123C199.097 200.584 199.929 200.314 200.913 200.314C201.938 200.314 202.753 200.572 203.356 201.088C203.96 201.598 204.271 202.318 204.288 203.25V207.794C204.288 208.837 204.37 209.546 204.534 209.921V210H203.989ZM200.069 209.71C200.96 209.71 201.725 209.511 202.363 209.112C203.008 208.714 203.491 208.154 203.813 207.434V205.175H201.616C200.257 205.175 199.217 205.444 198.496 205.983C197.91 206.423 197.617 206.971 197.617 207.627C197.617 208.207 197.849 208.699 198.312 209.104C198.774 209.508 199.36 209.71 200.069 209.71ZM210.142 204.709L213.174 200.49H213.771L210.432 205.122L213.947 210H213.358L210.133 205.535L206.916 210H206.327L209.843 205.122L206.503 200.49H207.101L210.142 204.709ZM215.055 205.061C215.055 204.152 215.228 203.338 215.573 202.617C215.925 201.891 216.417 201.325 217.05 200.921C217.688 200.517 218.409 200.314 219.212 200.314C220.009 200.314 220.724 200.511 221.356 200.903C221.989 201.296 222.481 201.853 222.833 202.573C223.19 203.294 223.372 204.105 223.378 205.008V205.43C223.378 206.344 223.205 207.161 222.859 207.882C222.514 208.603 222.021 209.165 221.383 209.569C220.75 209.974 220.032 210.176 219.229 210.176C218.427 210.176 217.706 209.977 217.067 209.578C216.435 209.18 215.942 208.623 215.591 207.908C215.239 207.188 215.061 206.379 215.055 205.482V205.061ZM215.529 205.43C215.529 206.221 215.685 206.947 215.995 207.609C216.312 208.266 216.748 208.778 217.305 209.147C217.867 209.517 218.509 209.701 219.229 209.701C220.313 209.701 221.195 209.294 221.875 208.479C222.561 207.665 222.903 206.616 222.903 205.333V205.061C222.903 204.281 222.745 203.561 222.429 202.898C222.112 202.236 221.673 201.721 221.11 201.352C220.554 200.977 219.921 200.789 219.212 200.789C218.128 200.789 217.243 201.202 216.558 202.028C215.872 202.854 215.529 203.895 215.529 205.148V205.43ZM224.696 209.525L225.03 209.077C225.892 207.899 226.393 206.191 226.533 203.953L226.718 200.49H231.824V209.525H232.58V212.795H232.105V210H224.45V212.795H224.063V209.525H224.696ZM225.276 209.525H231.35V200.965H227.166L226.999 204.111C226.835 206.496 226.261 208.301 225.276 209.525ZM241.185 200.49H241.668V210H241.185V201.334L235.305 210H234.83V200.49H235.305V209.156L241.185 200.49ZM251.283 200.974H247.548V210H247.073V200.974H243.531V200.49H251.283V200.974ZM253.7 204.111H256.82C257.834 204.129 258.64 204.404 259.237 204.938C259.835 205.465 260.134 206.171 260.134 207.056C260.134 207.935 259.838 208.641 259.246 209.174C258.654 209.707 257.846 209.982 256.82 210H253.226V200.49H253.7V204.111ZM253.7 204.586V209.525H256.732C257.646 209.525 258.361 209.303 258.877 208.857C259.398 208.406 259.659 207.8 259.659 207.038C259.659 206.312 259.404 205.726 258.895 205.28C258.391 204.829 257.693 204.598 256.803 204.586H253.7ZM273.3 200.49H273.783V210H273.3V201.334L267.42 210H266.945V200.49H267.42V209.156L273.3 200.49ZM282.73 202.925C282.73 202.251 282.481 201.727 281.983 201.352C281.491 200.977 280.771 200.789 279.821 200.789C279.001 200.789 278.307 200.997 277.738 201.413C277.176 201.829 276.895 202.351 276.895 202.978H276.411C276.411 202.21 276.742 201.574 277.404 201.07C278.072 200.566 278.878 200.314 279.821 200.314C280.899 200.314 281.734 200.549 282.326 201.018C282.918 201.48 283.214 202.125 283.214 202.951C283.214 203.449 283.053 203.892 282.73 204.278C282.408 204.665 281.954 204.949 281.368 205.131C282.71 205.436 283.381 206.209 283.381 207.451C283.381 208.283 283.059 208.945 282.414 209.438C281.775 209.924 280.914 210.167 279.83 210.167C279.197 210.167 278.603 210.05 278.046 209.815C277.489 209.581 277.05 209.253 276.728 208.831C276.411 208.409 276.253 207.917 276.253 207.354H276.736C276.736 208.011 277.029 208.564 277.615 209.016C278.201 209.461 278.939 209.684 279.83 209.684C280.838 209.684 281.6 209.487 282.115 209.095C282.637 208.696 282.897 208.157 282.897 207.478C282.897 206.745 282.643 206.215 282.133 205.887C281.629 205.559 280.87 205.392 279.856 205.386H278.529V204.902H279.953C281.805 204.873 282.73 204.214 282.73 202.925ZM119.896 231H119.412V226.351H113.532V231H113.058V221.49H113.532V225.876H119.412V221.49H119.896V231ZM129.273 221.49H129.757V231H129.273V222.334L123.394 231H122.919V221.49H123.394V230.156L129.273 221.49ZM135.566 225.709L138.599 221.49H139.196L135.856 226.122L139.372 231H138.783L135.558 226.535L132.341 231H131.752L135.268 226.122L131.928 221.49H132.525L135.566 225.709ZM152.521 231H152.037V226.351H146.157V231H145.683V221.49H146.157V225.876H152.037V221.49H152.521V231ZM158.453 230.262L158.515 230.086L161.802 221.49H162.329L158.075 232.652L157.864 233.18C157.407 234.287 156.651 234.841 155.597 234.841C155.257 234.841 155.022 234.809 154.894 234.744L154.885 234.296C155.072 234.349 155.286 234.375 155.526 234.375C156.024 234.375 156.438 234.229 156.766 233.936C157.094 233.648 157.378 233.177 157.618 232.521L158.198 230.947L154.41 221.49H154.929L158.453 230.262ZM171.074 226.359H169.703V231H169.229V226.359H167.866L163.489 231H162.865L167.356 226.148L163.419 221.49H164.008L167.787 225.885H169.229V221.49H169.703V225.885H171.171L174.941 221.49H175.548L171.584 226.148L176.093 231H175.469L171.074 226.359ZM184.812 231H184.328V226.351H178.448V231H177.974V221.49H178.448V225.876H184.328V221.49H184.812V231ZM188.389 225.111H191.509C192.522 225.129 193.328 225.404 193.926 225.938C194.523 226.465 194.822 227.171 194.822 228.056C194.822 228.935 194.526 229.641 193.935 230.174C193.343 230.707 192.534 230.982 191.509 231H187.914V221.49H188.389V225.111ZM188.389 225.586V230.525H191.421C192.335 230.525 193.05 230.303 193.565 229.857C194.087 229.406 194.348 228.8 194.348 228.038C194.348 227.312 194.093 226.726 193.583 226.28C193.079 225.829 192.382 225.598 191.491 225.586H188.389ZM197.881 231H197.406V221.49H197.881V231ZM204.314 231.176C203.547 231.176 202.841 230.971 202.196 230.561C201.558 230.145 201.057 229.576 200.693 228.855C200.33 228.135 200.148 227.335 200.148 226.456V226.061C200.148 225.182 200.324 224.376 200.676 223.644C201.027 222.911 201.511 222.34 202.126 221.93C202.741 221.52 203.412 221.314 204.139 221.314C205.199 221.314 206.066 221.692 206.74 222.448C207.414 223.204 207.751 224.197 207.751 225.428V225.929H200.623V226.447C200.623 227.221 200.784 227.938 201.106 228.601C201.435 229.257 201.883 229.772 202.451 230.147C203.025 230.522 203.646 230.71 204.314 230.71C204.953 230.71 205.495 230.604 205.94 230.394C206.392 230.177 206.79 229.846 207.136 229.4L207.47 229.638C206.761 230.663 205.709 231.176 204.314 231.176ZM204.139 221.789C203.213 221.789 202.428 222.135 201.783 222.826C201.139 223.512 200.761 224.388 200.649 225.454H207.276V225.34C207.276 224.695 207.139 224.098 206.863 223.547C206.594 222.99 206.219 222.56 205.738 222.255C205.264 221.944 204.73 221.789 204.139 221.789Z" fill="black"/>
<path d="M98.0117 138H95.75V122.789H87.3359V138H85.0859V120.938H98.0117V138ZM101.199 131.543C101.199 130.301 101.441 129.184 101.926 128.191C102.418 127.199 103.098 126.434 103.965 125.895C104.84 125.355 105.836 125.086 106.953 125.086C108.68 125.086 110.074 125.684 111.137 126.879C112.207 128.074 112.742 129.664 112.742 131.648V131.801C112.742 133.035 112.504 134.145 112.027 135.129C111.559 136.105 110.883 136.867 110 137.414C109.125 137.961 108.117 138.234 106.977 138.234C105.258 138.234 103.863 137.637 102.793 136.441C101.73 135.246 101.199 133.664 101.199 131.695V131.543ZM103.379 131.801C103.379 133.207 103.703 134.336 104.352 135.188C105.008 136.039 105.883 136.465 106.977 136.465C108.078 136.465 108.953 136.035 109.602 135.176C110.25 134.309 110.574 133.098 110.574 131.543C110.574 130.152 110.242 129.027 109.578 128.168C108.922 127.301 108.047 126.867 106.953 126.867C105.883 126.867 105.02 127.293 104.363 128.145C103.707 128.996 103.379 130.215 103.379 131.801ZM123.664 125.32H125.832V138H123.664V128.754L117.816 138H115.648V125.32H117.816V134.578L123.664 125.32ZM134.398 136.465C135.172 136.465 135.848 136.23 136.426 135.762C137.004 135.293 137.324 134.707 137.387 134.004H139.438C139.398 134.73 139.148 135.422 138.688 136.078C138.227 136.734 137.609 137.258 136.836 137.648C136.07 138.039 135.258 138.234 134.398 138.234C132.672 138.234 131.297 137.66 130.273 136.512C129.258 135.355 128.75 133.777 128.75 131.777V131.414C128.75 130.18 128.977 129.082 129.43 128.121C129.883 127.16 130.531 126.414 131.375 125.883C132.227 125.352 133.23 125.086 134.387 125.086C135.809 125.086 136.988 125.512 137.926 126.363C138.871 127.215 139.375 128.32 139.438 129.68H137.387C137.324 128.859 137.012 128.188 136.449 127.664C135.895 127.133 135.207 126.867 134.387 126.867C133.285 126.867 132.43 127.266 131.82 128.062C131.219 128.852 130.918 129.996 130.918 131.496V131.906C130.918 133.367 131.219 134.492 131.82 135.281C132.422 136.07 133.281 136.465 134.398 136.465ZM145.824 132.598H144.242V138H142.062V125.32H144.242V130.688H145.66L149.926 125.32H152.551L147.535 131.414L152.973 138H150.219L145.824 132.598ZM171.16 138H168.992V127.113H163.156V138H160.977V125.32H171.16V138ZM174.066 131.543C174.066 130.301 174.309 129.184 174.793 128.191C175.285 127.199 175.965 126.434 176.832 125.895C177.707 125.355 178.703 125.086 179.82 125.086C181.547 125.086 182.941 125.684 184.004 126.879C185.074 128.074 185.609 129.664 185.609 131.648V131.801C185.609 133.035 185.371 134.145 184.895 135.129C184.426 136.105 183.75 136.867 182.867 137.414C181.992 137.961 180.984 138.234 179.844 138.234C178.125 138.234 176.73 137.637 175.66 136.441C174.598 135.246 174.066 133.664 174.066 131.695V131.543ZM176.246 131.801C176.246 133.207 176.57 134.336 177.219 135.188C177.875 136.039 178.75 136.465 179.844 136.465C180.945 136.465 181.82 136.035 182.469 135.176C183.117 134.309 183.441 133.098 183.441 131.543C183.441 130.152 183.109 129.027 182.445 128.168C181.789 127.301 180.914 126.867 179.82 126.867C178.75 126.867 177.887 127.293 177.23 128.145C176.574 128.996 176.246 130.215 176.246 131.801ZM203.703 127.078H199.449V138H197.281V127.078H193.109V125.32H203.703V127.078ZM210.137 138.234C208.418 138.234 207.02 137.672 205.941 136.547C204.863 135.414 204.324 133.902 204.324 132.012V131.613C204.324 130.355 204.562 129.234 205.039 128.25C205.523 127.258 206.195 126.484 207.055 125.93C207.922 125.367 208.859 125.086 209.867 125.086C211.516 125.086 212.797 125.629 213.711 126.715C214.625 127.801 215.082 129.355 215.082 131.379V132.281H206.492C206.523 133.531 206.887 134.543 207.582 135.316C208.285 136.082 209.176 136.465 210.254 136.465C211.02 136.465 211.668 136.309 212.199 135.996C212.73 135.684 213.195 135.27 213.594 134.754L214.918 135.785C213.855 137.418 212.262 138.234 210.137 138.234ZM209.867 126.867C208.992 126.867 208.258 127.188 207.664 127.828C207.07 128.461 206.703 129.352 206.562 130.5H212.914V130.336C212.852 129.234 212.555 128.383 212.023 127.781C211.492 127.172 210.773 126.867 209.867 126.867ZM225.793 127.113H219.945V138H217.766V125.32H225.793V127.113ZM231.828 134.824L234.781 125.32H237.102L232.004 139.957C231.215 142.066 229.961 143.121 228.242 143.121L227.832 143.086L227.023 142.934V141.176L227.609 141.223C228.344 141.223 228.914 141.074 229.32 140.777C229.734 140.48 230.074 139.938 230.34 139.148L230.82 137.859L226.297 125.32H228.664L231.828 134.824Z" fill="#1F1F1F"/>
<path d="M170.477 81.9766H149.148L144.812 106H141.531L145.867 81.9766H129.988V78.9297H146.453L152.02 48.2266H134.441V45.0625H152.605L157 20.6875H160.281L155.828 45.0625H177.215L181.668 20.6875H184.949L180.496 45.0625H195.379V48.2266H179.91L174.285 78.9297H190.984V81.9766H173.758L169.363 106H166.082L170.477 81.9766ZM149.734 78.9297H171.004L176.629 48.2266H155.242L149.734 78.9297Z" fill="black"/>
</g>
<defs>
<clipPath id="clip0">
<rect width="320" height="280" fill="white"/>
</clipPath>
</defs>
</svg>
